<?xml version="1.0" encoding="UTF-8" standalone="no"?>
<svg
   xmlns:dc="http://purl.org/dc/elements/1.1/"
   xmlns:cc="http://creativecommons.org/ns#"
   xmlns:rdf="http://www.w3.org/1999/02/22-rdf-syntax-ns#"
   xmlns:svg="http://www.w3.org/2000/svg"
   xmlns="http://www.w3.org/2000/svg"
   xmlns:xlink="http://www.w3.org/1999/xlink"
   xmlns:sodipodi="http://sodipodi.sourceforge.net/DTD/sodipodi-0.dtd"
   xmlns:inkscape="http://www.inkscape.org/namespaces/inkscape"
   inkscape:export-ydpi="300.01407"
   inkscape:export-xdpi="300.01407"
   inkscape:export-filename="/Users/w449t405/Desktop/jayhawkdown.png"
   xml:space="preserve"
   style="enable-background:new 0 0 2206 2557;"
   viewBox="0 0 2206 2557"
   y="0px"
   x="0px"
   sodipodi:docname="jayhawkdown.svg"
   inkscape:version="1.0 (4035a4f, 2020-05-01)"
   id="svg40"
   version="1.1"><metadata
   id="metadata41"><rdf:RDF><cc:Work
       rdf:about=""><dc:format>image/svg+xml</dc:format><dc:type
         rdf:resource="http://purl.org/dc/dcmitype/StillImage" /></cc:Work></rdf:RDF></metadata><defs
   id="defs39" />
<style
   id="style10"
   type="text/css">
	.st0{fill:none;stroke:#0051BA;stroke-width:12.936;}
	.st1{fill:#0051BA;}
</style>
<sodipodi:namedview
   units="px"
   showgrid="false"
   pagecolor="#ffffff"
   inkscape:zoom="0.24258858"
   inkscape:window-y="229"
   inkscape:window-x="1051"
   inkscape:window-width="1767"
   inkscape:window-maximized="0"
   inkscape:window-height="1035"
   inkscape:pageshadow="2"
   inkscape:pageopacity="0.0"
   inkscape:document-units="mm"
   inkscape:document-rotation="0"
   inkscape:cy="1285.2419"
   inkscape:cx="-68.973918"
   inkscape:current-layer="layer1"
   id="base"
   borderopacity="1.0"
   bordercolor="#666666">
	</sodipodi:namedview>
<g
   inkscape:label="Layer 1"
   inkscape:groupmode="layer"
   id="layer1">
	
		
	
		<path
   sodipodi:type="star"
   style="fill:#ffffff;stroke:#0051ba;stroke-width:12.936;stroke-miterlimit:4;stroke-dasharray:none;stroke-opacity:1;fill-opacity:1"
   id="path865"
   sodipodi:sides="6"
   sodipodi:cx="285.22083"
   sodipodi:cy="329.34464"
   sodipodi:r1="329.51392"
   sodipodi:r2="285.36746"
   sodipodi:arg1="0.52359878"
   sodipodi:arg2="1.0471976"
   inkscape:flatsided="true"
   inkscape:rounded="0"
   inkscape:randomized="0"
   d="M 570.58825,494.10159 285.22082,658.85855 -0.1465977,494.10159 -0.14659625,164.58768 285.22083,-0.16928101 570.58825,164.58768 Z"
   transform="matrix(3.7795274,0,0,3.7939654,25.000076,28.97785)" /><image
   sodipodi:absref="/Users/w449t405/Desktop/375BD22242A6AD06.png"
   xlink:href="375BD22242A6AD06.png"
   style="overflow:visible;enable-background:new"
   width="1994.22"
   height="1226.4453"
   id="image1194"
   x="105.89"
   y="477.18738">
	</image>
	
	
	
	
	
	
	
	
	
	
	<g
   transform="matrix(1.6572284,0,0,1.6572284,-811.18166,-1321.1179)"
   id="g971"><path
     class="st1"
     d="m 599.4,1883.2 c 0,8.8 0.3,23.2 -3.1,32.2 -3.5,9.8 -11.6,18.9 -26.6,27.3 -2.4,1.4 -3.8,2.1 -6.4,3.2 -1,0.4 -1.8,0.7 -2.8,0.7 -0.6,0 -1.3,-0.3 -1.3,-1.1 0,-0.8 0.8,-1.5 2.5,-2.5 2.7,-1.5 5,-3.2 7.1,-5.6 6,-6.7 6.7,-13.7 6.7,-47.6 v -30.1 c 0,-18.9 -0.1,-22.1 -0.4,-26 -0.3,-4.2 -2,-5.3 -5.7,-5.7 -2.2,-0.3 -3.1,-0.4 -4.2,-0.6 -1.7,-0.1 -2.5,-0.6 -2.5,-1.4 0,-0.8 0.6,-1.4 2.8,-1.4 5,0 20.4,0.4 20.7,0.4 0.7,0 17.5,-0.4 22,-0.4 2.2,0 2.7,0.6 2.7,1.3 0,1 -0.4,1.3 -2.4,1.5 -1,0.1 -1.8,0.1 -3.6,0.4 -4.1,0.7 -4.9,3.4 -5,7 -0.3,3.9 -0.4,6 -0.4,24.9 v 23.5 z"
     id="path15" /><path
     class="st1"
     d="m 643.5,1893.1 c -0.8,0 -1.3,0.8 -1.4,1.3 l -2.9,7.1 c -1.3,3.1 -2.1,5.9 -2.1,7.4 0,4.1 5.3,4.2 8.5,4.5 1.8,0.1 2.2,0.7 2.2,1.3 0,1 -0.7,1.5 -2.4,1.5 -6.2,0 -10.4,-0.4 -17.5,-0.4 -1.4,0 -9.5,0.4 -15.5,0.4 -2,0 -2.5,-0.6 -2.5,-1.4 0,-0.8 0.7,-1.4 2.2,-1.4 6,-0.7 9.2,-2.4 12.9,-10.6 l 33.6,-71.7 c 2.9,-6.4 4.3,-8.3 5.9,-8.3 1.4,0 2.5,1.8 4.9,6.6 3.1,6.9 24.8,52.4 33.2,70.8 4.3,9 6.6,12.2 11.3,12.9 1.1,0.1 2.1,0.3 2.8,0.3 1.5,0 2.4,0.7 2.4,1.4 0,1 -1.1,1.4 -2.5,1.4 -14.1,-0.1 -28.7,-0.3 -36.1,-0.4 -1.7,0 -2.5,-0.6 -2.5,-1.3 0,-0.8 0.8,-1.1 1.7,-1.4 1.1,-0.4 2.4,-0.6 1.7,-2.1 l -7.7,-17.2 c -0.1,-0.4 -0.7,-0.7 -1.1,-0.7 z m 24.9,-11 c 0.8,0 0.8,-0.3 0.7,-0.6 L 658,1856.4 c -0.4,-0.7 -0.4,-0.4 -0.7,0.1 l -10.4,24.9 c -0.1,0.4 0.1,0.6 0.4,0.6 h 21.1 z"
     id="path17" /><path
     class="st1"
     d="m 738.8,1884.7 c 0,-6.6 -1.4,-8.7 -3.6,-12.9 -5.6,-9.9 -16.9,-28.4 -21.1,-34.3 -5.2,-7.8 -6.4,-8.7 -10.6,-9.5 -0.4,-0.1 -1.8,-0.4 -2.7,-0.6 -1.4,-0.3 -1.8,-0.8 -1.8,-1.5 0,-0.8 1,-1.4 2.5,-1.4 5.9,0 15.3,0.4 20.2,0.4 2,0 10.9,-0.4 19.2,-0.4 1.5,0 2.4,0.6 2.4,1.3 0,0.8 -0.4,1.3 -2.2,1.7 -3.8,0.4 -4.6,1.4 -4.6,2.4 0,0.8 0.4,1.8 1.3,3.4 2,3.5 17.1,29.7 19.2,33.3 9.2,-16.4 13.9,-25.2 16.2,-30.2 1.3,-2.7 2.1,-4.1 2.1,-5.6 0,-1.5 -0.6,-2.7 -4.9,-3.2 -1.1,-0.1 -2,-0.6 -2,-1.5 0,-0.8 0.7,-1.4 2.8,-1.4 5.3,0 9.7,0.4 14.8,0.4 1.5,0 12.3,-0.4 14.7,-0.4 1.4,0 2.4,0.3 2.4,1.1 0,1 -0.7,1.5 -2.4,1.7 -1.8,0.1 -3.2,0.4 -4.8,0.8 -3.6,1.4 -5,3.2 -7.3,6 -4.2,4.9 -22.3,35.1 -23.9,40.2 -1.8,5.2 -2,10.2 -2,11.2 v 8.5 c 0,1.8 0,6.2 0.3,11.3 0.3,2.9 0.4,6.3 5.2,7.3 2.4,0.6 4.8,0.6 7.1,0.7 1.4,0 2.1,0.7 2.1,1.4 0,0.7 -0.4,1.4 -2.2,1.4 -9.2,0 -20.7,-0.4 -25.1,-0.4 -3.6,0 -14.4,0.4 -20.3,0.4 -1.8,0 -2.5,-0.6 -2.5,-1.5 0,-0.6 0.6,-1.3 2.4,-1.3 2,-0.1 3.2,-0.3 4.3,-0.6 3.4,-0.8 4.3,-3.1 4.5,-6.6 0.4,-5.2 0.4,-10.4 0.4,-12.2 v -9.4 z"
     id="path19" /><path
     class="st1"
     d="m 877.5,1861.3 c 0.4,0 0.8,0 0.8,-0.7 v -2.5 c 0,-18.9 0,-20.4 -0.3,-24.4 -0.3,-3.1 -1.3,-5.3 -5.5,-6 -1,-0.1 -2.8,-0.3 -4.3,-0.4 -1.7,0 -2.4,-1 -2.4,-1.4 0,-0.8 0.6,-1.4 2.5,-1.4 7.4,0 19.6,0.4 20.3,0.4 0.6,0 16.2,-0.4 21.7,-0.4 2.2,0 2.5,0.6 2.5,1.4 0,0.7 -0.4,1.4 -2,1.4 -2.4,0.3 -2.5,0.3 -3.9,0.6 -3.2,0.4 -4.2,2.2 -4.6,6.2 -0.4,4 -0.4,6.7 -0.4,25.6 v 21.3 c 0,11.8 0.1,20.4 0.7,25.3 0.4,4.2 1.5,6.2 5.3,6.7 1.7,0.3 4.1,0.3 5.2,0.4 1.7,0.1 2.4,0.7 2.4,1.5 0,1 -1.3,1.3 -2.8,1.3 -8.5,0 -22.4,-0.4 -24.4,-0.4 -2,0 -11.9,0.4 -18.3,0.4 -2.4,0 -2.7,-0.7 -2.7,-1.4 0,-0.6 0.7,-1.4 2.2,-1.4 1.5,-0.1 2.5,-0.1 3.6,-0.4 3.1,-0.6 3.9,-2.8 4.3,-6.9 0.6,-5 0.7,-12 0.7,-23.8 v -9.2 c 0,-0.6 -0.4,-0.8 -0.8,-0.8 h -37 c -0.4,0 -0.8,0.1 -0.8,0.8 v 12.9 c 0,11.6 0.1,15.4 0.7,20.4 0.4,3.6 2,6 5.7,6.4 1.8,0.4 3.8,0.4 4.8,0.6 1.7,0.1 2.4,0.7 2.4,1.5 0,0.6 -0.4,1.3 -2.4,1.3 -7,0 -23.5,-0.4 -24.2,-0.4 -0.6,0 -15.3,0.4 -19,0.4 -1.4,0 -2.7,-0.4 -2.7,-1.3 0,-0.9 0.4,-1.4 2.1,-1.5 1.4,-0.1 2.1,-0.1 3.6,-0.4 3.2,-0.4 4.3,-3.5 4.6,-7.3 0.6,-5.2 0.7,-13 0.7,-24.8 V 1860 c 0,-18.9 -0.1,-21.4 -0.4,-25.3 -0.3,-4.1 -1.3,-6.3 -6,-7 -1.8,-0.3 -2.2,-0.3 -3.8,-0.4 -2,-0.1 -2.1,-1.1 -2.1,-1.5 0,-0.8 1.3,-1.3 2.7,-1.3 7.4,0 18.6,0.4 21.4,0.4 5.2,0 14.8,-0.4 20.3,-0.4 2.4,0 2.7,0.7 2.7,1.5 0,0.6 -0.6,1.1 -2.2,1.3 -1.7,0.1 -2.8,0.3 -3.9,0.6 -3.6,0.7 -4.2,3.6 -4.5,6.9 -0.4,3.9 -0.4,9 -0.4,23.4 v 2.5 c 0,0.7 0.4,0.7 0.8,0.7 h 37.1 z"
     id="path21" /><path
     class="st1"
     d="m 948.1,1893.1 c -0.8,0 -1.3,0.8 -1.4,1.3 l -2.9,7.1 c -1.3,3.1 -2.1,5.9 -2.1,7.4 0,4.1 5.3,4.2 8.5,4.5 1.8,0.1 2.2,0.7 2.2,1.3 0,1 -0.7,1.5 -2.4,1.5 -6.2,0 -10.4,-0.4 -17.5,-0.4 -1.4,0 -9.5,0.4 -15.5,0.4 -2,0 -2.5,-0.6 -2.5,-1.4 0,-0.8 0.7,-1.4 2.2,-1.4 6,-0.7 9.2,-2.4 12.9,-10.6 l 33.6,-71.7 c 2.9,-6.4 4.3,-8.3 5.9,-8.3 1.4,0 2.5,1.8 4.9,6.6 3.1,6.9 24.8,52.4 33.2,70.8 4.3,9 6.6,12.2 11.3,12.9 1.1,0.1 2.1,0.3 2.8,0.3 1.5,0 2.4,0.7 2.4,1.4 0,1 -1.1,1.4 -2.5,1.4 -14.1,-0.1 -28.7,-0.3 -36.1,-0.4 -1.7,0 -2.5,-0.6 -2.5,-1.3 0,-0.8 0.8,-1.1 1.7,-1.4 1.1,-0.4 2.4,-0.6 1.7,-2.1 l -7.7,-17.2 c -0.1,-0.4 -0.7,-0.7 -1.1,-0.7 z m 24.9,-11 c 0.8,0 0.8,-0.3 0.7,-0.6 l -11.1,-25.1 c -0.4,-0.7 -0.4,-0.4 -0.7,0.1 l -10.4,24.9 c -0.1,0.4 0.1,0.6 0.4,0.6 H 973 Z"
     id="path23" /><path
     class="st1"
     d="m 1016,1836.7 c -2.1,-5.3 -3.5,-8 -6.7,-8.7 -1.4,-0.4 -2.5,-0.4 -3.6,-0.7 -1.5,-0.3 -2,-0.8 -2,-1.5 0,-0.7 0.8,-1.3 2.7,-1.3 7.8,0 16.8,0.4 18.9,0.4 3.6,0 13.2,-0.4 20,-0.4 1.7,0 2.7,0.6 2.7,1.4 0,0.8 -0.8,1.4 -2.1,1.4 -1.3,0.1 -1.5,0.1 -3.1,0.4 -1.7,0.3 -2.7,1.1 -2.7,2.7 0,1.6 1.3,5.2 3.2,10.8 1.1,3.5 10.1,29.5 14.6,40.7 l 21.7,-52.9 c 1.3,-3.1 2.2,-4.2 3.5,-4.2 1.8,0 2.5,2.1 4.3,5.7 l 24.9,51.8 c 3.9,-10.8 9.5,-28.4 13,-40 1.5,-5.5 2.7,-9 2.7,-10.6 0,-2.4 -0.8,-3.8 -7.7,-4.3 -1.4,0 -2.4,-0.6 -2.4,-1.3 0,-0.6 0.3,-1.5 2.5,-1.5 8.4,0 15.1,0.4 16.2,0.4 0.8,0 10.5,-0.3 15,-0.3 1.5,0 2.7,0.3 2.7,1.3 0,0.7 -0.4,1.3 -2.1,1.4 -1.3,0.1 -2,0.1 -3.9,0.6 -3.8,0.7 -5.9,3.5 -9.2,12.7 -5.3,14.1 -16.9,45.1 -26.7,69.3 -1.7,4.1 -3.1,8 -5.3,8 -1.8,0 -2.9,-2 -4.9,-6.2 l -24.9,-49.7 c -5.7,13.6 -15.7,35.3 -21.8,48.7 -2.1,4.3 -3.9,7.1 -5.9,7.1 -1.7,0 -2.7,-2 -5.2,-8.3 z"
     id="path25" /><path
     class="st1"
     d="m 1189.9,1866.8 c 7.3,-6.7 16.4,-15.7 27,-27.4 3.8,-4.1 6.3,-7.3 6.3,-9.2 0,-1.4 -0.3,-2.2 -3.5,-2.8 -1.3,-0.1 -2.4,-0.6 -2.4,-1.4 0,-0.7 0.7,-1.3 2.2,-1.3 5.7,0 5.9,0.3 13.4,0.3 7.7,0 17.1,-0.3 18.6,-0.3 2.2,0 2.8,0.4 2.8,1.3 0,0.7 -0.8,1.3 -2.4,1.4 -1.7,0.3 -2.7,0.4 -4.1,0.7 -6.7,1.1 -10.8,4.9 -16.8,10.2 -5.7,5.3 -19,18.9 -22.3,22.3 4.5,7 24.5,31.1 33.7,40.9 6.6,6.9 9.5,9 11.6,10.1 2.2,1.3 3.9,1.5 6.3,2 2,0.1 2.5,0.6 2.5,1.5 0,1 -1.3,1.3 -2.5,1.3 H 1248 c -16.9,0 -23,-1.7 -29.5,-8 -7.4,-7.3 -19.6,-24.1 -28.6,-37.4 v 10.1 c 0,9.2 0,20.4 0.4,25.5 0.3,3.1 1.3,6 5.7,6.6 1.7,0.3 3.8,0.3 5.3,0.4 1.5,0.1 2.1,0.8 2.1,1.4 0,0.7 -0.7,1.4 -2.4,1.4 -8.7,0 -23.2,-0.4 -23.9,-0.4 -0.3,0 -15.4,0.4 -19.5,0.4 -1.4,0 -2.5,-0.3 -2.5,-1.3 0,-1 1,-1.4 2.5,-1.5 1.1,-0.1 1.4,-0.1 2.8,-0.4 4.3,-0.6 4.9,-3.5 5.2,-7 0.6,-5 0.8,-13.2 0.8,-25.1 v -21.3 c 0,-18.9 0,-22.3 -0.4,-26.2 -0.3,-2.9 -1.1,-4.9 -4.8,-5.6 -2.1,-0.3 -3.4,-0.4 -4.6,-0.6 -1.4,-0.1 -2.5,-0.6 -2.5,-1.5 0,-0.7 0.7,-1.3 3.2,-1.3 4.9,0 19.3,0.4 19.7,0.4 0.7,0 16.7,-0.4 21,-0.4 2.4,0 2.7,0.6 2.7,1.4 0,0.8 -0.7,1.3 -2.4,1.4 -0.8,0.1 -2.1,0.3 -3.1,0.4 -4.6,0.6 -5,3.5 -5.2,7.3 -0.3,3.9 -0.3,5.7 -0.3,24.6 v 7.1 z"
     id="path27" /><path
     class="st1"
     d="m 1275.1,1859.7 c 0,-17.8 0,-20.3 -0.3,-24.2 -0.3,-3.4 -0.6,-7.1 -6.2,-7.7 l -4.1,-0.4 c -2,-0.3 -2.1,-1 -2.1,-1.5 0,-0.7 0.3,-1.3 2.7,-1.3 2.2,0 14.6,0.4 20.6,0.4 4.2,0 9.2,-0.3 20.6,-0.3 22.8,0 38.5,3.5 49.4,14.1 6.4,6.3 12,16.4 12,30.8 0,14.6 -6.9,26.5 -14,33.2 -6.3,6 -17.1,14.4 -43,14.4 -6.7,0 -20.6,-1.4 -25.6,-1.4 -5.9,0 -12.9,0.4 -18.8,0.4 -2.1,0 -2.5,-0.7 -2.5,-1.4 0,-0.7 0.8,-1.4 2.2,-1.4 1.4,0 1.8,-0.1 3.6,-0.4 6,-0.6 5.3,-9.4 5.3,-32.1 v -21.2 z m 23.7,13.7 c 0,12.9 0.1,20.4 0.3,22.8 0.3,5.6 0.8,7.3 2.2,8.8 2.4,2.7 7.8,4.1 12.3,4.1 7.8,0 14.7,-1 21.1,-7.8 6,-6 7.7,-17.6 7.7,-27.4 0,-11.1 -3.1,-20.2 -8.4,-27.7 -7.8,-11.1 -19.5,-13.4 -27.4,-13.4 -2.9,0 -5.6,0.4 -6.6,1.1 -1.1,1 -1.3,1.5 -1.3,24.2 v 15.3 z"
     id="path29" /><path
     class="st1"
     d="m 1384,1870.9 c 0,-25.3 17.4,-48 54.2,-48 31.9,0 51.9,21.4 51.9,45.2 0,28.4 -19.7,49.8 -52.8,49.8 -37.2,0 -53.3,-25.6 -53.3,-47 z m 79.3,2.8 c 0,-18.5 -6.7,-42.7 -29.4,-42.7 -10.8,0 -23,5.5 -23,33.9 0,22.4 9,44.7 29.8,44.7 7.7,-0.1 22.6,-3 22.6,-35.9 z"
     id="path31" /><path
     class="st1"
     d="m 1505.6,1836.7 c -2.1,-5.3 -3.5,-8 -6.7,-8.7 -1.4,-0.4 -2.5,-0.4 -3.6,-0.7 -1.5,-0.3 -2,-0.8 -2,-1.5 0,-0.7 0.8,-1.3 2.7,-1.3 7.8,0 16.8,0.4 18.9,0.4 3.6,0 13.2,-0.4 20,-0.4 1.7,0 2.7,0.6 2.7,1.4 0,0.8 -0.8,1.4 -2.1,1.4 -1.3,0.1 -1.5,0.1 -3.1,0.4 -1.7,0.3 -2.7,1.1 -2.7,2.7 0,1.6 1.3,5.2 3.2,10.8 1.1,3.5 10.1,29.5 14.6,40.7 l 21.7,-52.9 c 1.3,-3.1 2.2,-4.2 3.5,-4.2 1.8,0 2.5,2.1 4.3,5.7 l 24.9,51.8 c 3.9,-10.8 9.5,-28.4 13,-40 1.5,-5.5 2.7,-9 2.7,-10.6 0,-2.4 -0.8,-3.8 -7.7,-4.3 -1.4,0 -2.4,-0.6 -2.4,-1.3 0,-0.6 0.3,-1.5 2.5,-1.5 8.4,0 15.1,0.4 16.2,0.4 0.8,0 10.5,-0.3 15,-0.3 1.5,0 2.7,0.3 2.7,1.3 0,0.7 -0.4,1.3 -2.1,1.4 -1.3,0.1 -2,0.1 -3.9,0.6 -3.8,0.7 -5.9,3.5 -9.2,12.7 -5.3,14.1 -16.9,45.1 -26.7,69.3 -1.7,4.1 -3.1,8 -5.3,8 -1.8,0 -2.9,-2 -4.9,-6.2 l -24.9,-49.7 c -5.7,13.6 -15.7,35.3 -21.8,48.7 -2.1,4.3 -3.9,7.1 -5.9,7.1 -1.7,0 -2.7,-2 -5.2,-8.3 z"
     id="path33" /><path
     class="st1"
     d="m 1654.5,1829 c 0.1,-4.1 0.6,-6.2 2.4,-6.2 0.7,0 1.3,0 4.8,2.7 6,4.8 25.3,21.3 40.9,35 13.9,12.2 20.4,17.8 24.1,21 l -0.7,-42.8 c -0.3,-6.7 -1.1,-9.9 -6.6,-10.8 -1.5,-0.3 -3.1,-0.4 -5,-0.6 -1.7,-0.1 -2.2,-0.8 -2.2,-1.4 0,-1 1.1,-1.4 2.4,-1.4 4.6,0 13.3,0.4 18.9,0.4 3.1,0 9.7,-0.4 14.7,-0.4 2.1,0 2.7,0.6 2.7,1.3 0,0.6 -0.3,1.4 -2.1,1.5 -1.5,0.1 -2,0.1 -2.8,0.3 -4.2,0.6 -5.6,2.4 -6,10.1 -1.1,22.8 -1.5,47.6 -1.7,72 0,7 -0.8,8.3 -2.7,8.3 -2.1,0 -6.4,-3.1 -16.4,-11.2 -8.7,-7.3 -18.6,-15.8 -24.6,-21.3 -6.7,-6 -17.5,-15.3 -28.3,-25.1 l 1.3,39.3 c 0.3,8.4 0.6,11.9 4.3,12.9 2.4,0.6 3.8,0.7 6.3,0.8 2.1,0.3 2.7,0.7 2.7,1.4 0,1 -0.8,1.4 -3.1,1.4 -3.5,0 -7.3,-0.3 -16.1,-0.4 -3.5,0 -13.7,0.4 -17.9,0.4 -2.1,0 -2.8,-0.4 -2.8,-1.4 0,-0.7 0.6,-1.3 2.2,-1.4 1.3,-0.1 2,-0.1 3.5,-0.3 5.2,-0.7 6.3,-3.5 6.7,-14.7 0.6,-25 0.6,-53.2 1.1,-69.4 z"
     id="path35" /></g>
<path
   d="m 1099.9868,2429.5326 -3.2657,-5.6563 4.8714,-2.8125 3.2656,5.6563 z m 19.9076,48.7311 -1.4704,-4.6719 q 1.6801,-0.4649 2.5191,-0.9493 1.4885,-0.8593 1.641,-2.2826 0.1683,-1.3962 -2.113,-5.3474 l -17.4375,-30.2026 4.8714,-2.8125 17.5,30.3109 q 3.0625,5.3044 2.8854,8.1852 -0.1966,3.7219 -4.2832,6.0813 -1.9756,1.1406 -4.1128,1.6889 z"
   id="path977"
   style="font-style:normal;font-variant:normal;font-weight:normal;font-stretch:normal;font-size:64px;line-height:1.25;font-family:Arial;-inkscape-font-specification:'Arial, Normal';font-variant-ligatures:normal;font-variant-caps:normal;font-variant-numeric:normal;font-variant-east-asian:normal;fill:#0051ba;fill-opacity:1;stroke:none;stroke-opacity:1" /><path
   d="m 1148.7033,2442.0371 q -1.3782,3.8628 -3.3482,6.2632 -1.943,2.3847 -4.8117,4.0409 -4.7361,2.7344 -8.6081,1.9028 -3.8877,-0.8587 -5.9659,-4.4581 -1.2187,-2.111 -1.2715,-4.3899 -0.041,-2.3216 0.8919,-4.2677 0.9603,-1.9617 2.5963,-3.6279 1.2157,-1.2071 3.9083,-3.2308 5.4935,-4.1099 7.7185,-6.6936 -0.551,-1.0168 -0.7073,-1.2875 -1.7187,-2.9769 -3.8021,-3.398 -2.8205,-0.5727 -6.5011,1.5523 -3.437,1.9844 -4.3848,4.1554 -0.9363,2.1282 0.044,5.6396 l -5.1381,2.1004 q -1.1161,-3.4332 -0.7058,-6.1599 0.3948,-2.7538 2.6312,-5.3801 2.2208,-2.6535 5.9285,-4.7941 3.6806,-2.125 6.481,-2.5871 2.8004,-0.4621 4.6486,0.2391 1.8325,0.674 3.4218,2.4267 0.9623,1.1043 2.8373,4.3519 l 3.75,6.4952 q 3.9218,6.7928 5.2664,8.4342 1.356,1.5987 3.2293,2.7183 l -5.0879,2.9375 q -1.6328,-1.0781 -3.0212,-2.9828 z m -6.6872,-10.6451 q -2.0272,2.6138 -6.8941,6.4341 -2.754,2.1674 -3.6865,3.4274 -0.9324,1.26 -0.9996,2.706 -0.083,1.4191 0.6516,2.6911 1.125,1.9485 3.3364,2.4038 2.2385,0.4397 5.0801,-1.2009 2.8146,-1.625 4.3036,-4.1085 1.4734,-2.5106 1.2674,-5.2423 -0.1683,-2.104 -2.0277,-5.3245 z"
   id="path979"
   style="font-style:normal;font-variant:normal;font-weight:normal;font-stretch:normal;font-size:64px;line-height:1.25;font-family:Arial;-inkscape-font-specification:'Arial, Normal';font-variant-ligatures:normal;font-variant-caps:normal;font-variant-numeric:normal;font-variant-east-asian:normal;fill:#0051ba;fill-opacity:1;stroke:none;stroke-opacity:1" /><path
   d="m 1169.0216,2449.7919 -3.1819,-4.2613 q 1.8467,-0.4888 3.0375,-1.1763 1.6238,-0.9375 2.2856,-2.0413 0.6617,-1.1037 0.7217,-2.4374 0.038,-0.9963 -0.6053,-4.4859 -0.099,-0.484 -0.2545,-1.4407 l -27.5315,-22.4985 5.2503,-3.0313 15.5904,13.1909 q 2.9918,2.4945 5.9276,5.4544 -1.0985,-3.8402 -1.7785,-7.7055 l -3.5286,-20.2991 4.8714,-2.8125 5.9414,35.5408 q 0.9753,5.7518 1.0323,8.1004 0.092,3.1586 -0.9457,5.237 -1.0217,2.1054 -3.3491,3.4492 -1.4073,0.8125 -3.4831,1.2171 z"
   id="path981"
   style="font-style:normal;font-variant:normal;font-weight:normal;font-stretch:normal;font-size:64px;line-height:1.25;font-family:Arial;-inkscape-font-specification:'Arial, Normal';font-variant-ligatures:normal;font-variant-caps:normal;font-variant-numeric:normal;font-variant-east-asian:normal;fill:#0051ba;fill-opacity:1;stroke:none;stroke-opacity:1" /><path
   d="m 1190.5602,2422.598 -22.9062,-39.6748 4.8714,-2.8125 8.2187,14.2353 q 1.1288,-5.92 6.3249,-8.92 3.1935,-1.8438 6.2824,-1.9311 3.0733,-0.1145 5.3558,1.5266 2.3097,1.6254 4.7472,5.8473 l 10.5156,18.2135 -4.8714,2.8125 -10.5156,-18.2135 q -2.1094,-3.6536 -4.6592,-4.3825 -2.5385,-0.7717 -5.4342,0.9002 -2.1651,1.25 -3.4303,3.496 -1.2539,2.2033 -0.9564,4.5936 0.2975,2.3902 2.2506,5.7731 l 9.0781,15.7238 z"
   id="path983"
   style="font-style:normal;font-variant:normal;font-weight:normal;font-stretch:normal;font-size:64px;line-height:1.25;font-family:Arial;-inkscape-font-specification:'Arial, Normal';font-variant-ligatures:normal;font-variant-caps:normal;font-variant-numeric:normal;font-variant-east-asian:normal;fill:#0051ba;fill-opacity:1;stroke:none;stroke-opacity:1" /><path
   d="m 1238.1204,2390.4121 q -1.3782,3.8628 -3.3482,6.2632 -1.943,2.3847 -4.8117,4.0409 -4.7361,2.7344 -8.6081,1.9028 -3.8877,-0.8587 -5.9659,-4.4581 -1.2187,-2.111 -1.2715,-4.3899 -0.041,-2.3216 0.8919,-4.2677 0.9603,-1.9617 2.5964,-3.6279 1.2156,-1.2071 3.9082,-3.2308 5.4935,-4.1099 7.7186,-6.6936 -0.5511,-1.0168 -0.7074,-1.2875 -1.7187,-2.9769 -3.8021,-3.398 -2.8205,-0.5727 -6.5011,1.5523 -3.437,1.9844 -4.3848,4.1554 -0.9363,2.1282 0.045,5.6396 l -5.1382,2.1004 q -1.1161,-3.4332 -0.7057,-6.1599 0.3947,-2.7538 2.6311,-5.3801 2.2209,-2.6535 5.9285,-4.7941 3.6806,-2.125 6.481,-2.5871 2.8004,-0.4621 4.6486,0.2391 1.8325,0.674 3.4218,2.4267 0.9623,1.1043 2.8373,4.3519 l 3.75,6.4952 q 3.9218,6.7928 5.2664,8.4342 1.356,1.5987 3.2293,2.7183 l -5.0879,2.9375 q -1.6328,-1.0781 -3.0211,-2.9828 z m -6.6872,-10.6451 q -2.0272,2.6138 -6.8941,6.4341 -2.754,2.1674 -3.6864,3.4274 -0.9324,1.26 -0.9997,2.706 -0.083,1.4191 0.6516,2.6911 1.125,1.9485 3.3364,2.4038 2.2385,0.4397 5.0801,-1.2009 2.8146,-1.625 4.3036,-4.1085 1.4734,-2.5106 1.2674,-5.2423 -0.1683,-2.104 -2.0276,-5.3245 z"
   id="path985"
   style="font-style:normal;font-variant:normal;font-weight:normal;font-stretch:normal;font-size:64px;line-height:1.25;font-family:Arial;-inkscape-font-specification:'Arial, Normal';font-variant-ligatures:normal;font-variant-caps:normal;font-variant-numeric:normal;font-variant-east-asian:normal;fill:#0051ba;fill-opacity:1;stroke:none;stroke-opacity:1" /><path
   d="m 1257.569,2383.9105 -25.3894,-23.6631 5.0338,-2.9063 14.1519,13.9492 5.2674,5.1861 q -0.1573,-0.5226 -1.9334,-6.7863 l -5.145,-19.474 5.0067,-2.8906 13.9281,14.1866 4.6062,4.6658 -1.5523,-6.5012 -4.6682,-19.4606 4.7361,-2.7344 7.6087,33.9288 -5.0608,2.9218 -14.5112,-14.5716 -3.9377,-4.2578 6.947,25.4701 z"
   id="path987"
   style="font-style:normal;font-variant:normal;font-weight:normal;font-stretch:normal;font-size:64px;line-height:1.25;font-family:Arial;-inkscape-font-specification:'Arial, Normal';font-variant-ligatures:normal;font-variant-caps:normal;font-variant-numeric:normal;font-variant-east-asian:normal;fill:#0051ba;fill-opacity:1;stroke:none;stroke-opacity:1" /><path
   d="m 1292.3453,2363.8323 -22.9063,-39.6748 4.8714,-2.8125 13.0625,22.625 4.779,-18.3476 6.3057,-3.6407 -4.8314,17.0067 22.5348,11.0939 -6.0081,3.4688 -17.9835,-9.211 -1.5308,5.2861 6.5781,11.3936 z"
   id="path989"
   style="font-style:normal;font-variant:normal;font-weight:normal;font-stretch:normal;font-size:64px;line-height:1.25;font-family:Arial;-inkscape-font-specification:'Arial, Normal';font-variant-ligatures:normal;font-variant-caps:normal;font-variant-numeric:normal;font-variant-east-asian:normal;fill:#0051ba;fill-opacity:1;stroke:none;stroke-opacity:1" /><path
   d="m 1338.6777,2337.0823 -2.0938,-3.6264 q -0.2646,5.8541 -5.569,8.9166 -3.4371,1.9844 -7.4266,1.7618 -3.9625,-0.2382 -7.5123,-2.6992 -3.5384,-2.5037 -6.0853,-6.9151 -2.4844,-4.303 -3.0657,-8.6223 -0.5969,-4.3464 1.1937,-7.8699 1.7906,-3.5237 5.3359,-5.5706 2.5981,-1.5 5.2685,-1.5622 2.6547,-0.089 4.9423,0.9353 l -8.2188,-14.2353 4.8444,-2.7968 22.9062,39.6748 z m -23.6803,-5.4529 q 3.1875,5.5209 7.0931,6.9106 3.9055,1.3896 7.0719,-0.4385 3.1935,-1.8438 3.9127,-5.7231 0.7306,-3.922 -2.3631,-9.2805 -3.4063,-5.8998 -7.2733,-7.3477 -3.8671,-1.448 -7.1959,0.4739 -3.2476,1.875 -3.9084,5.7928 -0.6339,3.9022 2.663,9.6125 z"
   id="path991"
   style="font-style:normal;font-variant:normal;font-weight:normal;font-stretch:normal;font-size:64px;line-height:1.25;font-family:Arial;-inkscape-font-specification:'Arial, Normal';font-variant-ligatures:normal;font-variant-caps:normal;font-variant-numeric:normal;font-variant-east-asian:normal;fill:#0051ba;fill-opacity:1;stroke:none;stroke-opacity:1" /><path
   d="m 1340.7731,2316.7118 q -4.6094,-7.9837 -2.3898,-14.3892 1.864,-5.3341 7.1954,-8.4123 5.9269,-3.4218 11.9387,-1.6966 5.9962,1.6982 9.9493,8.5452 3.2031,5.548 3.369,9.7102 0.1772,4.1195 -2.0006,7.7224 -2.1508,3.5872 -5.9126,5.7591 -6.0351,3.4844 -12.0042,1.7706 -5.9421,-1.7294 -10.1452,-9.0094 z m 5.0067,-2.8907 q 3.1875,5.521 7.1899,6.8908 3.9867,1.3427 7.6403,-0.7667 3.6265,-2.0937 4.4413,-6.2448 0.8149,-4.1511 -2.4507,-9.8073 -3.0781,-5.3315 -7.0919,-6.6586 -4.0024,-1.3698 -7.6018,0.7083 -3.6536,2.1094 -4.4841,6.2334 -0.8305,4.124 2.357,9.6449 z"
   id="path993"
   style="font-style:normal;font-variant:normal;font-weight:normal;font-stretch:normal;font-size:64px;line-height:1.25;font-family:Arial;-inkscape-font-specification:'Arial, Normal';font-variant-ligatures:normal;font-variant-caps:normal;font-variant-numeric:normal;font-variant-east-asian:normal;fill:#0051ba;fill-opacity:1;stroke:none;stroke-opacity:1" /><path
   d="m 1387.0398,2309.1605 -25.3894,-23.6631 5.0338,-2.9063 14.1519,13.9492 5.2674,5.1861 q -0.1573,-0.5226 -1.9334,-6.7863 l -5.145,-19.474 5.0067,-2.8906 13.928,14.1866 4.6063,4.6658 -1.5523,-6.5012 -4.6682,-19.4606 4.7361,-2.7344 7.6087,33.9288 -5.0608,2.9218 -14.5112,-14.5716 -3.9377,-4.2578 6.947,25.4701 z"
   id="path995"
   style="font-style:normal;font-variant:normal;font-weight:normal;font-stretch:normal;font-size:64px;line-height:1.25;font-family:Arial;-inkscape-font-specification:'Arial, Normal';font-variant-ligatures:normal;font-variant-caps:normal;font-variant-numeric:normal;font-variant-east-asian:normal;fill:#0051ba;fill-opacity:1;stroke:none;stroke-opacity:1" /><path
   d="m 1421.789,2289.098 -16.5937,-28.7413 4.3842,-2.5312 2.3594,4.0866 q 0.432,-6.5643 6.413,-10.0174 2.5981,-1.5 5.3101,-1.8027 2.7233,-0.3455 4.6809,0.5451 1.9575,0.8905 3.5936,2.7243 1.0519,1.1969 3.0051,4.5799 l 10.2031,17.6723 -4.8714,2.8125 -10.0938,-17.4829 q -1.7187,-2.977 -3.1308,-4.1103 -1.4277,-1.1603 -3.3891,-1.1825 -1.95,-0.065 -3.8986,1.0599 -3.1123,1.7969 -4.2449,5.0851 -1.1057,3.2724 2.0818,8.7933 l 9.0625,15.6968 z"
   id="path997"
   style="font-style:normal;font-variant:normal;font-weight:normal;font-stretch:normal;font-size:64px;line-height:1.25;font-family:Arial;-inkscape-font-specification:'Arial, Normal';font-variant-ligatures:normal;font-variant-caps:normal;font-variant-numeric:normal;font-variant-east-asian:normal;fill:#0051ba;fill-opacity:1;stroke:none;stroke-opacity:1" /><path
   d="m 1454.0214,2270.4886 -3.2031,-5.5479 5.548,-3.2032 3.2031,5.548 z"
   id="path999"
   style="font-style:normal;font-variant:normal;font-weight:normal;font-stretch:normal;font-size:64px;line-height:1.25;font-family:Arial;-inkscape-font-specification:'Arial, Normal';font-variant-ligatures:normal;font-variant-caps:normal;font-variant-numeric:normal;font-variant-east-asian:normal;fill:#0051ba;fill-opacity:1;stroke:none;stroke-opacity:1" /><path
   d="m 1473.3175,2259.348 -25.3893,-23.6631 5.0338,-2.9063 14.1518,13.9492 5.2675,5.1861 q -0.1574,-0.5226 -1.9334,-6.7863 l -5.145,-19.474 5.0067,-2.8906 13.928,14.1866 4.6063,4.6658 -1.5523,-6.5012 -4.6682,-19.4606 4.736,-2.7344 7.6088,33.9288 -5.0609,2.9218 -14.5112,-14.5716 -3.9377,-4.2578 6.947,25.4701 z"
   id="path1001"
   style="font-style:normal;font-variant:normal;font-weight:normal;font-stretch:normal;font-size:64px;line-height:1.25;font-family:Arial;-inkscape-font-specification:'Arial, Normal';font-variant-ligatures:normal;font-variant-caps:normal;font-variant-numeric:normal;font-variant-east-asian:normal;fill:#0051ba;fill-opacity:1;stroke:none;stroke-opacity:1" /><path
   d="m 1488.3991,2205.2826 -3.2656,-5.6563 4.8714,-2.8125 3.2656,5.6563 z m 19.9077,48.7311 -1.4704,-4.6719 q 1.6801,-0.4649 2.5191,-0.9493 1.4885,-0.8593 1.641,-2.2826 0.1682,-1.3962 -2.113,-5.3474 l -17.4375,-30.2026 4.8714,-2.8125 17.5,30.3109 q 3.0625,5.3044 2.8854,8.1852 -0.1966,3.7219 -4.2832,6.0813 -1.9756,1.1406 -4.1128,1.6889 z"
   id="path1003"
   style="font-style:normal;font-variant:normal;font-weight:normal;font-stretch:normal;font-size:64px;line-height:1.25;font-family:Arial;-inkscape-font-specification:'Arial, Normal';font-variant-ligatures:normal;font-variant-caps:normal;font-variant-numeric:normal;font-variant-east-asian:normal;fill:#0051ba;fill-opacity:1;stroke:none;stroke-opacity:1" /><path
   d="m 1537.1157,2217.7871 q -1.3782,3.8628 -3.3482,6.2632 -1.943,2.3847 -4.8117,4.0409 -4.7361,2.7344 -8.6081,1.9028 -3.8877,-0.8587 -5.9659,-4.4581 -1.2187,-2.111 -1.2715,-4.3899 -0.041,-2.3216 0.8919,-4.2677 0.9603,-1.9617 2.5963,-3.6279 1.2156,-1.2071 3.9083,-3.2308 5.4935,-4.1099 7.7185,-6.6936 -0.551,-1.0168 -0.7073,-1.2875 -1.7187,-2.9769 -3.8021,-3.398 -2.8205,-0.5727 -6.5011,1.5523 -3.437,1.9844 -4.3848,4.1554 -0.9363,2.1282 0.044,5.6396 l -5.1381,2.1004 q -1.1161,-3.4332 -0.7058,-6.1599 0.3948,-2.7538 2.6312,-5.3801 2.2208,-2.6535 5.9285,-4.7941 3.6806,-2.125 6.481,-2.5871 2.8004,-0.4621 4.6485,0.2391 1.8326,0.674 3.4218,2.4267 0.9624,1.1043 2.8374,4.3519 l 3.75,6.4952 q 3.9218,6.7928 5.2664,8.4342 1.356,1.5987 3.2293,2.7183 l -5.0879,2.9375 q -1.6328,-1.0781 -3.0212,-2.9828 z m -6.6872,-10.6451 q -2.0272,2.6138 -6.8941,6.4341 -2.754,2.1674 -3.6865,3.4274 -0.9324,1.26 -0.9996,2.706 -0.083,1.4191 0.6516,2.6911 1.125,1.9485 3.3364,2.4038 2.2385,0.4397 5.0801,-1.2009 2.8146,-1.625 4.3036,-4.1085 1.4733,-2.5106 1.2674,-5.2423 -0.1683,-2.104 -2.0277,-5.3245 z"
   id="path1005"
   style="font-style:normal;font-variant:normal;font-weight:normal;font-stretch:normal;font-size:64px;line-height:1.25;font-family:Arial;-inkscape-font-specification:'Arial, Normal';font-variant-ligatures:normal;font-variant-caps:normal;font-variant-numeric:normal;font-variant-east-asian:normal;fill:#0051ba;fill-opacity:1;stroke:none;stroke-opacity:1" /><path
   d="m 1551.2869,2214.3323 -22.9063,-39.6748 4.8714,-2.8125 13.0625,22.625 4.779,-18.3476 6.3057,-3.6407 -4.8314,17.0067 22.5348,11.0939 -6.0081,3.4688 -17.9835,-9.211 -1.5308,5.2861 6.5781,11.3936 z"
   id="path1007"
   style="font-style:normal;font-variant:normal;font-weight:normal;font-stretch:normal;font-size:64px;line-height:1.25;font-family:Arial;-inkscape-font-specification:'Arial, Normal';font-variant-ligatures:normal;font-variant-caps:normal;font-variant-numeric:normal;font-variant-east-asian:normal;fill:#0051ba;fill-opacity:1;stroke:none;stroke-opacity:1" /><path
   d="m 1593.3039,2177.7329 5.3932,-2.2837 q 1.356,5.0988 -0.4582,9.3938 -1.8143,4.2951 -6.821,7.1857 -6.3058,3.6407 -12.2478,1.9113 -5.9306,-1.7721 -9.9775,-8.7816 -4.1875,-7.2529 -2.7653,-13.4146 1.4223,-6.1616 7.3762,-9.5991 5.7645,-3.3281 11.6837,-1.5133 5.9191,1.8148 10.0285,8.9325 0.25,0.433 0.723,1.3146 l -21.4341,12.375 q 3.0049,4.5798 6.8667,5.7061 3.8618,1.1262 7.4612,-0.9519 2.6792,-1.5469 3.7612,-4.0479 1.0819,-2.501 0.4102,-6.2269 z m -20.5413,1.359 16.0486,-9.2656 q -2.4185,-3.439 -4.981,-4.3773 -3.9524,-1.4708 -7.6601,0.6698 -3.3558,1.9375 -4.3593,5.512 -0.9765,3.5587 0.9518,7.4611 z"
   id="path1009"
   style="font-style:normal;font-variant:normal;font-weight:normal;font-stretch:normal;font-size:64px;line-height:1.25;font-family:Arial;-inkscape-font-specification:'Arial, Normal';font-variant-ligatures:normal;font-variant-caps:normal;font-variant-numeric:normal;font-variant-east-asian:normal;fill:#0051ba;fill-opacity:1;stroke:none;stroke-opacity:1" /><path
   d="m 1617.9451,2170.0377 3.188,3.8968 q -1.8068,1.6205 -3.4306,2.558 -2.6522,1.5312 -4.598,1.5361 -1.9458,0 -3.3225,-1.0047 -1.3922,-1.0365 -3.9235,-5.4207 l -9.5469,-16.5357 -3.5723,2.0625 -2.1875,-3.7889 3.5723,-2.0625 -4.1093,-7.1176 3.1568,-5.7197 5.7969,10.0404 4.8984,-2.8281 2.1875,3.7889 -4.8984,2.8281 9.7031,16.8064 q 1.2031,2.0838 1.7904,2.5385 0.6144,0.4392 1.3859,0.4629 0.7985,0.01 1.881,-0.6169 0.8119,-0.4688 2.0287,-1.4238 z"
   id="path1011"
   style="font-style:normal;font-variant:normal;font-weight:normal;font-stretch:normal;font-size:64px;line-height:1.25;font-family:Arial;-inkscape-font-specification:'Arial, Normal';font-variant-ligatures:normal;font-variant-caps:normal;font-variant-numeric:normal;font-variant-east-asian:normal;fill:#0051ba;fill-opacity:1;stroke:none;stroke-opacity:1" /><path
   d="m 1625.1967,2171.6605 -22.9062,-39.6748 4.8714,-2.8125 8.2187,14.2353 q 1.1288,-5.92 6.3249,-8.92 3.1935,-1.8438 6.2824,-1.9311 3.0732,-0.1145 5.3558,1.5266 2.3097,1.6254 4.7472,5.8473 l 10.5156,18.2135 -4.8714,2.8125 -10.5156,-18.2135 q -2.1094,-3.6536 -4.6592,-4.3825 -2.5385,-0.7717 -5.4342,0.9002 -2.1651,1.25 -3.4303,3.496 -1.2539,2.2033 -0.9564,4.5936 0.2975,2.3902 2.2506,5.7731 l 9.0781,15.7238 z"
   id="path1013"
   style="font-style:normal;font-variant:normal;font-weight:normal;font-stretch:normal;font-size:64px;line-height:1.25;font-family:Arial;-inkscape-font-specification:'Arial, Normal';font-variant-ligatures:normal;font-variant-caps:normal;font-variant-numeric:normal;font-variant-east-asian:normal;fill:#0051ba;fill-opacity:1;stroke:none;stroke-opacity:1" /><path
   d="m 1645.9388,2140.5243 q -4.6094,-7.9837 -2.3898,-14.3892 1.864,-5.3341 7.1954,-8.4123 5.9269,-3.4218 11.9387,-1.6966 5.9962,1.6982 9.9493,8.5452 3.2031,5.548 3.369,9.7102 0.1772,4.1195 -2.0006,7.7224 -2.1508,3.5872 -5.9126,5.7591 -6.0351,3.4844 -12.0042,1.7706 -5.9421,-1.7294 -10.1452,-9.0094 z m 5.0067,-2.8907 q 3.1875,5.521 7.1899,6.8908 3.9867,1.3427 7.6403,-0.7667 3.6265,-2.0937 4.4413,-6.2448 0.8149,-4.1511 -2.4507,-9.8073 -3.0781,-5.3315 -7.0919,-6.6586 -4.0024,-1.3698 -7.6018,0.7083 -3.6536,2.1094 -4.4841,6.2334 -0.8305,4.124 2.357,9.6449 z"
   id="path1015"
   style="font-style:normal;font-variant:normal;font-weight:normal;font-stretch:normal;font-size:64px;line-height:1.25;font-family:Arial;-inkscape-font-specification:'Arial, Normal';font-variant-ligatures:normal;font-variant-caps:normal;font-variant-numeric:normal;font-variant-east-asian:normal;fill:#0051ba;fill-opacity:1;stroke:none;stroke-opacity:1" /><path
   d="m 1686.9011,2136.0355 -16.5938,-28.7413 4.3572,-2.5156 2.3281,4.0325 q 0.1345,-2.8922 1.6463,-5.4611 1.4963,-2.5959 4.365,-4.2522 3.1934,-1.8437 5.9888,-1.6894 2.8225,0.1385 5.0364,2.0357 0.5037,-7.0025 5.9705,-10.1588 4.276,-2.4687 7.9514,-1.4153 3.6598,1.0265 6.5035,5.952 l 11.3906,19.7291 -4.8443,2.7969 -10.4531,-18.1053 q -1.6875,-2.9229 -2.909,-3.9136 -1.2101,-1.0335 -2.9081,-1.0995 -1.6981,-0.066 -3.376,0.9026 -3.0311,1.75 -3.8619,4.9361 -0.8464,3.1589 1.7161,7.5973 l 9.6406,16.698 -4.8714,2.8125 -10.7813,-18.6737 q -1.875,-3.2476 -4.0032,-4.1839 -2.1283,-0.9363 -4.8347,0.6262 -2.0568,1.1875 -3.1909,3.2857 -1.107,2.0825 -0.6887,4.6196 0.4183,2.5369 2.6839,6.4611 l 8.6094,14.9119 z"
   id="path1017"
   style="font-style:normal;font-variant:normal;font-weight:normal;font-stretch:normal;font-size:64px;line-height:1.25;font-family:Arial;-inkscape-font-specification:'Arial, Normal';font-variant-ligatures:normal;font-variant-caps:normal;font-variant-numeric:normal;font-variant-east-asian:normal;fill:#0051ba;fill-opacity:1;stroke:none;stroke-opacity:1" /><path
   d="m 1739.4846,2120.3628 -22.9532,-39.7561 4.4384,-2.5625 2.1562,3.7348 q 0.3041,-3.0984 1.6547,-5.3215 1.335,-2.2503 4.1496,-3.8753 3.6806,-2.125 7.5889,-1.8555 3.9084,0.2694 7.3427,2.9054 3.4188,2.6089 5.7938,6.7225 2.5468,4.4113 2.997,8.8785 0.4616,4.4245 -1.4758,8.0689 -1.9259,3.6017 -5.2547,5.5236 -2.4357,1.4063 -4.978,1.5028 -2.5152,0.081 -4.6664,-0.7699 l 8.0782,13.9918 z m -10.1512,-27.7699 q 3.2031,5.5479 6.9806,6.9033 3.7775,1.3553 6.971,-0.4885 3.2476,-1.875 3.9698,-5.9364 0.7337,-4.1042 -2.5944,-9.8688 -3.1719,-5.4938 -7.0233,-6.9147 -3.8244,-1.4365 -6.9637,0.376 -3.1123,1.7969 -3.8334,6.1104 -0.7098,4.2707 2.4934,9.8187 z"
   id="path1019"
   style="font-style:normal;font-variant:normal;font-weight:normal;font-stretch:normal;font-size:64px;line-height:1.25;font-family:Arial;-inkscape-font-specification:'Arial, Normal';font-variant-ligatures:normal;font-variant-caps:normal;font-variant-numeric:normal;font-variant-east-asian:normal;fill:#0051ba;fill-opacity:1;stroke:none;stroke-opacity:1" /><path
   d="m 1757.0757,2084.0814 4.3797,-3.539 q 2.0778,2.6614 4.8088,3.1415 2.7579,0.4645 6.0867,-1.4574 3.3559,-1.9375 4.1984,-4.2282 0.827,-2.3177 -0.2355,-4.158 -0.9532,-1.6509 -2.9344,-1.7699 -1.3763,-0.071 -5.9328,1.2241 -6.1398,1.7406 -8.7861,1.9694 -2.6349,0.1862 -4.7175,-0.9208 -2.0711,-1.1498 -3.2898,-3.2608 -1.1094,-1.9214 -1.1809,-4.0452 -0.06,-2.1665 0.8305,-4.1241 0.6523,-1.4951 2.2727,-3.1885 1.6319,-1.736 3.8782,-3.0329 3.3829,-1.9531 6.4893,-2.4476 3.1335,-0.5101 5.3201,0.4647 2.171,0.9478 4.2405,3.4696 l -4.3882,3.3996 q -1.606,-2.0317 -3.8944,-2.3704 -2.2614,-0.3543 -5.103,1.2863 -3.3559,1.9375 -4.1496,3.8753 -0.7937,1.9377 0.066,3.4262 0.5468,0.9472 1.5797,1.3612 1.0486,0.4411 2.6174,0.2209 0.8869,-0.1512 5.0218,-1.2395 5.966,-1.6041 8.5113,-1.8829 2.5568,-0.3215 4.6893,0.6846 2.1325,1.006 3.57,3.4959 1.4062,2.4357 1.2219,5.4288 -0.1729,2.9506 -2.1647,5.6883 -2.0074,2.7105 -5.3903,4.6636 -5.6021,3.2344 -9.8958,2.6101 -4.2665,-0.64 -7.719,-4.7449 z"
   id="path1021"
   style="font-style:normal;font-variant:normal;font-weight:normal;font-stretch:normal;font-size:64px;line-height:1.25;font-family:Arial;-inkscape-font-specification:'Arial, Normal';font-variant-ligatures:normal;font-variant-caps:normal;font-variant-numeric:normal;font-variant-east-asian:normal;fill:#0051ba;fill-opacity:1;stroke:none;stroke-opacity:1" /><path
   d="m 1781.58,2062.2118 q -4.6094,-7.9837 -2.3897,-14.3892 1.8639,-5.3341 7.1954,-8.4123 5.9268,-3.4218 11.9386,-1.6966 5.9962,1.6982 9.9493,8.5452 3.2032,5.548 3.369,9.7102 0.1772,4.1195 -2.0006,7.7224 -2.1508,3.5872 -5.9126,5.7591 -6.0351,3.4844 -12.0042,1.7706 -5.9421,-1.7294 -10.1452,-9.0094 z m 5.0068,-2.8907 q 3.1875,5.521 7.1898,6.8908 3.9868,1.3427 7.6403,-0.7667 3.6265,-2.0937 4.4414,-6.2448 0.8149,-4.1511 -2.4507,-9.8073 -3.0782,-5.3315 -7.092,-6.6586 -4.0024,-1.3698 -7.6018,0.7083 -3.6535,2.1094 -4.4841,6.2334 -0.8304,4.124 2.3571,9.6449 z"
   id="path1023"
   style="font-style:normal;font-variant:normal;font-weight:normal;font-stretch:normal;font-size:64px;line-height:1.25;font-family:Arial;-inkscape-font-specification:'Arial, Normal';font-variant-ligatures:normal;font-variant-caps:normal;font-variant-numeric:normal;font-variant-east-asian:normal;fill:#0051ba;fill-opacity:1;stroke:none;stroke-opacity:1" /><path
   d="m 1822.5423,2057.723 -16.5938,-28.7413 4.3843,-2.5312 2.3594,4.0866 q 0.432,-6.5643 6.413,-10.0174 2.5981,-1.5 5.31,-1.8027 2.7234,-0.3455 4.6809,0.5451 1.9576,0.8905 3.5937,2.7243 1.0519,1.1969 3.005,4.5799 l 10.2031,17.6723 -4.8714,2.8125 -10.0937,-17.4829 q -1.7188,-2.977 -3.1309,-4.1103 -1.4276,-1.1603 -3.3891,-1.1825 -1.95,-0.065 -3.8985,1.0599 -3.1123,1.7969 -4.245,5.0851 -1.1056,3.2724 2.0819,8.7933 l 9.0625,15.6968 z"
   id="path1025"
   style="font-style:normal;font-variant:normal;font-weight:normal;font-stretch:normal;font-size:64px;line-height:1.25;font-family:Arial;-inkscape-font-specification:'Arial, Normal';font-variant-ligatures:normal;font-variant-caps:normal;font-variant-numeric:normal;font-variant-east-asian:normal;fill:#0051ba;fill-opacity:1;stroke:none;stroke-opacity:1" /><path
   d="m 1854.7747,2039.1136 -3.2031,-5.5479 5.5479,-3.2032 3.2031,5.548 z"
   id="path1027"
   style="font-style:normal;font-variant:normal;font-weight:normal;font-stretch:normal;font-size:64px;line-height:1.25;font-family:Arial;-inkscape-font-specification:'Arial, Normal';font-variant-ligatures:normal;font-variant-caps:normal;font-variant-numeric:normal;font-variant-east-asian:normal;fill:#0051ba;fill-opacity:1;stroke:none;stroke-opacity:1" /><path
   d="m 1881.4432,2009.6798 5.1495,-2.1433 q 2.0746,5.4058 0.452,10.0954 -1.6112,4.6468 -6.3202,7.3656 -5.8998,3.4062 -11.718,1.6414 -5.8067,-1.8075 -9.9629,-9.0064 -2.6875,-4.6549 -3.1606,-9.0367 -0.473,-4.3817 1.6664,-7.9263 2.1507,-3.5873 5.8584,-5.7279 4.6819,-2.7031 9.0339,-2.0403 4.3364,0.6358 7.6909,4.5086 l -4.3141,3.4651 q -2.3485,-2.5052 -4.9243,-2.9666 -2.5488,-0.4771 -4.9845,0.9292 -3.6806,2.125 -4.4497,6.1053 -0.7847,3.9533 2.5121,9.6636 3.3438,5.7916 7.0786,7.1355 3.7348,1.3439 7.3072,-0.7186 2.8687,-1.6563 3.7746,-4.5247 0.9058,-2.8686 -0.6893,-6.8189 z"
   id="path1029"
   style="font-style:normal;font-variant:normal;font-weight:normal;font-stretch:normal;font-size:64px;line-height:1.25;font-family:Arial;-inkscape-font-specification:'Arial, Normal';font-variant-ligatures:normal;font-variant-caps:normal;font-variant-numeric:normal;font-variant-east-asian:normal;fill:#0051ba;fill-opacity:1;stroke:none;stroke-opacity:1" /><path
   d="m 1886.3691,2001.7118 q -4.6094,-7.9837 -2.3898,-14.3892 1.864,-5.3341 7.1954,-8.4123 5.9269,-3.4218 11.9387,-1.6966 5.9962,1.6982 9.9493,8.5452 3.2031,5.548 3.369,9.7102 0.1772,4.1195 -2.0006,7.7224 -2.1508,3.5872 -5.9126,5.7591 -6.0351,3.4844 -12.0042,1.7706 -5.9421,-1.7294 -10.1452,-9.0094 z m 5.0067,-2.8907 q 3.1875,5.521 7.1899,6.8908 3.9867,1.3427 7.6403,-0.7667 3.6265,-2.0937 4.4413,-6.2448 0.8149,-4.1511 -2.4507,-9.8073 -3.0781,-5.3315 -7.0919,-6.6586 -4.0024,-1.3698 -7.6018,0.7083 -3.6536,2.1094 -4.4841,6.2334 -0.8305,4.124 2.357,9.6449 z"
   id="path1031"
   style="font-style:normal;font-variant:normal;font-weight:normal;font-stretch:normal;font-size:64px;line-height:1.25;font-family:Arial;-inkscape-font-specification:'Arial, Normal';font-variant-ligatures:normal;font-variant-caps:normal;font-variant-numeric:normal;font-variant-east-asian:normal;fill:#0051ba;fill-opacity:1;stroke:none;stroke-opacity:1" /><path
   d="m 1927.3314,1997.223 -16.5938,-28.7413 4.3572,-2.5156 2.3282,4.0325 q 0.1344,-2.8922 1.6462,-5.4611 1.4963,-2.5959 4.365,-4.2522 3.1935,-1.8437 5.9888,-1.6894 2.8225,0.1385 5.0364,2.0357 0.5037,-7.0025 5.9705,-10.1588 4.276,-2.4687 7.9514,-1.4153 3.6598,1.0265 6.5035,5.952 l 11.3906,19.7291 -4.8443,2.7969 -10.4531,-18.1053 q -1.6875,-2.9229 -2.909,-3.9136 -1.2101,-1.0335 -2.9081,-1.0995 -1.6981,-0.066 -3.376,0.9026 -3.0311,1.75 -3.8619,4.9361 -0.8464,3.1589 1.7161,7.5973 l 9.6406,16.698 -4.8714,2.8125 -10.7813,-18.6737 q -1.875,-3.2476 -4.0032,-4.1839 -2.1283,-0.9363 -4.8347,0.6262 -2.0568,1.1875 -3.1909,3.2857 -1.107,2.0825 -0.6887,4.6196 0.4183,2.5369 2.6839,6.4611 l 8.6094,14.9119 z"
   id="path1033"
   style="font-style:normal;font-variant:normal;font-weight:normal;font-stretch:normal;font-size:64px;line-height:1.25;font-family:Arial;-inkscape-font-specification:'Arial, Normal';font-variant-ligatures:normal;font-variant-caps:normal;font-variant-numeric:normal;font-variant-east-asian:normal;fill:#0051ba;fill-opacity:1;stroke:none;stroke-opacity:1" /></g>
</svg>
