<?xml version="1.0" encoding="utf-8"?>
<!-- Generator: Adobe Illustrator 24.2.3, SVG Export Plug-In . SVG Version: 6.00 Build 0)  -->
<svg version="1.1" id="Layer_1" xmlns="http://www.w3.org/2000/svg" xmlns:xlink="http://www.w3.org/1999/xlink" x="0px" y="0px"
	 viewBox="0 0 735 852" style="enable-background:new 0 0 735 852;" xml:space="preserve">
<style type="text/css">
	.st0{fill:#53BFD3;}
	.st1{opacity:0.25;fill:url(#SVGID_1_);enable-background:new    ;}
	.st2{fill:#2E0E00;}
	.st3{fill:#E6B35A;}
	.st4{fill:#331300;}
	.st5{fill:#331300;stroke:#331300;stroke-width:3;stroke-miterlimit:10;}
	.st6{fill:#4E2400;}
	.st7{fill:#EEE6D2;}
	.st8{fill:#CA015F;}
	.st9{fill:#FAFAFA;}
	.st10{fill:#331300;stroke:#331300;stroke-width:3;stroke-linecap:round;stroke-linejoin:round;stroke-miterlimit:10;}
</style>
<path class="st0" d="M705.6,231l-50.9-29.4c-49.2,81.8-159.6,138.8-287.8,138.8c-128,0-238.1-56.8-287.5-138.3l-50,28.9v390.5
	l338.1,195.2l338.1-195.2V231z"/>
<path class="st0" d="M366.9,340.4c128.2,0,238.6-57,287.8-138.8L367.5,35.8l0,0L79.4,202.2C128.8,283.7,238.9,340.4,366.9,340.4z"/>
<linearGradient id="SVGID_1_" gradientUnits="userSpaceOnUse" x1="367.045" y1="980.83" x2="367.045" y2="511.56" gradientTransform="matrix(1 0 0 -1 0 852)">
	<stop  offset="0" style="stop-color:#FFFFFF;stop-opacity:0.83"/>
	<stop  offset="0.56" style="stop-color:#FFFFFF;stop-opacity:0.37"/>
	<stop  offset="1" style="stop-color:#FFFFFF;stop-opacity:0"/>
</linearGradient>
<path class="st1" d="M366.9,340.4c128.2,0,238.6-57,287.8-138.8L367.5,35.8l0,0L79.4,202.2C128.8,283.7,238.9,340.4,366.9,340.4z"/>
<path class="st2" d="M734.9,637.4V213.1l-29.3-16.9L427.8,35.8L367.5,1l-60.3,34.8L29.4,196.2L0.1,213.1v424.2l29.3,16.9
	l281.3,162.4l56.9,32.8l56.9-32.8l281.3-162.4L734.9,637.4z M29.4,621.5V231l50-28.9L367.5,35.8l0,0l287.2,165.8l50.9,29.4v390.5
	L367.5,816.7L29.4,621.5z"/>
<path class="st3" d="M58.8,289.5c0.3-0.3,0.6-0.6,0.9-0.9h-0.2C59.3,289,59.1,289.2,58.8,289.5z"/>
<path class="st3" d="M367,633.9c0.3-0.3,0.6-0.6,0.9-0.9h-0.3C367.5,633.3,367.3,633.6,367,633.9z"/>
<path class="st2" d="M157.3,591.5c0-9.1-0.2-17-0.6-24.2h12.3l0.5,15.2h0.6c3.5-10.4,12-17,21.4-17c1.3,0,2.7,0.1,4,0.5v13.3
	c-1.6-0.3-3.2-0.5-4.8-0.5c-9.9,0-17,7.5-18.9,18.1c-0.4,2.2-0.6,4.4-0.6,6.6v41.3h-13.9V591.5z"/>
<path class="st2" d="M210.7,608.6c0.3,19,12.5,26.9,26.6,26.9c10.1,0,16.2-1.8,21.4-4l2.4,10.1c-5,2.2-13.4,4.8-25.8,4.8
	c-23.8,0-38.1-15.7-38.1-39s13.8-41.8,36.3-41.8c25.3,0,32,22.2,32,36.5c0,2.2-0.2,4.4-0.5,6.6L210.7,608.6z M252,598.5
	c0.2-9-3.7-22.9-19.5-22.9c-14.2,0-20.5,13.1-21.6,22.9H252z"/>
<path class="st2" d="M333.1,641.9c-3.7,1.9-11.8,4.5-22.2,4.5c-23.4,0-38.6-15.8-38.6-39.5c0-23.8,16.3-41.1,41.6-41.1
	c8.3,0,15.7,2.1,19.5,4l-3.2,10.9c-3.4-1.9-8.6-3.7-16.3-3.7c-17.8,0-27.4,13.1-27.4,29.3c0,17.9,11.5,29,26.9,29
	c6,0,11.9-1.3,17.3-3.8L333.1,641.9z"/>
<path class="st2" d="M360.1,545.6c0.2,4.8-3.4,8.6-9,8.6c-4.6,0.1-8.4-3.6-8.5-8.3c0-0.1,0-0.3,0-0.4c-0.1-4.7,3.6-8.7,8.4-8.8
	c0.1,0,0.3,0,0.4,0C356.8,536.8,360.1,540.6,360.1,545.6z M344.5,644.8v-77.4h14.1v77.4H344.5z"/>
<path class="st2" d="M376.8,592.6c0-9.9-0.3-17.9-0.6-25.3h12.6l0.6,13.3h0.3c5.8-9.4,14.9-15,27.5-15c18.7,0,32.8,15.8,32.8,39.4
	c0,27.8-17,41.6-35.2,41.6c-10.2,0-19.2-4.5-23.8-12.2h-0.3v42.1h-13.9V592.6z M390.7,613.2c0,1.9,0.3,3.9,0.6,5.8
	c2.4,9.7,11.1,16.5,21.1,16.5c14.9,0,23.5-12.2,23.5-29.9c0-15.5-8.2-28.8-23-28.8c-9.6,0-18.6,6.9-21.3,17.4
	c-0.6,1.9-0.9,3.8-1,5.8V613.2z"/>
<path class="st2" d="M470.5,608.6c0.3,19,12.5,26.9,26.6,26.9c10.1,0,16.2-1.8,21.4-4l2.4,10.1c-5,2.2-13.4,4.8-25.8,4.8
	c-23.8,0-38.1-15.7-38.1-39s13.8-41.8,36.3-41.8c25.3,0,32,22.2,32,36.5c0,2.2-0.2,4.4-0.5,6.6L470.5,608.6z M511.8,598.5
	c0.2-9-3.7-22.9-19.5-22.9c-14.2,0-20.5,13.1-21.6,22.9H511.8z"/>
<path class="st2" d="M535.8,630.4c5.6,3.5,12,5.4,18.6,5.6c10.2,0,15-5.1,15-11.5c0-6.7-4-10.4-14.4-14.2
	c-13.9-5-20.5-12.6-20.5-21.9c0-12.5,10.1-22.7,26.7-22.7c6.6-0.1,13.2,1.6,19,4.8l-3.5,10.2c-4.8-2.9-10.2-4.5-15.8-4.5
	c-8.3,0-13,4.8-13,10.6c0,6.4,4.6,9.3,14.7,13.1c13.4,5.1,20.3,11.8,20.3,23.4c0,13.6-10.6,23.2-29,23.2c-8.5,0-16.3-2.1-21.8-5.3
	L535.8,630.4z"/>
<path class="st2" d="M365.5,797.3l4.5,4.5c1,1,1.9,1.9,2.7,2.9h0.1c-0.4-1.2-0.7-2.5-1-3.8l-1.4-6.3l1.6-0.9l4.7,4.3
	c1.1,1,2.1,2,2.9,2.9h0.1c-0.5-1.3-0.9-2.6-1.2-3.9l-1.6-6.1l1.9-1.1l2.7,12.4l-1.7,1l-4.5-4.1c-1-1-2-1.8-2.9-2.9l0,0
	c0.4,1.3,0.8,2.6,1.1,4l1.2,6l-1.7,1l-9.2-8.6L365.5,797.3z"/>
<path class="st2" d="M381.7,787.9l4.5,4.5c1,1,1.9,1.9,2.7,2.9h0.1c-0.4-1.2-0.7-2.5-1-3.8l-1.4-6.3l1.6-0.9l4.7,4.3
	c1.1,1,2.1,2,2.9,2.9h0.1c-0.5-1.3-0.9-2.6-1.2-3.9l-1.6-6.1l1.9-1.1l2.7,12.4l-1.7,1l-4.5-4.1c-1-0.9-2-1.9-2.9-2.9l0,0
	c0.4,1.3,0.8,2.6,1.1,4l1.2,6l-1.7,1l-9.3-8.7L381.7,787.9z"/>
<path class="st2" d="M397.8,778.5l4.5,4.5c1,1,1.9,1.9,2.7,2.9h0.1c-0.4-1.2-0.7-2.5-1-3.8l-1.4-6.3l1.6-0.9l4.7,4.3
	c1.1,1,2.1,2,2.9,2.9h0.1c-0.5-1.3-0.9-2.6-1.2-3.9l-1.6-6.1l1.9-1.1l2.7,12.4l-1.7,1l-4.5-4.1c-1-0.9-2-1.9-2.9-2.9l0,0
	c0.4,1.3,0.8,2.6,1.1,4l1.2,6l-1.7,1l-9.2-8.6L397.8,778.5z"/>
<path class="st2" d="M417.1,779.7c-0.4-0.7-0.1-1.6,0.6-2c0.7-0.4,1.6-0.1,2,0.6c0.4,0.7,0.1,1.6-0.6,2
	C418.5,780.8,417.6,780.5,417.1,779.7C417.2,779.8,417.1,779.8,417.1,779.7z"/>
<path class="st2" d="M418.5,770.8c-0.7-1.2-1.4-2.3-2-3.2l1.7-1l1.2,2h0.1c-0.4-1.5,0.2-3.2,1.6-4c0.2-0.1,0.4-0.2,0.6-0.2l1,1.8
	c-0.2,0.1-0.5,0.2-0.7,0.3c-1.3,0.8-1.8,2.5-1.1,3.9c0.1,0.3,0.3,0.6,0.4,0.9l3.2,5.6l-1.8,1.1L418.5,770.8z"/>
<path class="st2" d="M428.4,772.1c1,0,2-0.2,2.9-0.7c1.4-0.8,1.6-1.9,1.1-2.7s-1.4-1.1-3.1-0.8c-2.3,0.4-3.8-0.1-4.5-1.3
	c-1-1.7-0.4-3.9,1.8-5.2c0.9-0.5,1.9-0.8,3-0.8l0.3,1.7c-0.9,0-1.7,0.2-2.5,0.6c-0.9,0.3-1.3,1.4-1,2.3c0,0.1,0,0.1,0.1,0.2
	c0.5,0.9,1.4,0.9,3,0.6c2.2-0.4,3.7,0,4.6,1.5c1.1,1.8,0.4,4-2.1,5.4c-1,0.6-2.2,1-3.4,1L428.4,772.1z"/>
<path class="st2" d="M432.8,754.1l1.8,3l2.7-1.6l0.8,1.4l-2.7,1.6l3.3,5.6c0.8,1.3,1.5,1.8,2.6,1.2c0.4-0.2,0.7-0.5,1-0.8l0.9,1.4
	c-0.4,0.5-0.9,0.9-1.5,1.2c-0.7,0.5-1.7,0.6-2.5,0.4c-1-0.5-1.9-1.3-2.3-2.3l-3.3-5.7l-1.6,0.9l-0.8-1.4l1.6-1l-1.5-2.5L432.8,754.1
	z"/>
<path class="st2" d="M452.6,756.8c0.6,1.1,1.2,2,1.8,2.8l-1.7,1l-1.1-1.6l0,0c0,1.7-0.9,3.2-2.3,4c-1.6,1-4.1,1.2-6.3-2.5l-3.6-6.1
	l1.9-1.1l3.4,5.8c1.2,2,2.5,3,4.3,2c1.1-0.7,1.7-1.9,1.5-3.2c-0.1-0.4-0.2-0.7-0.4-1.1l-3.7-6.4l1.9-1.1L452.6,756.8z"/>
<path class="st2" d="M457.5,737.2l7.4,12.6c0.5,0.9,1.2,2,1.6,2.7l-1.7,1l-1.1-1.8l0,0c0.1,1.7-0.8,3.3-2.4,4.1
	c-2.5,1.5-5.7,0.5-7.6-2.7c-2-3.5-1.1-6.9,1.4-8.3c1.2-0.8,2.8-0.9,4.1-0.2l0,0l-3.6-6.2L457.5,737.2z M460.9,747.5
	c-0.2-0.3-0.3-0.5-0.5-0.8c-1-1.1-2.7-1.4-4-0.6c-2,1.1-2.1,3.5-0.8,5.9c1.2,2.1,3.3,3.3,5.3,2.1c1.3-0.8,2-2.4,1.5-3.9
	c-0.1-0.3-0.2-0.6-0.4-0.9L460.9,747.5z"/>
<path class="st2" d="M463.9,736.1c0.4,0.6,0.2,1.5-0.5,1.9c-0.6,0.4-1.5,0.2-1.9-0.5c-0.4-0.6-0.2-1.5,0.4-1.8c0,0,0,0,0.1,0
	c0.6-0.4,1.4-0.2,1.8,0.4C463.8,736,463.9,736,463.9,736.1z M469.6,750.7l-6.1-10.5l1.9-1.1l6.1,10.5L469.6,750.7z"/>
<path class="st2" d="M481,736.9c2.3,3.9,0.6,7.1-2,8.6c-2.8,1.6-6.2,0.8-8.1-2.5c-2-3.5-0.9-6.9,2-8.6S479.1,733.8,481,736.9z
	 M472.8,741.9c1.3,2.3,3.7,3.2,5.5,2.2s2.2-3.6,0.8-5.9c-1-1.8-3.2-3.5-5.5-2.2S471.6,739.9,472.8,741.9L472.8,741.9z"/>
<path class="st2" d="M484.9,740.3c-0.5-0.7-0.3-1.6,0.4-2c0,0,0.1,0,0.1-0.1c0.8-0.4,1.7-0.2,2.1,0.6c0.4,0.8,0.2,1.7-0.6,2.1l0,0
	C486.2,741.3,485.3,741.1,484.9,740.3C484.9,740.4,484.9,740.3,484.9,740.3z"/>
<path class="st2" d="M497.7,733.8c-0.7,1-1.6,1.8-2.6,2.3c-3.2,1.8-6.5,0.9-8.3-2.3c-1.8-2.8-1-6.6,1.8-8.5c0.2-0.1,0.4-0.2,0.6-0.3
	c0.9-0.5,1.9-0.9,3-1l0.4,1.7c-0.9,0-1.7,0.3-2.5,0.8c-2.4,1.4-2.7,3.9-1.4,6.1c1.4,2.4,3.8,3,5.9,1.8c0.8-0.5,1.5-1.1,2-1.9
	L497.7,733.8z"/>
<path class="st2" d="M506.4,722.2c2.2,3.9,0.5,7.1-2,8.6c-2.8,1.7-6.2,0.8-8.1-2.5c-2-3.5-0.9-6.9,2-8.6S504.5,719,506.4,722.2z
	 M498.1,727.1c1.3,2.3,3.6,3.2,5.5,2.2s2.2-3.5,0.8-5.9c-1-1.8-3.2-3.5-5.5-2.2S497,725.1,498.1,727.1z"/>
<path class="st2" d="M507.4,718.5c-0.6-1.1-1.2-2-1.7-2.8l1.7-1l1.1,1.6h0.1c-0.1-1.6,0.8-3.1,2.2-3.8c1.3-0.8,3-0.6,4.2,0.4l0,0
	c0-0.7,0.1-1.4,0.4-2c0.4-0.9,1-1.6,1.9-2.1c1.4-0.8,4-1.1,6.1,2.5l3.6,6.2l-1.9,1.1l-3.5-5.9c-1.2-2-2.6-2.8-4.1-1.9
	c-1,0.6-1.5,1.8-1.2,3c0.1,0.4,0.2,0.7,0.4,1l3.8,6.5l-1.8,1.1l-3.6-6.3c-1-1.7-2.4-2.5-3.9-1.6c-1.1,0.7-1.6,2-1.2,3.3
	c0.1,0.4,0.2,0.7,0.4,1l3.7,6.3l-1.9,1.1L507.4,718.5z"/>
<path class="st4" d="M304.2,474.8c-1.9,5.8-3.7,11.5-5.6,17.3c-2.9,9.1-5.9,18.2-8.9,27.4c-0.7,2.1-1.4,4.2-2,6.3
	c-0.8,3.2,1,6.5,4.2,7.4c3.2,0.8,6.4-1.1,7.4-4.2c1.9-5.7,3.7-11.5,5.6-17.3c3-9.1,5.9-18.2,8.9-27.4c0.7-2.1,1.4-4.2,2-6.3
	c0.8-3.2-1-6.5-4.2-7.4C308.4,469.8,305.2,471.7,304.2,474.8L304.2,474.8z"/>
<path class="st4" d="M426,476.4c1.5,5.8,3,11.7,4.5,17.5c2.4,9.2,4.7,18.5,7.1,27.7l1.6,6.4c0.9,3.2,4.2,5.1,7.4,4.2
	c3.2-0.9,5.1-4.2,4.2-7.4c-1.5-5.8-3-11.7-4.5-17.5c-2.4-9.2-4.7-18.5-7.1-27.7c-0.5-2.1-1.1-4.3-1.7-6.4c-0.9-3.2-4.2-5.1-7.4-4.2
	C427,469.9,425.1,473.2,426,476.4z"/>
<path class="st5" d="M181,293.1c0,7.7,1.3,15.3,3.7,22.5c2.6,7.3,6.2,14.2,10.9,20.3c4.6,6,10,11.3,16,15.6
	c6.3,4.5,13.1,8,20.4,10.5c7.6,2.6,15.4,4,23.4,4.3c1,0,2,0.1,3,0.1c2.1,0,3.8-1.8,3.8-4s-1.7-4-3.8-4c-1.9,0-3.9-0.1-5.8-0.2
	c-0.9-0.1-1.9-0.2-2.9-0.3c-0.5-0.1-0.9-0.1-1.4-0.2c-0.2,0-0.4-0.1-0.6-0.1c-0.8-0.1,0.8,0.1-0.1,0c-3.7-0.6-7.3-1.4-10.9-2.5
	c-1.8-0.5-3.6-1.1-5.3-1.8c-0.8-0.3-1.7-0.7-2.5-1c-0.2-0.1-0.4-0.2-0.6-0.3c-0.1,0-0.2-0.1-0.3-0.1c-0.4-0.2,0.5,0.2,0.4,0.2
	c-0.4-0.2-0.9-0.4-1.3-0.6c-3.2-1.5-6.3-3.3-9.3-5.3c-1.5-1-3-2-4.4-3.2c-0.3-0.3-0.6-0.5-1-0.8c-0.3-0.3-0.9-0.7,0,0.1
	c-0.2-0.2-0.4-0.3-0.5-0.5c-0.7-0.6-1.3-1.2-2-1.7c-2.6-2.4-5-4.9-7.3-7.7c-0.6-0.7-1.1-1.3-1.6-2c-0.2-0.3-0.5-0.7-0.7-1
	c0,0,0.5,0.8,0.3,0.4c-0.1-0.1-0.2-0.2-0.2-0.3L200,329c-1-1.4-1.9-2.9-2.8-4.4s-1.7-3-2.5-4.6c-0.4-0.8-0.8-1.6-1.1-2.5
	c-0.2-0.4-0.3-0.7-0.5-1.1c-0.1-0.2-0.2-0.4-0.2-0.6c-0.3-0.8,0.3,0.8,0,0c-1.3-3.3-2.3-6.6-3-10.1c-0.2-0.9-0.3-1.7-0.5-2.6
	c-0.1-0.4-0.2-0.9-0.2-1.3c0-0.2-0.1-0.4-0.1-0.6c0-0.2,0-0.2,0-0.3c-0.1-0.7,0,0.1,0,0.4c-0.3-1.8-0.4-3.6-0.5-5.4
	c0-0.9-0.1-1.8-0.1-2.7c0.2-2.2-1.2-4.2-3.3-4.4s-3.9,1.3-4.2,3.5C181,292.5,181,292.8,181,293.1L181,293.1z"/>
<path class="st5" d="M537.3,297.2c0,1.6-0.1,3.1-0.2,4.7c0,0.4-0.1,0.8-0.1,1.2c0,0.2,0,0.4-0.1,0.5c0,0.2-0.1,1,0,0.3
	c0.1-0.6,0,0,0,0.2c0,0.2-0.1,0.4-0.1,0.5c-0.1,0.4-0.1,0.8-0.2,1.2c-0.5,3.1-1.3,6-2.3,9c-0.2,0.7-0.5,1.4-0.8,2.1
	c-0.2,0.6,0.3-0.7,0.1-0.2l-0.2,0.5c-0.2,0.4-0.3,0.8-0.5,1.1c-0.6,1.4-1.3,2.7-2,4c-0.7,1.3-1.5,2.7-2.3,4
	c-0.4,0.6-0.8,1.3-1.2,1.9c-0.2,0.3-0.4,0.6-0.7,0.9c0,0,0.5-0.6,0.2-0.3l-0.2,0.2c-0.1,0.2-0.2,0.3-0.4,0.5c-1.9,2.4-3.9,4.7-6,6.9
	c-1.1,1.1-2.2,2.1-3.4,3.1c-0.1,0.1-0.7,0.5-0.2,0.2c0.5-0.4,0,0-0.1,0.1l-1,0.8c-0.6,0.5-1.2,0.9-1.8,1.4c-2.5,1.8-5.2,3.5-8,4.9
	c-0.7,0.4-1.4,0.7-2.1,1l-1,0.5c-0.5,0.2,0.7-0.3,0,0l-0.6,0.2c-1.4,0.6-2.9,1.2-4.4,1.7c-3.1,1.1-6.2,1.9-9.4,2.5
	c-0.8,0.2-1.6,0.3-2.4,0.4c-0.8,0.1,0.6-0.1,0,0c-0.2,0-0.4,0.1-0.5,0.1c-0.4,0.1-0.8,0.1-1.2,0.2c-1.7,0.2-3.4,0.3-5,0.4
	c-0.8,0-1.7,0-2.5,0c-1.8,0-3.3,1.6-3.3,3.5s1.5,3.5,3.3,3.5c7,0,13.9-1,20.6-3c6.4-1.9,12.4-4.8,18-8.5c5.4-3.6,10.2-8,14.4-13
	c4.2-5.1,7.6-11,10-17.2c2.4-6.1,3.7-12.6,4-19.2c0-0.8,0-1.6,0-2.5c0-1.9-1.5-3.5-3.3-3.5C538.8,293.8,537.3,295.3,537.3,297.2
	L537.3,297.2z"/>
<path id="SVGID" class="st6" d="M488.6,308.3l-17.3,141c0,17.9-46.6,32.4-104,32.4s-104-14.5-104-32.4l-17.3-141H488.6z"/>
<path class="st4" d="M364.4,368.5v113.3h3h3V308.3h-6V368.5z"/>
<path class="st4" d="M299.9,331.8c1.6,24.2,3.2,48.5,4.8,72.8l4.8,71.8c2,0.4,4,0.8,6.1,1.2c-1.1-16.7-2.2-33.4-3.3-50.1
	c-1.8-27.3-3.6-54.6-5.4-81.9c-0.8-12.4-1.5-24.8-2.5-37.2h-6C298.9,316.1,299.4,323.9,299.9,331.8z"/>
<path class="st4" d="M428.8,331.8c-1.6,24.2-3.2,48.5-4.8,72.8c-1.6,24.3-3.2,48.6-4.9,73c2.1-0.4,4.1-0.8,6.1-1.2l3.2-48.9
	c1.8-27.3,3.6-54.6,5.4-81.9c0.8-12.4,2-24.8,2.5-37.2h-6C429.8,316.1,429.3,323.9,428.8,331.8z"/>
<path class="st4" d="M332.1,331.9c0.8,24.1,1.6,48.2,2.4,72.4l2.5,76.1c2,0.2,4,0.4,6,0.5c-0.6-17.7-1.2-35.3-1.8-53
	c-0.9-27.5-1.8-54.9-2.7-82.4c-0.4-12.4-0.7-24.8-1.2-37.2h-6C331.6,316.2,331.9,324,332.1,331.9z"/>
<path class="st4" d="M396.5,331.9c-0.8,24.1-1.6,48.3-2.4,72.4c-0.8,25.5-1.7,51.1-2.5,76.6c2-0.1,4-0.3,6-0.5l1.7-52.5l2.7-82.4
	c0.4-12.4,1.1-24.8,1.3-37.2h-6C397.1,316.2,396.8,324,396.5,331.9z"/>
<path class="st4" d="M270.1,331.8c2.4,24.2,4.7,48.4,7,72.5l6.2,64.2c2,0.8,4,1.6,6.2,2.4c-1.4-14.5-2.8-29-4.2-43.5
	c-2.7-27.3-5.3-54.6-7.9-81.9c-1.2-12.4-2.4-24.8-3.6-37.2h-6C268.6,316.1,269.4,323.9,270.1,331.8z"/>
<path class="st4" d="M466.9,308.3h-6l-2.3,23.5c-2.4,24.2-4.7,48.4-7,72.5l-6.5,66.5c2.2-0.8,4.3-1.6,6.2-2.4
	c1.3-13.7,2.7-27.3,4-41c2.7-27.3,5.3-54.6,7.9-81.9C464.4,333.2,466,320.8,466.9,308.3z"/>
<path class="st4" d="M277.2,465.5c-1.8-16.1-3.5-32.2-5.3-48.2c-3.1-28.2-6.2-56.3-9.3-84.4c-0.9-8.2-1.8-16.4-2.7-24.5h-6
	c0.4,3.5,0.8,7,1.1,10.4c2.7,24.9,5.5,49.8,8.2,74.8c2.5,22.6,5,45.2,7.4,67.8C272.7,462.9,274.9,464.3,277.2,465.5z"/>
<path class="st4" d="M468.8,417.3c3.1-28.2,6.2-56.3,9.3-84.4c0.9-8.2,2-16.4,2.9-24.6h-6.2c-0.4,3.5-0.8,7-1.1,10.5
	c-2.7,24.9-5.5,49.8-8.2,74.8c-2.6,24-5.3,48-7.9,71.9c2.3-1.2,4.4-2.6,6.4-4.1C465.6,446.7,467.2,432,468.8,417.3z"/>
<path class="st4" d="M284.4,331.7l6,72.6c1.9,22.9,3.8,45.8,5.7,68.7c2,0.6,4,1.1,6.1,1.7c-1.3-15.6-2.6-31.2-3.9-46.8
	c-2.3-27.4-4.5-54.8-6.8-82.1c-1-12.4-2-24.9-3.1-37.3h-6C283.1,316.1,283.7,323.9,284.4,331.7z"/>
<path class="st4" d="M444.3,331.7l-6,72.6l-5.8,70.3c2.1-0.5,4.2-1.1,6.1-1.7c1.2-15,2.5-30.1,3.7-45.2c2.3-27.4,4.5-54.8,6.8-82.1
	c1-12.4,2.4-24.9,3.1-37.3h-6C445.6,316.1,444.9,323.9,444.3,331.7z"/>
<path class="st4" d="M315,331.9c1.2,24.2,2.4,48.4,3.7,72.6c1.3,24.7,2.5,49.4,3.8,74.1c2,0.3,4,0.6,6,0.8
	c-0.9-17.2-1.8-34.5-2.6-51.7l-4.2-82.2c-0.6-12.4-1.1-24.8-1.9-37.1h-6C314.1,316.2,314.6,324,315,331.9z"/>
<path class="st4" d="M413.7,331.9c-1.2,24.2-2.5,48.4-3.7,72.6c-1.3,25-2.5,50-3.8,75c2-0.3,4.1-0.5,6-0.8c0.9-17,1.7-33.9,2.6-50.9
	c1.4-27.4,2.8-54.8,4.2-82.2c0.6-12.4,1.5-24.8,1.9-37.1h-6L413.7,331.9z"/>
<path class="st4" d="M347.2,331.9c0.4,24.1,0.9,48.2,1.3,72.4l1.4,77c2,0.1,4,0.2,6,0.3c-0.3-17.9-0.7-35.8-1-53.7
	c-0.5-27.5-1-54.9-1.5-82.4c-0.2-12.4-0.3-24.8-0.6-37.2h-6C346.9,316.2,347.1,324,347.2,331.9z"/>
<path class="st4" d="M381.5,331.9c-0.4,24.1-0.9,48.3-1.3,72.4c-0.4,25.8-0.9,51.5-1.4,77.3c2-0.1,4-0.1,6-0.3
	c0.3-17.8,0.6-35.6,1-53.5c0.5-27.5,1-54.9,1.5-82.4c0.2-12.4,0.7-24.8,0.7-37.2h-6C381.8,316.2,381.7,324,381.5,331.9z"/>
<ellipse class="st7" cx="367.3" cy="265.2" rx="149.1" ry="74.2"/>
<ellipse class="st8" cx="367.3" cy="209.3" rx="92.4" ry="46"/>
<path class="st9" d="M403,148.1c13,11.5,3.3,51.5-35.6,51.5c-20.8,0-37.6-16.8-37.6-37.6c0-20.8,15.7-54.2,57.4-54.2
	C387.1,107.8,361.4,111.2,403,148.1z"/>
<circle cx="291.4" cy="279.1" r="23.7"/>
<circle cx="432.1" cy="279.1" r="23.7"/>
<g>
	<g>
		<circle cx="361.8" cy="298.7" r="23.7"/>
	</g>
	<rect x="338" y="300" width="47.5" height="23.7"/>
</g>
<g>
	<g>
		<g>
			
				<ellipse transform="matrix(0.9872 -0.1596 0.1596 0.9872 -43.5242 33.0551)" class="st4" cx="184.1" cy="287.5" rx="15.6" ry="11.4"/>
		</g>
		
			<rect x="169.5" y="288.1" transform="matrix(0.9872 -0.1596 0.1596 0.9872 -44.5061 33.2942)" class="st4" width="31.2" height="11.4"/>
	</g>
	<path class="st10" d="M180.1,262.7l1.5,15.7L180.1,262.7z"/>
</g>
<g>
	<g>
		<g>
			<ellipse class="st4" cx="538.8" cy="288.2" rx="15.6" ry="11.4"/>
		</g>
		<rect x="523.2" y="288.8" class="st4" width="31.2" height="11.4"/>
	</g>
	<path class="st10" d="M538.6,263v15.8V263z"/>
</g>
</svg>
