<?xml version="1.0" encoding="utf-8"?>
<!-- Generator: Adobe Illustrator 24.2.3, SVG Export Plug-In . SVG Version: 6.00 Build 0)  -->
<svg version="1.1" id="Layer_1" xmlns="http://www.w3.org/2000/svg" xmlns:xlink="http://www.w3.org/1999/xlink" x="0px" y="0px"
	 viewBox="0 0 735 852" style="enable-background:new 0 0 735 852;" xml:space="preserve">
<style type="text/css">
	.st0{fill:#FFFFFF;}
	.st1{fill:#53BFD3;}
	.st2{opacity:0.25;fill:url(#SVGID_1_);enable-background:new    ;}
	.st3{fill:#2E0E00;}
	.st4{fill:#E6B35A;}
	.st5{fill:#331300;}
	.st6{fill:#4E2400;}
	.st7{fill:#EEE6D2;}
	.st8{fill:#CA015F;}
	.st9{fill:#FF0000;}
	.st10{fill:#747474;}
	.st11{fill:#664B30;}
	.st12{fill:#423B3B;}
	.st13{fill:#B3ACAD;}
	.st14{fill:#896846;}
	.st15{fill:#76664D;}
	.st16{fill:#AE8853;}
	.st17{fill:#6A5335;}
	.st18{fill:#454545;}
	.st19{fill:#AEAEAE;}
	.st20{fill:#D0D0D0;}
	.st21{fill:#FD670E;}
	.st22{fill:#FF9911;}
	.st23{fill:#FBB601;}
	.st24{fill:#FE420C;}
</style>
<g>
	<g>
		<path class="st0" d="M17.4,628.4V224.1l66.2-38.2l6.1,10.1c48.8,80.5,157.6,132.5,277.2,132.5c120,0,228.9-52.2,277.5-133
			l6.1-10.1l67.1,38.8v404.4L367.5,830.6L17.4,628.4z"/>
		<path class="st0" d="M366.9,352.4c-63.7,0-125.4-13.7-178.5-39.8C136.2,287,95,251,69.1,208.4l-6.4-10.5l304.7-176l303.8,175.4
			l-6.3,10.5c-25.7,42.7-67,78.9-119.3,104.7C492.6,338.6,430.7,352.4,366.9,352.4z"/>
		<path class="st0" d="M366.9,352.4c-63.7,0-125.4-13.7-178.5-39.8C136.2,287,95,251,69.1,208.4l-6.4-10.5l304.7-176l303.8,175.4
			l-6.3,10.5c-25.7,42.7-67,78.9-119.3,104.7C492.6,338.6,430.7,352.4,366.9,352.4z"/>
		<path class="st0" d="M304.7,827L23.4,664.6l-35.3-20.4V206.2l35.3-20.4L301.2,25.4l66.3-38.3l66.3,38.3l277.8,160.4l35.3,20.4
			v438.2L430.5,827l-62.9,36.3L304.7,827z M367.5,802.8l326.1-188.3V237.9L648.7,212L367.5,49.7L85.4,212.5l-44,25.4v376.6
			L367.5,802.8z"/>
		<polygon class="st0" points="64.3,295 50.3,281 50.3,281 		"/>
		<path class="st0" d="M358.5,625.4c-0.7,0.7-1.7,1.9-2.3,3.8l2.7-8.2h37.9l-21.4,21.4L358.5,625.4z"/>
		<path class="st0" d="M145.3,656.8v-65.3c0-8.8-0.2-16.5-0.6-23.5l-0.7-12.7h36.6l0,0.1c3.4-1.2,7.1-1.9,10.9-1.9
			c2.8,0,5.3,0.3,7.5,1l8.5,2.6v36.6l-14.2-2.7c-1.1-0.2-1.9-0.3-2.6-0.3c-5.1,0-6.6,5.7-7.1,8.2c-0.3,1.5-0.4,3-0.4,4.5v53.3H145.3
			z"/>
		<path class="st0" d="M235.3,658.4c-30,0-50.1-20.5-50.1-51c0-31.2,20.3-53.8,48.3-53.8c19.4,0,30,9.9,35.5,18.3
			c7.4,11.2,8.5,23.7,8.5,30.2c0,2.5-0.2,5.2-0.6,8.2l-1.4,10.4l-7,0l6.6,27.8l-9.2,4C257.2,656.4,246.9,658.4,235.3,658.4z
			 M227.3,620.6c2.2,1.7,5.4,2.9,10,2.9c7.6,0,12-1.1,16.2-2.8L227.3,620.6z"/>
		<path class="st0" d="M310.9,658.4c-29.8,0-50.6-21.2-50.6-51.5c0-14.8,5.3-28.3,14.8-37.9c9.7-9.8,23.5-15.2,38.8-15.2
			c10.6,0,19.8,2.7,24.9,5.3l9,4.5l-10.3,35l-13.1-7.3c-2.5-1.4-6.2-2.2-10.4-2.2c-13.9,0-15.4,12.1-15.4,17.3
			c0,10.6,5.6,17,14.9,17c4.3,0,8.4-0.9,12.3-2.7l13.4-6.2l7.8,33.9l-8.3,4.3C335.9,653.9,326.1,658.4,310.9,658.4z"/>
		<path class="st0" d="M332.5,656.8V555.4h0.5c-1.4-2.8-2.3-5.9-2.4-9.2l0-0.6c-0.1-5.4,1.9-10.5,5.6-14.5c3.8-4,9-6.3,14.5-6.4
			l0.9,0c11.6,0.2,20.4,9.1,20.5,20.7c0.1,3.6-0.7,7-2.3,10h0.8v101.4H332.5z"/>
		<path class="st0" d="M364.8,688.5v-95.9c0-9.5-0.3-17.1-0.6-24.8l-0.5-12.5h36.6l0.1,1.3c5.2-2,10.8-3,16.9-3
			c26,0,44.8,21.6,44.8,51.4c0,36.8-24.5,53.6-47.2,53.6c-4.2,0-8.3-0.6-12.1-1.6v31.5H364.8z M403.1,616.5c1.2,4.1,5,7,9.3,7
			c4.3,0,11.5-2.3,11.5-17.9c0-1.7-0.3-16.8-11-16.8c-4.4,0-8.4,3.5-9.7,8.4l-0.1,0.3l-0.1,0.3c-0.2,0.8-0.4,1.6-0.4,2.5v0.9h0.1v12
			C402.7,614.1,402.9,615.4,403.1,616.5z"/>
		<path class="st0" d="M495.1,658.4c-30,0-50.1-20.5-50.1-51c0-31.2,20.3-53.8,48.3-53.8c19.4,0,30,9.9,35.5,18.3
			c7.4,11.2,8.5,23.7,8.5,30.2c0,2.5-0.2,5.2-0.6,8.2l-1.4,10.4l-7,0l6.6,27.8l-9.2,4C517,656.4,506.7,658.4,495.1,658.4z
			 M487.1,620.6c2.2,1.7,5.4,2.9,10,2.9c7.6,0,12-1.1,16.2-2.8L487.1,620.6z"/>
		<path class="st0" d="M553.9,658.5c-10.3,0-20.2-2.5-27.8-6.9l-8.5-5l11.8-34.4l12.8,8c3.7,2.3,8,3.6,12.4,3.8c0.6,0,1.2,0,1.7-0.1
			c-1-0.6-2.7-1.4-5.3-2.3c-24.7-8.9-28.4-24.6-28.4-33.2c0-20.1,16.2-34.7,38.6-34.7c0.2,0,0.4,0,0.6,0c8.4,0,16.8,2.2,24.2,6.3
			l8.8,4.9L583.5,598c6.2,5.3,11.4,13.3,11.4,25.3C594.9,644.4,578.4,658.5,553.9,658.5z"/>
		<polygon class="st0" points="345.2,797.7 356.8,788.8 356.8,788.5 358.6,787.5 366.6,781.4 367.6,782.4 368.4,782 387,771.2 
			395.1,808.1 371.4,822.1 		"/>
		<polygon class="st0" points="360.6,787.5 373,779.3 373,779.1 374.9,778 383.2,772.5 383.8,773 384.4,772.6 403.2,761.8 
			411.3,798.7 387.6,812.7 		"/>
		<polygon class="st0" points="377.5,778.9 389.1,770 389.1,769.7 390.9,768.7 398.9,762.6 399.9,763.6 400.5,763.3 419.3,752.4 
			427.4,789.3 403.7,803.3 		"/>
		<path class="st0" d="M418.4,792.5c-1.5,0-3-0.3-4.4-0.8h-8.8l0-10.6c-0.3-2-0.2-4.2,0.4-6.2c1-3.3,3.2-6,6.2-7.8
			c2-1.1,4.3-1.8,6.6-1.8c4.8,0,9.3,2.6,11.7,6.8c1.8,3.2,2.3,7.1,1.2,10.6c-0.6,2.1-1.8,3.9-3.3,5.5l-0.5,3.3l-4.7,0
			C421.4,792.3,419.9,792.5,418.4,792.5z"/>
		<path class="st0" d="M408.1,776.8c-0.5-0.8-1-1.7-1.6-2.6l-7-10.6l13.2-7.8c0.7-0.6,1.6-1.2,2.4-1.7l0.3-0.2l0.3-0.2
			c0.3-0.2,0.9-0.4,1.6-0.7l5-2.9l1.3,2.2h5.1l10.5,18.9l-3.2,1.6l4.6,8.1l-22.2,13.6L408.1,776.8z"/>
		<path class="st0" d="M417.9,785.9l-1.1-10.3c-0.9-0.9-1.6-1.9-2.3-3c-4.4-7.5-1.7-17,6.1-21.6l0.3-0.2c2.8-1.5,5.7-2.3,8.8-2.3
			h10.1l1.6,9c1.2,1,2.3,2.3,3.1,3.7c2.2,3.6,2.8,7.8,1.7,11.8c-1.1,4.2-4,7.9-8.1,10.2c-2.9,1.7-6.2,2.6-9.4,2.6H417.9z"/>
		<path class="st0" d="M440,779.6c-1.3,0-2.5-0.2-3.7-0.5l-1.3-0.3l-1.2-0.6c-1.5-0.8-2.9-1.7-4.1-2.8l-2.3,1.3l-12.4-21.8l1.4-0.9
			l-0.4-0.7l19.4-18.1l3.3,5.5l2.9-1.7l12.1,21.3l4.1,6.4l-5.4,6.7c-1.3,1.7-2.9,3-4.8,4.1C445.5,778.9,442.8,779.6,440,779.6z"/>
		<path class="st0" d="M448.4,775.6c-0.4,0-0.8,0-1.2,0c-5.9,0-11.2-3.3-14.6-9l-9.8-16.6l22.7-13.2l0,0l7.1-4.1l10.4,18.1l0.1,0.1
			c0.3,0.5,0.5,0.9,0.9,1.3l8.1,10.7l-13.9,8.2c-0.8,0.7-1.7,1.4-2.7,2c-1,0.6-2.1,1.1-3.2,1.5l-3.1,1.8L448.4,775.6z"/>
		<path class="st0" d="M459.9,768.5c-0.3,0-0.7,0-1,0c0,0,0,0,0,0c-6.3,0-12-3.5-15.5-9.3l-0.1-0.2c-2.6-4.6-3.4-9.8-2-14.5
			c0.4-1.4,1-2.8,1.7-4l-3.5-6.1l22.2-14l13.8,23.5c0.2,0.4,0.5,0.8,0.7,1.3c0.3,0.5,0.6,0.9,0.8,1.3l5.9,10.3l-13,7.6
			c-0.8,0.7-1.8,1.3-2.8,1.9c-0.7,0.4-1.4,0.7-2.1,1l-4.3,2.5L459.9,768.5z"/>
		<path class="st0" d="M453,746.1c-0.7-0.7-1.2-1.4-1.7-2.3c-0.6-1-1.1-2.1-1.5-3.2l-2.8-4.7l2.4-1.4c0.1-0.4,0.1-0.7,0.2-1.1
			c0.4-1.6,1.1-3.1,2.1-4.4v-4.9l6.6,0l0.7-0.4h1.3c0.8-0.1,1.6-0.2,2.3-0.2c1.5,0,3,0.3,4.4,0.8l2.7-1.5l3.2,5.5
			c0.7,0.8,1.3,1.7,1.8,2.7c0.2,0.5,0.4,0.9,0.6,1.4l12.6,21.7l-22.7,13.1L453,746.1z"/>
		<path class="st0" d="M476.1,758.3c-6.4,0-12.2-3.5-15.6-9.3c-5.2-9.1-2.5-19.8,6.3-24.9c2.7-1.6,5.8-2.4,8.9-2.4
			c6.2,0,12,3.4,15.5,9l0.1,0.2c2.6,4.5,3.4,9.5,2.2,14.1c-1.2,4.6-4.2,8.5-8.5,11C482.2,757.5,479.2,758.3,476.1,758.3z"/>
		<path class="st0" d="M486.2,753.1c-4.8,0-9.2-2.5-11.6-6.6c-1.8-2.9-2.4-6.5-1.7-9.8c0.1-0.6,0.3-1.1,0.5-1.6v-4.2
			c0,0,6.8-3.4,6.9-3.4l1.8-1h1.3c0.9-0.2,1.9-0.3,2.8-0.3c5.1,0,9.7,2.8,12,7.4c1.5,3,1.9,6.4,1,9.7c-1,3.6-3.4,6.6-6.7,8.4
			C490.6,752.5,488.4,753.1,486.2,753.1z"/>
		<path class="st0" d="M491.8,749c-6.3,0-12-3.4-15.3-9c-5-8.2-2.7-19.2,5.4-24.6l0.7-0.5l1.1-0.6c2.4-1.3,4.9-2.1,7.5-2.3l10.4-0.9
			l2.8,11.9l8.5,10.1l-5.3,7.6c-1.8,2.5-4.1,4.6-6.8,6C497.9,748.2,494.9,749,491.8,749z"/>
		<path class="st0" d="M501.5,743.6c-6.4,0-12.2-3.5-15.6-9.4c-5.2-9.1-2.5-19.8,6.3-24.9c2.8-1.6,5.9-2.5,9-2.5
			c6.3,0,12.1,3.4,15.5,9.2l0.1,0.2c5,9,2.3,19.6-6.3,24.8C507.8,742.7,504.7,743.6,501.5,743.6z"/>
		<path class="st0" d="M497,724.6l-0.2-0.3c-0.3-0.5-0.6-1-1-1.6l-6.9-11.1l13.5-7.9c0.8-0.6,1.6-1.2,2.5-1.7
			c0.6-0.3,1.2-0.6,1.9-0.9l3-1.8c0.5-0.4,1-0.7,1.6-1c2.4-1.3,5.1-2.1,7.8-2.1c5.9,0,11.2,3.3,14.6,9l9.6,16.6l-12.9,7.5l0.1,0.1
			l-6.8,3.9l-9.4,5.7l-0.1-0.2l-6.1,3.5L497,724.6z"/>
		<path class="st0" d="M293.4,545.4c-1.5,0-3-0.2-4.4-0.5l-0.3-0.1c-9.5-2.7-15-12.3-12.6-21.9l0-0.2l0.1-0.2
			c0.7-2.4,1.4-4.6,2.2-6.8l2.2-6.7c2.2-6.7,4.5-13.7,6.7-20.5c1-3,1.9-5.8,2.8-8.7c0.9-2.9,1.9-5.8,2.8-8.7
			c2.4-7.5,9.4-12.6,17.3-12.6c1.5,0,3,0.2,4.4,0.5l0.3,0.1c9.5,2.7,15,12.3,12.6,21.9l0,0.2l-0.1,0.2c-0.7,2.4-1.4,4.6-2.2,6.8
			c-1.2,3.6-2.4,7.3-3.6,11c-1.8,5.5-3.5,10.9-5.3,16.4c-0.8,2.4-1.6,4.9-2.4,7.4c-1.1,3.3-2.1,6.6-3.2,9.9
			C308.2,540.3,301.3,545.4,293.4,545.4C293.4,545.4,293.4,545.4,293.4,545.4z"/>
		<path class="st0" d="M445,544.4c-8,0-15.2-5.4-17.3-13.2l-0.1-0.3l-1.6-6.3c-1.2-4.6-2.4-9.2-3.5-13.8c-1.2-4.6-2.3-9.2-3.5-13.8
			c-0.8-2.9-1.5-5.8-2.3-8.8c-0.7-2.9-1.5-5.8-2.2-8.7c-2.6-9.4,2.9-19.3,12.3-22l0.1,0c1.6-0.4,3.2-0.7,4.9-0.7
			c8,0,15.2,5.4,17.3,13.2c0.7,2.6,1.3,4.8,1.8,6.7c1.2,4.6,2.4,9.2,3.5,13.8c1.2,4.6,2.3,9.2,3.5,13.8c0.8,2.9,1.5,5.9,2.3,8.8
			c0.7,2.9,1.5,5.8,2.2,8.6c1.3,4.6,0.6,9.4-1.7,13.6c-2.4,4.2-6.2,7.2-10.8,8.4C448.3,544.2,446.6,544.4,445,544.4
			C445,544.4,445,544.4,445,544.4z"/>
		<path class="st0" d="M256.1,378.4c-0.9,0-1.9,0-2.8-0.1c-0.7,0-1.4,0-2,0l-0.4,0c-13.7-0.4-27.4-2.8-40.6-7.1
			c-12.8-4.1-24.7-9.9-35.5-17.2c-10.6-7.1-20-15.8-28.1-25.8c-8.2-10.2-14.6-21.5-19.2-33.9l-0.1-0.1c-4.4-12.2-6.6-25-6.6-37.8
			c0-0.7,0-1.8,0.2-3.3c1.3-8.8,8.9-15.5,17.8-15.5c0.7,0,1.4,0,2.2,0.1c9.6,1.2,16.5,9.6,15.9,19.1c0,1,0,1.9,0.1,2.7l0,0.2l0,0.2
			c0.1,2.2,0.2,4.1,0.4,5.8c0.1,0.6,0.2,1.2,0.2,1.8c0,0.2,0,0.4,0.1,0.6c0.1,0.5,0.1,0.9,0.2,1.3l0,0.2c0.1,0.9,0.4,1.9,0.6,3
			c1,4.4,2.3,8.6,3.9,12.6c0.2,0.4,0.4,0.9,0.6,1.3c0.1,0.2,0.2,0.4,0.3,0.6c0.1,0.1,0.1,0.3,0.2,0.5c0.3,0.7,0.7,1.3,1,2
			c0.3,0.5,0.5,1.1,0.8,1.6c1.1,2,2.2,4.1,3.5,6.1c1.2,1.9,2.5,3.8,3.8,5.6l0.2,0.3l0.3,0.5c0.4,0.4,0.7,1,1.1,1.6l0.1,0.1
			c0.7,0.8,1.2,1.5,1.8,2.1l0.1,0.1c3.3,3.8,6.7,7.1,10.3,10.2c0.3,0.3,0.7,0.6,1,0.9c0.5,0.4,1,0.8,1.4,1.1c0.5,0.4,1,0.7,1.3,1
			l0.2,0.1c0.4,0.3,0.8,0.5,1.1,0.8c2.2,1.6,4.2,3,6.1,4.2c4.1,2.5,8.4,4.9,13.4,7.1l0.9,0.4c0.6,0.2,1.1,0.4,1.6,0.7
			c1.1,0.4,2.3,0.9,3.5,1.3l0.1,0c2.1,0.8,4.6,1.6,7.5,2.4c5.3,1.5,10.2,2.5,14.8,3.2c0.2,0,0.5,0,0.7,0.1c0.1,0,0.3,0,0.4,0h0.2
			c0,0,2.6,0.4,2.9,0.4c1.2,0.1,2.5,0.2,3.8,0.3c2.7,0.2,5.6,0.3,8.4,0.3c9.9,0,18,8.1,18,18S266,378.4,256.1,378.4z"/>
		<path class="st0" d="M479.5,372.8c-9.9,0-18-8.1-18-18s8.1-18,18-18c0.6,0,1.3,0,1.9,0c0.8,0,1.7-0.1,2.5-0.1
			c2.7-0.1,5.5-0.3,8.2-0.5l2.9-0.4h0.1c0.1,0,0.5-0.1,0.5-0.1c1.1-0.2,2.2-0.3,3.2-0.5l0.3-0.1c4.9-0.8,10.1-2.2,15.5-3.9
			c2.4-0.8,4.9-1.7,7.3-2.7l0.2-0.1l0.4-0.1c0,0,1.9-0.9,1.9-0.9l3.6-1.6c4.8-2.3,9-4.8,13.1-7.6l0.1-0.1c1-0.7,2-1.4,3-2.1l2.3-1.7
			c1.9-1.5,3.6-2.9,5.2-4.4l0.1-0.1c3.4-3.1,6.7-6.6,9.8-10.4c0.2-0.2,0.3-0.4,0.5-0.6c0.5-0.7,1-1.3,1.3-1.8
			c0.6-0.7,1.1-1.5,1.5-2.1l0.1-0.1c0.8-1.2,1.5-2.5,2.3-3.7c0.7-1.1,1.3-2.1,1.9-3.1c0.9-1.4,1.8-3.2,2.9-5.6l0.1-0.2l0.1-0.2
			c0.1-0.2,0.2-0.4,0.3-0.6c0.2-0.4,0.4-0.9,0.6-1.3l0.2-0.4c0.1-0.2,0.1-0.4,0.2-0.6c0.3-0.7,0.5-1.4,0.8-2.1
			c1.5-4.3,2.7-8.8,3.6-13.4l0.1-0.5l0.1-0.4c0-0.1,0-0.1,0-0.2c0-0.2,0-0.3,0-0.4l0-0.2l0-0.2c0-0.1,0-0.1,0-0.2
			c0-0.4,0.1-0.8,0.1-1.1c0,0,0-0.1,0-0.1s0.2-1.3,0.2-1.4v-0.4l0.1-0.6c0.2-2.1,0.3-4.2,0.3-6.8c-0.1-4.7,1.7-9.3,5-12.7
			c3.4-3.5,7.9-5.4,12.8-5.4c9.9,0,18,8.1,18,18c0,1.6,0,3.2-0.1,5c-0.6,13-3.3,25.5-8.2,37.2c-5,12-11.8,23.1-20.4,33.1l-0.1,0.1
			c-8.5,9.7-18.3,18-29.1,24.7c-11.3,7.1-23.5,12.6-36.3,16.2C507.1,370.9,493.2,372.8,479.5,372.8z"/>
		<path class="st0" d="M367.3,493.7c-28.9,0-56.3-3.6-77.1-10c-17.5-5.4-38.2-15.7-38.9-33.5l-18.9-153.9h269.7l-18.9,153.9
			c-0.6,17.9-21.4,28.1-38.9,33.5C423.6,490.1,396.2,493.7,367.3,493.7z"/>
		<rect x="352.4" y="296.3" class="st0" width="30" height="197.5"/>
		<path class="st0" d="M313.4,489.4c-2-0.4-4-0.8-5.9-1.2l-9.3-1.9l-5.4-81c-1.6-24.3-3.2-48.6-4.8-72.8c-0.5-7.9-1-15.7-1.5-23.4
			l-0.8-12.8h29.9l0.9,11c0.8,9.4,1.4,18.9,1.9,28.1c0.2,3.1,0.4,6.2,0.6,9.3l9.7,147.5L313.4,489.4z"/>
		<path class="st0" d="M407.1,476.8c1.7-24.6,3.3-49.2,4.9-73c1.6-24.3,3.2-48.6,4.8-72.8c0.5-7.9,1-15.7,1.5-23.4l0.7-11.2h29.7
			l-0.5,12.5c-0.3,8.1-0.9,16.2-1.5,24.1c-0.3,4.4-0.7,9-1,13.4l-5.4,81.9l-3.8,58.1l-9.3,1.9c-1.9,0.4-3.9,0.8-5.9,1.2l-15.3,2.9
			L407.1,476.8z"/>
		<path class="st0" d="M342.4,492.9c-2.3-0.1-4.4-0.3-6.5-0.5l-10.5-1l-0.4-10.5l-2.5-76.1l-2.4-72.4c-0.2-7.7-0.5-15-0.8-22.8
			l-0.5-13.2h30l0.5,11.5c0.3,8.3,0.6,16.8,0.8,24.9c0.1,4.1,0.2,8.2,0.4,12.3l2.7,82.4l2.2,66L342.4,492.9z"/>
		<path class="st0" d="M379.6,480.5c0.4-12.7,0.8-25.4,1.2-38.1c0.4-12.8,0.9-25.7,1.3-38.5l2.4-72.4l0-0.9
			c0.3-7.7,0.6-15.1,0.8-22.6l0.3-11.7h29.9l-0.2,12.2c-0.1,7.9-0.5,15.9-0.8,23.6c-0.2,4.6-0.4,9.2-0.5,13.8l-2.7,82.4l-2,63
			l-10.5,1c-2.2,0.2-4.3,0.4-6.6,0.5l-13,0.7L379.6,480.5z"/>
		<path class="st0" d="M285.4,482.2c-2.4-0.9-4.5-1.7-6.6-2.5l-6.8-2.7l-6.9-71.5l-0.6-6.6c-2.1-21.6-4.2-43.9-6.4-65.8l0-0.1
			c-0.7-7.8-1.5-15.7-2.3-23.3l-1.4-13.2h30.2l4.6,48c2.6,26.9,5.2,54.6,7.9,81.9l6,62.5L285.4,482.2z"/>
		<path class="st0" d="M439.7,403.1l0.7-6.9c2-21.5,4.2-43.7,6.3-65.6l3.4-34.3h29.8l-0.9,12.9c-0.6,8.3-1.5,16.6-2.4,24.5
			c-0.5,4.3-0.9,8.7-1.4,13l-0.1,0.8c-2.5,26.6-5.2,54.1-7.8,81.2c-0.6,6.8-1.3,13.7-2,20.5c-0.7,6.8-1.3,13.6-2,20.5l-0.7,7.1
			l-6.6,2.8c-1.9,0.8-4.1,1.6-6.8,2.6l-17.9,6.5L439.7,403.1z"/>
		<path class="st0" d="M271.6,476.1c-2.6-1.4-5.3-3-8-5l-4.4-3.1l-0.6-5.4c-2.4-22.6-4.9-45.5-7.4-67.7c-1.4-13.2-2.9-26.3-4.3-39.4
			c-1.3-11.8-2.6-23.6-3.9-35.4l0-0.2c-0.3-3.2-0.7-6.5-1.1-10l-1.5-13.4l13.4-0.1h16.7l1.2,10.7c0.9,8.1,1.8,16.3,2.7,24.5
			c3.1,28.1,6.2,56.2,9.3,84.4c0.9,8.4,1.9,16.8,2.8,25.3c0.8,7.6,1.7,15.2,2.5,22.9l2.5,22.4L271.6,476.1z"/>
		<path class="st0" d="M445.7,464.2c1.2-11.2,2.5-22.4,3.7-33.7c1.4-12.7,2.8-25.5,4.2-38.2c1.4-13.2,2.9-26.3,4.3-39.4
			c1.3-11.8,2.6-23.5,3.9-35.3c0.3-3.6,0.7-7.1,1.1-10.6l1.2-10.7h30.3l-1.5,13.3c-0.5,4.2-1,8.4-1.5,12.4c-0.5,4-1,8.1-1.4,12.2
			c-3.1,28.1-6.2,56.2-9.3,84.4l-5.4,49.3l-4.2,3.1c-2.8,2.1-5.4,3.8-8.1,5.1l-19.9,10.4L445.7,464.2z"/>
		<path class="st0" d="M298.9,486.2c-0.8-0.2-1.7-0.5-2.5-0.7c-1.3-0.3-2.5-0.7-3.8-1.1l-7.8-2.3l-6.4-76.9l-6-72.6
			c-0.3-3.5-0.6-7.1-0.9-10.7c-0.3-4.2-0.7-8.3-1.1-12.4l-1.2-13.1h30.1l1,10.9c1,11.6,2,23.4,2.9,34.8l0.2,2.6
			c1.2,14.2,2.4,28.4,3.5,42.6c1.1,13.1,2.2,26.3,3.3,39.4l5.3,64.1L298.9,486.2z"/>
		<path class="st0" d="M426.3,403.3l6-72.6c0.3-3.9,0.6-7.8,1-11.7c0.3-3.9,0.6-7.7,0.9-11.6l0.9-11.1h29.8l-0.7,12.7
			c-0.5,8.1-1.2,16.3-1.9,24.2c-0.4,4.4-0.8,8.9-1.2,13.3c-1.2,14.2-2.4,28.4-3.5,42.7c-1.1,13.1-2.2,26.3-3.3,39.5
			c-0.6,7.8-1.3,15.7-1.9,23.6c-0.6,7.2-1.2,14.4-1.8,21.5l-0.6,8.1l-7.7,2.4c-2.4,0.8-4.7,1.4-6.9,1.9l-16.1,3.8L426.3,403.3z"/>
		<path class="st0" d="M327.3,491.3c-2.3-0.2-4.6-0.6-6.6-0.9L311,489l-0.5-9.8c-0.7-12.4-1.3-24.7-1.9-37.1
			c-0.6-12.3-1.2-24.7-1.9-37c-1.3-24.1-2.5-48.6-3.7-72.3l0-0.3c-0.1-2.7-0.3-5.4-0.4-8.1c-0.3-5.1-0.6-10.3-0.8-15.5l-0.5-12.5
			H331l0.7,11.2c0.6,9.4,1.1,18.9,1.5,28.1c0.1,3.1,0.3,6.1,0.4,9.2l4.2,82.2c0.8,16.8,1.6,33.3,2.6,51.7l0.7,14L327.3,491.3z"/>
		<path class="st0" d="M394.2,478.9c0.6-12.5,1.3-25,1.9-37.5c0.6-12.5,1.3-25,1.9-37.5c0.6-12.1,1.2-24.2,1.8-36.3
			c0.6-12.1,1.2-24.2,1.8-36.3l1.8-34.8h29.8l-0.4,12.4c-0.3,7.8-0.7,15.7-1.1,23.3c-0.3,4.6-0.5,9.3-0.8,14l-4.2,82.2
			c-0.5,8.5-0.9,17-1.3,25.4c-0.4,8.5-0.9,17-1.3,25.5l-0.5,9.7l-9.6,1.5c-1.1,0.2-2.3,0.3-3.5,0.5c-0.9,0.1-1.7,0.2-2.6,0.3
			l-14.5,2.2L394.2,478.9z"/>
		<path class="st0" d="M338.1,492.7l-1.6-88.2c-0.2-12.2-0.4-24.4-0.7-36.6c-0.2-12-0.4-23.9-0.6-35.9c-0.1-4-0.1-7.9-0.2-11.8
			c-0.1-4-0.2-7.9-0.2-11.9l-0.2-12.2h29.9l0.3,11.7c0.2,8.3,0.3,16.8,0.4,25c0.1,4.1,0.1,8.2,0.2,12.3l1.5,82.4
			c0.1,8.9,0.3,17.8,0.5,26.8c0.2,9,0.4,18,0.5,27l0.2,12.8L338.1,492.7z"/>
		<path class="st0" d="M366.8,479.9c0.5-24.8,1-50.5,1.4-75.8c0.2-12.1,0.4-24.3,0.7-36.4c0.2-12,0.4-24,0.6-36l0-0.1
			c0.1-4,0.2-7.9,0.2-11.9c0.1-3.9,0.2-7.9,0.2-11.8l0.3-11.7H400v12c0,7.9-0.2,15.9-0.4,23.6c-0.1,4.6-0.2,9.2-0.3,13.8l-1.5,82.4
			c-0.4,18.1-0.7,36.1-1,53.5l-0.2,10.7l-10.6,1.1c-1.7,0.2-3.4,0.2-4.8,0.3c-0.6,0-1.2,0-1.8,0.1l-12.8,0.6L366.8,479.9z"/>
		<path class="st0" d="M367.3,351.4c-41.6,0-81-8.2-110.8-23c-32.5-16.1-50.3-38.6-50.3-63.2s17.9-47.1,50.3-63.2
			c29.8-14.8,69.1-23,110.8-23c41.6,0,81,8.2,110.8,23c32.5,16.1,50.3,38.6,50.3,63.2s-17.9,47.1-50.3,63.2
			C448.3,343.2,408.9,351.4,367.3,351.4z"/>
		<path class="st0" d="M367.3,267.3c-26.5,0-51.6-5.2-70.7-14.7c-21.7-10.8-33.7-26.2-33.7-43.3c0-17.1,12-32.4,33.7-43.3
			c19.1-9.5,44.2-14.7,70.7-14.7c26.5,0,51.6,5.2,70.7,14.7c21.7,10.8,33.7,26.2,33.7,43.3c0,17.1-12,32.4-33.7,43.3
			C418.9,262.1,393.8,267.3,367.3,267.3z"/>
		
			<ellipse transform="matrix(0.2298 -0.9732 0.9732 0.2298 -47.1841 498.5803)" class="st0" cx="291.4" cy="279.1" rx="35.7" ry="35.7"/>
		<path class="st0" d="M432.1,314.8c-19.7,0-35.7-16-35.7-35.7s16-35.7,35.7-35.7c19.7,0,35.7,16,35.7,35.7S451.8,314.8,432.1,314.8
			z"/>
		
			<ellipse transform="matrix(0.2298 -0.9732 0.9732 0.2298 -12.0346 582.1938)" class="st0" cx="361.8" cy="298.7" rx="35.7" ry="35.7"/>
		<rect x="326" y="263" class="st0" width="71.5" height="47.7"/>
		<ellipse class="st0" cx="351.8" cy="280.8" rx="46.8" ry="35.5"/>
		<rect x="385.8" y="245.8" transform="matrix(0.866 -0.5 0.5 0.866 -75.4096 246.1095)" class="st0" width="71.5" height="35.9"/>
		<rect x="284.9" y="228" transform="matrix(0.5 -0.866 0.866 0.5 -77.0337 394.1312)" class="st0" width="35.9" height="71.5"/>
		<path class="st0" d="M291.4,303.6c-12,0-21.8-9.8-21.8-21.8s9.8-21.8,21.8-21.8s21.8,9.8,21.8,21.8S303.4,303.6,291.4,303.6z"/>
		<path class="st0" d="M433,303.6c-12,0-21.8-9.8-21.8-21.8S421,260,433,260s21.8,9.8,21.8,21.8S445,303.6,433,303.6z"/>
		<path class="st0" d="M-13,162.1"/>
		<path class="st0" d="M-18.4,154.3"/>
		<g>
			<g>
				<path class="st0" d="M143.7,289.6c-4,0-7.6-1-10.8-2.9c-7.5-4.5-9.1-11.6-11.2-20.6l-0.1-0.4c-1.3-5.4-5.1-21.2-6-24.5l-0.3,0
					c-1.9-10.3-4.2-23-7-38.2l-2.1-11l10.9-2.8c3.1-0.8,6.1-1.5,9-2.1c1.7-0.4,3.5-0.8,5.2-1.2l11-2.6l28.2,94.7l-7.5,4.9
					C158.5,285.9,151.3,289.6,143.7,289.6z"/>
				<g>
					<g>
						<path class="st0" d="M93.7,219.7c-5.6,0-10.4-1.3-14.5-4.1l-0.1-0.1c-4.5-3.1-10.2-9.4-11.8-21.7c-7.6-54.5-1.6-83.7-1.3-85
							c6.3-29.4,17.9-57.6,34.5-83.8l17.4-27.6l4.6,32.3c3.9,27.7,7.9,55.5,11.9,83.2c4,27.7,8,55.5,11.9,83.2l1.3,9.4l-8.9,3.5
							c-10.8,4.2-26.8,9.5-41.4,10.6C96.1,219.6,94.9,219.7,93.7,219.7z"/>
					</g>
					<path class="st0" d="M99.4,210.1c-4.4,0-8.4-1-12-2.9c-11.8-6.4-16.7-24.9-15.9-59.7c0.2-8.3,0.5-20.8,3-37.8
						c4.7-32,13.7-54.9,17.4-63.3c3.2-7.8,6.5-14.1,8.3-17.5l17.3-33l28.6,204.5l-10.8,2.4c-4.8,1.1-9.6,2.2-14.4,3.3
						c-4.8,1.1-9.7,2.2-14.6,3.3l-0.2,0C103.8,209.8,101.6,210.1,99.4,210.1z"/>
					<path class="st0" d="M121.8,197.2c-4.8,0-8.6-1.8-10.5-2.9l-0.3-0.2c-8.5-5.3-9.2-13.5-10.4-26c-0.3-3.4-0.7-7.6-1.3-12.6
						c-0.3-3-0.5-4.6-0.7-5.8c-0.2-1.6-0.3-2.5-0.5-5.1c-0.5-5.7-0.6-8.7-0.9-17.5c-0.1-2-0.1-4.4-0.2-7.2
						c-0.2-6.3-0.4-11.2-0.6-14.7c-0.2-2.1-0.3-3.8-0.4-5.4c-0.3-3.7-0.6-7-0.7-11.7l0-0.2c0-4,0.2-7.1,0.3-9.2l0.1-1.2
						c0.7-11.3,1.2-19.3,1.4-24.6c0.2-4,0.4-6.6,0.5-8.5c1.1-12.6,10.5-13.2,12.4-13.2c4.5,0,10.3,2.6,12.1,10
						c0.3,1.1,0.5,2.3,0.7,4.1c0.3,2.5,0.5,5.9,0.8,10.3c0.8,11.6,2.2,31.1,5.9,56c0.8,5.5,1.5,11,2.1,16.3c0.8,7.3,1.6,14.2,2.9,21
						c0.5,3,1.1,5.8,1.6,8.5c1.4,6.9,2.5,12.9,2.8,18c0.6,9.2-2.1,15.8-8,19.5C128.1,196.3,125,197.2,121.8,197.2z"/>
				</g>
			</g>
			<path class="st0" d="M144.8,289.5c-7,0-11-4.5-12.3-8.5h0c-0.8-2.3-1.1-5.2,0.2-8.3c-2.9-8.1-5.4-15.8-7.8-23.5
				c-4.5-14.6-8.4-28.9-11.6-42.4l-2.5-10.7l11-3.7c0.6-0.2,1.2-0.4,1.9-0.6c0.3-0.3,0.5-0.6,0.6-0.7l14.2-21.3l7.3,24.6
				c3.7,12.5,7.4,24.9,11.1,37.4c3.7,12.5,7.5,25.1,11.2,37.6l2.4,8.2l-7,5c-1.9,1.4-5,3.4-9.1,5l-0.2,0.1
				C152.6,288.2,148.5,289.5,144.8,289.5z"/>
		</g>
		<path class="st0" d="M133.5,280.3c-6.8,0-10.6-4.8-11.8-6.4l-0.1-0.2c-2.1-2.8-3.5-6-4.4-10l-0.1-0.3c-0.7-3.4-0.8-6.7-0.5-10.1
			l0.4-3.5l2.2-2.7c0.2-0.2,0.4-0.5,0.6-0.7l0.1-0.2c0.5-0.8,1-1.3,1.4-1.8c0.1-0.1,0.2-0.2,0.2-0.3l1.7-2.4l2.7-1.3
			c0.8-0.4,1.5-0.7,2.1-0.9c0.2-0.1,0.3-0.1,0.5-0.2l1.8-0.9l2-0.2c1.8-0.2,3.7-0.6,5.7-0.9c4.5-1.3,8.3-1.8,10.7-1.9l0.2,0
			c0.5,0,0.9,0,1.3,0c2.9,0,6.6,0.3,10.2,2.6c6,3.8,9.2,11,8.1,18c-0.9,6-4.7,9.8-6.4,11.1c-3.9,3.3-7.6,3.8-12.7,4.5l-1.1,0.1
			c-0.5,0.1-1.2,0.2-2,0.3c-2.2,4.5-6.3,7.6-11.2,8.2l-0.1,0C134.3,280.3,133.9,280.3,133.5,280.3z"/>
		<path class="st0" d="M-39,186.3"/>
		<g>
			<g>
				<path class="st0" d="M593.1,281.1c-5.2,0-10.3-0.9-15.1-2.6l-8-2.9l0.1-8.5c0.1-10.2,0.3-20.5,0.5-30.4l0-0.3
					c0.2-8.3,0.3-16.5,0.4-24.4c-0.8-4.6,0.6-9.2,3.9-12.5l0.2-0.2l0.2-0.2c2.6-2.4,6.1-3.7,9.7-3.7c2.3,0,4.6,0.6,6.7,1.6
					c0.1,0,0.2,0,0.3,0c1,0.1,2,0.2,3,0.3l11.5,1l-0.6,11.5c-0.4,8.7-0.1,17.5,1,26c1.3,9.5,3.5,19,6.6,28l4,11.6l-11.7,3.7
					C603.3,280.1,598.9,281.1,593.1,281.1z"/>
				<path class="st0" d="M586.6,278.9c-1.1,0-2.6,0-4.1-0.2l-10.7-1.2v-84l13.8,2.1c0.6,0.1,3.3,0.5,4,0.6l10.4,1.6l-1.7,81.1H586.6
					z"/>
				<path class="st0" d="M600.6,279.8h-7.8l-3-7.5c-1.4-3.4-2.6-6.9-3.8-10.5l0-0.1c-3.2-10.1-5.2-20.3-5.9-30.4l-2.1-21.7
					l-1.5-16.1l15.8,3.2c0.5,0.1,1,0.2,1.4,0.3c1,0.2,2.1,0.4,3.2,0.7l9.6,2.4l-0.5,9.9c-0.4,8.7-0.1,17.5,1,26
					c1.3,9.5,3.5,19,6.6,28l6.8,19.8L600.6,279.8z"/>
			</g>
			<g>
				<path class="st0" d="M629.3,226.7c-16.5,0-33.2-2.2-49.6-6.7l-8.7-2.4l-2.5-172.5l108.8-8.6l2.4,9.9
					c9.9,40.4,11.8,81.4,5.9,121.7c-2.4,16-6,31.7-10.6,46.6l-2.1,6.9l-7,1.4c-8.1,1.6-15.7,2.6-23.2,3.2
					C638.2,226.6,633.7,226.7,629.3,226.7L629.3,226.7z"/>
				<g>
					<path class="st0" d="M627.2,223.8c-16.1,0-32.2-2.2-47.8-6.6l-8.6-2.4l-2.4-169.6l105.7-8.4l2.4,10
						c9.4,40.1,11.3,80.2,5.6,119.4c-2.3,15.3-5.7,30.7-10.2,45.6l-2,6.8L663,220c-6.9,1.5-14.5,2.6-22.6,3.2
						C636,223.6,631.6,223.8,627.2,223.8C627.2,223.8,627.2,223.8,627.2,223.8z"/>
					<path class="st0" d="M634.4,206.3c6.4-24.7,10-49.7,10.8-74.5c0.8-25.3-1.2-50.7-6.1-75.7L636.6,43l13.3-1.1
						c2.5-0.2,5.1-0.4,7.7-0.6c2.3-0.2,4.6-0.3,7-0.5l10.4-0.8l2.3,10.1c6.1,26.8,8.8,54.6,7.9,82.5c-0.9,26.9-5,53.5-12.2,79.1
						l-2.3,8.2l-40.3,2.4L634.4,206.3z"/>
					<path class="st0" d="M643.2,58.5l-1.6-13.4h28c0,0,5.6,36.4,6.4,41.5l1.8,11.6l-29.1,5.1C648.6,103.3,643.9,64.1,643.2,58.5z"
						/>
					<path class="st0" d="M663.8,187.9c-27.7-10.7-55.5-21.4-83.3-32.1l-7.7-3v-30.7l16.3,6.3c14.1,5.4,28.1,10.9,42.2,16.3
						c14,5.4,27.9,10.8,41.9,16.2l9.4,3.6l-2,9.9c-0.1,0.6-0.2,1.2-0.3,1.9c-0.1,0.9-0.3,1.9-0.5,2.7l-2.8,14L663.8,187.9z"/>
					<path class="st0" d="M658.6,213.7c-15-5.6-30-11.1-45-16.6c-10.9-4-21.9-8-32.8-12.1l-7.8-2.9v-8.4c0-8.9,0-17.2-0.1-25.7
						l-0.2-17.7l16.5,6.4c27.5,10.7,55.2,21.4,82.8,32l9.9,3.8l-2.3,10.1c-0.9,4-1.8,8.1-2.7,12.2c-0.7,3.4-1.5,6.8-2.3,10.2
						l-3,13.4L658.6,213.7z"/>
				</g>
			</g>
		</g>
		<path class="st0" d="M603.3,270.3c-0.4,0-0.9,0-1.3-0.1l-0.1,0c-4.9-0.5-9-3.6-11.2-8.2c-0.8-0.1-1.6-0.2-2-0.3l-1.1-0.1
			c-5.1-0.7-8.8-1.2-12.7-4.5c-1.7-1.4-5.5-5.1-6.4-11.1c-1.1-7,2.2-14.2,8.1-18c3.6-2.3,7.3-2.6,10.2-2.6c0.4,0,0.8,0,1.3,0l0.2,0
			c2.4,0.1,6.2,0.6,10.7,1.9l0.1,0c1.9,0.3,3.7,0.6,5.5,0.9l2,0.3l1.8,0.9c0.1,0.1,0.3,0.1,0.5,0.2c0.5,0.2,1.3,0.5,2.1,0.9l2.7,1.3
			l1.7,2.4c0.1,0.1,0.2,0.2,0.2,0.3c0.4,0.4,0.9,1,1.4,1.8l0.1,0.2c0.2,0.2,0.4,0.4,0.6,0.7l2.2,2.7l0.4,3.5
			c0.4,3.4,0.2,6.7-0.5,10.1l-0.1,0.3c-0.9,3.9-2.3,7.2-4.4,10l-0.1,0.2C613.9,265.5,610.2,270.3,603.3,270.3
			C603.3,270.3,603.3,270.3,603.3,270.3z"/>
		<g>
			<g>
				<g>
					<path class="st0" d="M371.5,213.5c-15.2,0-27.1-4.6-32.8-7.4l-0.1,0c-24.9-12.2-31.2-27.8-33.3-32.9c-7.2-17.6-4.7-38.5,7-59
						c6-10.5,16.1-21.6,23.4-27.9l0.8-0.7c1.1-1,3.3-2.8,6.2-5.3c2-1.7,3.8-3.4,5.5-4.9c2.4-2.1,4.5-4,6.2-5.5l0.4-0.4l0.5-0.3
						c1.4-1,2.1-1.8,2.2-2.2l0.1-0.4c0.4-1.6,0.4-1.6,0-2.6l-0.1-0.2c-5.5-14.4-0.1-21.1,3.5-23.7c2.2-1.7,5-2.6,8-2.6
						c3.8,0,7.4,1.5,10.8,4.3l0.3,0.3c1.5,1.3,2.8,2.6,4.2,3.9c0.6,0.6,1.2,1.2,1.9,1.8l1.5,1.5l0.9,1.9c2.6,5.2,4.4,10.3,5.4,15.6
						c0.1,0.7,0.2,1.3,0.3,2c1.7-0.5,3.6-0.8,5.6-0.8c4.4,0,8.3,1.7,11,4.9l0.1,0.1c4.5,5.4,4.2,13.2-0.6,20.1
						c-0.1,1-0.1,1.9,0.1,2.8c0.1,0.5,0.4,1.1,0.9,1.9c0.6,1.2,1.4,2.6,1.9,4.6l0.1,0.3c0.9,3.6,1.6,5.1,2.8,7.6
						c1,2.2,2.3,4.9,3.8,9.2c8.3,22.9,7.1,45,7,47.6l0,0c-0.7,9.9-2.6,16.9-6.4,23.1l-0.1,0.1c-4.4,7.1-9.8,11.1-13.5,13.6
						c-12.7,8.6-25.7,9.2-31.9,9.5C374.1,213.4,372.8,213.5,371.5,213.5z"/>
				</g>
			</g>
			<g>
				<g>
					<path class="st0" d="M350.1,190.7c-13.2,0-27.7-11-33.8-25.5c-5.1-12.1-2.7-23.2-0.9-31.2l0.1-0.4c2.9-13,8.8-22,11.3-25.9
						l0.1-0.1c1.3-2,1.3-2,14.3-17.2l2.1-2.4c0,0,3.9-4.6,10.9-14c1.3-1.8,4.9-6.5,5.1-9.3c0-0.5-0.3-1.3-0.3-1.4l-0.3-0.6l-0.2-0.6
						c-0.2-0.6-0.4-1.2-0.6-1.8l-0.2-0.4c-4.9-12,0.8-17.2,4.2-19.2c1.9-1.1,4.2-1.8,6.5-1.8c8.4,0,15.9,8.5,18.9,14.2
						c3,5.7,3.2,11,3.6,17.7c0,0,0,1.3,0.1,1.8c0.1,2.6,0.2,5.3-0.1,8.8c-0.5,6.5-2,12.9-4.4,19.4c-3,7.9-5.7,13-12.4,25.3l-1.9,3.5
						c-7.8,14.2-8.8,16.3-9.4,20c-0.8,5-0.7,7.2-0.4,8.2c0.2,0.1,0.4,0.2,0.6,0.3c2.2,1.2,8,4.3,9,11.6c1.4,9.7-6.8,17.6-15.2,20.2
						C354.6,190.3,352.4,190.7,350.1,190.7z"/>
				</g>
			</g>
			<g>
				<g>
					<path class="st0" d="M340.2,146.3c-4.3,0-10.2-1.9-14.4-10.7l-0.2-0.4l-0.2-0.5c-1.9-4.7-1.8-9.7,0.2-18l0.1-0.4
						c1.3-4.9,2.1-8.2,4-11.8c1.4-2.9,3.8-5.5,9.4-11.8l1.2-1.3c2-2.2,3.2-3.6,4.7-5.4l1.4-1.6l0.9-1.2c1.1-1.4,2.1-2.6,2.7-3.4
						l0.1-0.1c0.4-0.5,0.9-1.3,1.5-2.1c0.8-1.1,1.7-2.4,2.8-3.8c1.1-1.5,2-2.6,2.6-3.4c0.2-1.1,0.4-2.4,0.6-3.5
						c0.1-0.5,0.3-1.8,0.3-2.3c0-0.2-0.1-0.4-0.1-0.4l-0.3-0.7l-0.2-0.7c-0.3-0.9-0.5-1.8-0.8-2.7c-0.2-0.7-0.4-1.5-0.6-2.3l-0.3-1
						l-0.1-1c-1.1-9.9,4.2-14,6.9-15.5l0,0c1.9-1,4-1.5,6.1-1.5c9.4,0,16.1,10,18.4,15.3c1.8,4.3,2.3,8.3,2.4,12.8l0,0.3
						c0.1,2.1,0.2,4.3,0,7.2c-0.2,3.1-1,8-3.1,14.1c-1.9,5.6-5.8,14-13.1,22.1c-2.9,3.2-4.9,4.8-6.4,6c-1.2,1-1.9,1.5-3.4,3.3
						c-3.3,4.1-5.8,8.5-6,8.9c-1.1,2.1-1.8,3.9-2.5,5.5c-1.7,4.1-5,11.7-13.8,12.1l-0.3,0H340.2z"/>
				</g>
			</g>
			<g>
				<g>
					<path class="st0" d="M344.2,168.7c-2.5,0-5-0.7-7.1-1.9l-0.2-0.1l-0.2-0.2c-7.6-5.1-6.2-13.6-5.2-19.3
						c0.9-5.2,1.4-8.3,2.7-11.5c3.9-9.8,9.3-14.8,16-14.8c1.4,0,2.8,0.2,4.1,0.7c4.2,1.4,10.7,6,8,19.9l-0.1,0.4l-0.1,0.4
						c-0.4,1.7-0.9,2.7-1.4,3.7c-0.2,0.4-0.3,0.6-0.5,1.1l-0.1,0.3l-0.1,0.3c-0.2,0.5-0.9,2.6-1.4,5l0,0.2c-0.2,0.8-0.2,1.5-0.3,2
						c-0.4,2.8-1.3,9.2-7.7,12.4C348.7,168.2,346.5,168.7,344.2,168.7z"/>
				</g>
			</g>
			<g>
				<g>
					<path class="st0" d="M343.3,202.3c-2.6,0-5-0.3-7.4-0.8l-0.1,0c-3-0.7-5.1-1.6-7-2.5l-0.6-0.3c-2.4-1.1-5.7-2.7-9.2-5.7
						l-0.2-0.2c-1.6-1.5-2.8-2.8-4.1-4.4c-1.8-2.2-3.5-4.3-4.4-5.9c-2.6-4-4.1-7.4-4.8-9.1l-0.2-0.5l-0.3-0.8
						c-0.6-1.7-1.8-5-2.6-9.2c-0.4-2-1-5.9-1-11.1c0-4.3,0.5-7.7,0.9-9.9c0.8-5.6,2.2-9.8,3-12.1l0.2-0.5c0.4-1.3,2-5.8,4.9-11.5
						c0.6-1.2,2.4-4.5,5.1-8.7l0.1-0.1c3.8-5.6,7.1-9.5,9.3-12l0.1-0.2c4.5-5.1,8.3-8.5,10.6-10.6c1.4-1.3,2.1-1.8,3-2.6
						c1-0.8,2.4-1.9,5.9-5c3.4-3,4.8-4.3,5.7-5.1c1.1-1,1.7-1.5,3-2.5c0.5-0.4,1-0.8,1.5-1.2c1.3-1,1.6-1.2,1.9-1.6
						c0.8-0.9,1.2-2,1.6-2.9l23.1,4.5c0,2.9-0.4,5.8-1.3,8.8c-1.9,6.8-5.4,10.6-10.7,16.3c-1.3,1.4-2.9,3.1-4.7,5.1
						c-1.2,1.4-2.4,2.7-3.5,4.1c-0.9,1.1-1.8,2.2-2.8,3.2c-2.6,3-4.1,4.7-5.1,5.9c-1.2,1.3-1.5,1.7-2,2.3l-0.1,0.2
						c-2.5,3.1-4.3,5.4-6.2,8.6l-0.1,0.1c-2.1,3.5-3.3,6.7-4,8.5l-0.2,0.6c-1.3,3.6-1.8,6.4-2.3,8.7l-0.1,0.8
						c-0.3,1.9-0.6,3.4-0.7,5.4c-0.3,3.8-0.3,5,0.2,6.4l0.1,0.2c0.3,0.8,0.8,1.6,2.3,3.7l0.5,0.7c1.2,1.7,1.7,2.3,2.5,3.1
						c0.5,0.4,0.7,0.6,1.4,1c1,0.7,2.4,1.6,4.5,3.3c0.8,0.6,1.3,1.1,1.8,1.5c1.7,0.4,4.9,1.1,8.1,3.8l0.4,0.3l0.3,0.3
						c5.4,5.2,5.7,10.8,5.4,13.6l0,0.3c-0.8,6.5-5.4,10-6.9,11.2l-0.3,0.2l-0.2,0.1c-5.1,3.6-10.3,3.9-12.5,4l-0.3,0L343.3,202.3z"
						/>
				</g>
			</g>
			<g>
				<g>
					<path class="st0" d="M390.9,193c-0.6,0-1.2,0-2-0.1c-0.4,0-0.8,0-1.4-0.1c-0.4,0-0.7,0-1,0c-0.4,0-0.6,0-0.9,0
						c-0.5,0-0.9,0-1.3,0c-0.4,0-0.9,0-1.5-0.1l-0.2,0c-2.1-0.1-6-0.4-10.4-2.1l-0.1-0.1c-5.3-2.2-8.7-5.5-10.1-7l-0.3-0.3
						c-3.5-3.6-5.3-7.3-5.9-8.6l-0.2-0.5l-0.2-0.4c-0.7-1.6-1-3-1.3-4c-0.1-0.3-0.1-0.6-0.2-0.9l-0.1-0.4c0,0-0.2-1-0.3-1.3
						c-0.4-1.9-1-4.6-1.1-7.9c-0.1-3.2,0.4-5.6,1.1-8.5l0.2-1c0.8-3.5,1.4-6,2.7-8.9c1.6-3.6,3.5-6.2,4.9-8l0.1-0.2l0.6-0.7
						c0.8-1,1.9-2.4,3.5-3.9c1.3-1.3,3.4-3.1,6.4-4.6c2.8-1.5,5.8-2.4,8.9-2.6c-0.3-1-0.6-1.8-0.7-2.3c-0.5-1.7-0.7-2.4-1-3.5
						c-0.8-3.6-1-6.4-1.2-8.2c-0.1-2.1-0.1-3.3-0.1-4.4c0-0.9,0.1-2,0-4.2l0-0.2c0-1.3,0-2.1-0.1-2.7c0-1.2-0.1-2.4,0.1-4.3l0-0.1
						c0.6-4.3,1.7-7.4,2.3-8.9c0.9-2.3,2.3-5.2,5-8.1l0.1-0.1l0.2-0.2c1.4-1.4,5.2-5.3,11.4-6.1l0.8-0.1h0.5c0.3,0,0.8,0,1.2,0
						c5.9,0,11,3.1,13.4,8c2.4,4.5,1.4,8.9,1,10.5l-0.1,0.4l-0.1,0.2c-0.9,3.3-2.4,5.5-3,6.5l-0.1,0.1c0,0.1-0.2,0.6-0.7,2.3
						l-0.1,0.3c-0.3,0.9-0.5,1.6-0.5,2.1c0.2,0.9,0.7,2.3,1.1,3.7l0.1,0.2c0.6,2,0.8,2.6,1.2,3.9l0.5,1.5l0,0.2
						c0.2,0.7,0.4,1.6,0.7,2.6c0.3,1,0.6,2.2,1,3.9l0.1,0.5c0.8,3,1.4,5.3,2.1,8.6c0.1,0.3,0.1,0.6,0.2,0.9c0.3,1.1,0.6,2.4,0.9,4.2
						c0.9,4,1.3,6,1.5,8c0.2,1.8,0.1,2.9,0.1,4c0,0.9-0.1,1.9,0,4.3l0,0.2c0,1.3,0,1.7,0.1,2c0.1,0.8,0.1,1.6,0,2.9
						c-0.1,2.6-0.4,4.3-0.7,6c-0.1,0.8-0.3,1.8-0.5,3.1l0,0.2c-0.2,1.3-0.2,1.8-0.3,2.2c-0.1,1-0.1,2.1-0.5,3.9
						c-0.8,4.4-1.9,7.6-2.6,9.7c-0.9,2.4-1.5,4.1-2.8,6.4l-0.1,0.2l-0.3,0.4c-1.3,2.1-3.7,5.9-8.5,8.7l-0.3,0.2
						c-3.1,1.7-6.1,2.3-8,2.6C392.9,192.9,391.9,193,390.9,193C390.9,193,390.9,193,390.9,193z"/>
				</g>
			</g>
			<g>
				<g>
					<path class="st0" d="M378.4,211.5c-4.9,0-7.6-0.3-10.3-1.3c-7.9-2.6-12.5-7.1-13.5-13.4c-0.8-4.9,1-10.2,4.3-13.6
						c4.7-4.9,10.5-5.1,13.6-5.2c1.1,0,2.1-0.1,3.3-0.2c0.7-0.1,2.4-0.8,4.9-1.9l1.3-0.5c3.9-1.6,4.9-2.2,5.8-2.9
						c0.9-0.8,1.6-1.9,2.1-2.7l0.1-0.2c0.7-1.2,1.1-2.3,1.7-3.6l0.1-0.2c1.1-3,1.4-5,1.4-5l0-0.3l0.1-0.3c0.1-0.6,0.1-0.7,0.2-1.7
						c0.1-0.8,0.2-1.7,0.3-3.2c0.3-2.8,0.6-4.3,0.7-5.3c0.1-0.9,0.2-1.4,0.3-2.5c0.5-4.9,0-8.5,0-8.9l0-0.3c-0.1-1.1-0.4-2.6-1.3-6
						l-0.3-1.5c-0.5-2.4-1-4.5-1.8-7.8l0-0.1c-0.6-2.6-1.1-4.2-1.5-5.7c-0.2-0.7-0.3-1.3-0.5-1.9c-0.4-1.2-0.7-2.3-2.1-6.9
						c-1.2-4-1.5-5-1.8-6.7l-0.1-0.5l0-0.5c-0.2-2.8-0.1-7.2,1.8-12.5l23.3,4.1c0,0.1,0,1,0.3,2.3c0,0.2,0.1,0.3,0.4,1.1
						c0.3,0.8,0.7,1.9,1.2,3.6c0.5,1.5,0.7,2.3,0.9,2.9c0.1,0.5,0.2,0.8,0.5,1.6l0,0.1c0.8,2.3,1.5,4.1,2.2,5.8l0.2,0.6
						c0.5,1.3,0.9,2,1.2,2.7c0.5,1.1,1.1,2.2,1.9,4.4c0.8,2.1,1.6,4.2,2.2,6.2l0.1,0.4c0.4,1.4,1.4,4.7,2.4,9.1l0.2,0.9
						c0.3,1.3,0.8,3.8,1.3,6.8c0,0,0.1,0.8,0.2,1.1c0.1,1.1,0.4,2.7,0.6,4.6c0.5,3.7,0.6,6.8,0.7,8.7l0.1,1.3v0.4c0,0.4,0,0.8,0,1.4
						c0,1.2,0.1,2.7,0.1,4.4l0,1.5c-0.1,4.1-0.2,7.4-0.9,11.2l0,0.2c-1,4.9-2.7,9.1-3.9,11.4c-2.3,4.4-5.6,8.8-9.5,12.3
						c-3.9,3.6-7.4,5.6-9.8,7l-0.3,0.2c-2.7,1.5-6.1,3.4-10.9,4.4c-2.5,0.5-5.3,0.6-9.1,0.7C381.1,211.4,379.6,211.5,378.4,211.5z"
						/>
				</g>
			</g>
			<g>
				<g>
					<path class="st0" d="M400.8,164.4c-1.4,0-2.8-0.2-4.2-0.7l-0.8-0.3L395,163c-5.6-2.8-7-8.3-7.6-10.4c-0.8-3.1-1-5.2-1-5.8
						l0-0.3c-0.1-2.9,0-4.7,0-6c0-0.6,0.1-1,0.1-1.5c0-0.1,0-0.2,0-0.3c-0.1-0.9-0.2-2.2-0.6-3.6c-0.1-0.2-0.1-0.4-0.3-0.8
						c-0.3-0.7-0.7-1.8-1.4-3.8c-0.9-2.3-1.6-3.9-2.2-5.9l-0.4-1.2c-0.7-2.1-1.4-4.1-2.1-6.7l0-0.2c-0.1-0.4-0.2-0.8-0.3-1.2
						c-0.3-1.4-0.7-2.9-1-5l0-0.1c-0.2-1.7-0.3-3.1-0.3-4.9l-0.1-1.4c-0.1-3.2-0.1-5.8,0-9.3l0-0.3c0.2-3.3,0.5-5.8,0.9-7.6l0-0.2
						c0.4-1.6,1-4.4,2.9-7.6c1.2-2.3,3.2-4.7,5.5-6.6l0.4-0.3c1.6-1.3,4.4-3.7,8.8-4.4c0.9-0.2,2-0.3,3-0.3c5.2,0,9.8,2.3,12.6,6.2
						c2,2.9,2.8,6.3,2.4,10.3V85l-0.5,1.7c-1.1,3.4-3,5.5-4.1,6.6c-0.1,0.2-0.6,1.4-0.7,1.8l-0.4,0.9c-0.1,0.3-0.2,0.6-0.3,0.8
						c0,0.1,0,0.3,0,0.5c0,0.1,0,0.1,0.1,0.2c0.2,0.6,0.5,1.4,0.9,2.8l0.1,0.4c0.3,1,0.4,1.6,0.5,2.2c0.1,0.6,0.2,1,0.6,2.2l0.1,0.2
						l0.1,0.2c0.1,0.2,0.2,0.6,0.3,1c0.3,1,0.7,2.5,1,3.8c1,3.6,1.4,6.4,1.7,7.8l0,0.2c0.3,1.8,0.4,2.3,0.8,6.1l0.2,1.4
						c0.3,2.3,0.4,3.7,0.6,5.1c0.1,1.2,0.3,2.3,0.5,3.9l0,0.4l0.1,1c0.2,1.9,0.4,4,0.4,6.4c0,2.3-0.2,4-0.5,6.5l0,0.3
						c-0.4,2.4-1,6.2-4,9.7C409,162.3,404.9,164.4,400.8,164.4C400.8,164.4,400.8,164.4,400.8,164.4z"/>
				</g>
			</g>
		</g>
	</g>
	<g>
		<path class="st1" d="M705.6,231l-50.9-29.4c-49.2,81.8-159.6,138.8-287.8,138.8c-128,0-238.1-56.8-287.5-138.3l-50,28.9v390.5
			l338.1,195.2l338.1-195.2V231z"/>
		<path class="st1" d="M366.9,340.4c128.2,0,238.6-57,287.8-138.8L367.5,35.8l0,0L79.4,202.2C128.8,283.7,238.9,340.4,366.9,340.4z"
			/>
		
			<linearGradient id="SVGID_1_" gradientUnits="userSpaceOnUse" x1="367.05" y1="-188.83" x2="367.05" y2="280.44" gradientTransform="matrix(1 0 0 1 0 60)">
			<stop  offset="0" style="stop-color:#FFFFFF;stop-opacity:0.83"/>
			<stop  offset="0.56" style="stop-color:#FFFFFF;stop-opacity:0.37"/>
			<stop  offset="1" style="stop-color:#FFFFFF;stop-opacity:0"/>
		</linearGradient>
		<path class="st2" d="M366.9,340.4c128.2,0,238.6-57,287.8-138.8L367.5,35.8l0,0L79.4,202.2C128.8,283.7,238.9,340.4,366.9,340.4z"
			/>
		<path class="st3" d="M734.9,637.4V213.1l-29.3-16.9L427.8,35.8L367.5,1l-60.3,34.8L29.4,196.2L0.1,213.1v424.2l29.3,16.9
			l281.3,162.4l56.9,32.8l56.9-32.8l281.3-162.4L734.9,637.4z M29.4,621.5V231l50-28.9L367.5,35.8l0,0l287.2,165.8l50.9,29.4v390.5
			L367.5,816.7L29.4,621.5z"/>
		<path class="st4" d="M58.8,289.5c0.3-0.3,0.6-0.6,0.9-0.9h-0.2C59.3,289,59.1,289.2,58.8,289.5z"/>
		<path class="st4" d="M367,633.9c0.3-0.3,0.6-0.6,0.9-0.9h-0.3C367.5,633.3,367.3,633.6,367,633.9z"/>
		<path class="st3" d="M157.3,591.5c0-9.1-0.2-17-0.6-24.2H169l0.5,15.2h0.6c3.5-10.4,12-17,21.4-17c1.3,0,2.7,0.1,4,0.5v13.3
			c-1.6-0.3-3.2-0.5-4.8-0.5c-9.9,0-17,7.5-18.9,18.1c-0.4,2.2-0.6,4.4-0.6,6.6v41.3h-13.9V591.5z"/>
		<path class="st3" d="M210.7,608.6c0.3,19,12.5,26.9,26.6,26.9c10.1,0,16.2-1.8,21.4-4l2.4,10.1c-5,2.2-13.4,4.8-25.8,4.8
			c-23.8,0-38.1-15.7-38.1-39s13.8-41.8,36.3-41.8c25.3,0,32,22.2,32,36.5c0,2.2-0.2,4.4-0.5,6.6L210.7,608.6z M252,598.5
			c0.2-9-3.7-22.9-19.5-22.9c-14.2,0-20.5,13.1-21.6,22.9H252z"/>
		<path class="st3" d="M333.1,641.9c-3.7,1.9-11.8,4.5-22.2,4.5c-23.4,0-38.6-15.8-38.6-39.5c0-23.8,16.3-41.1,41.6-41.1
			c8.3,0,15.7,2.1,19.5,4l-3.2,10.9c-3.4-1.9-8.6-3.7-16.3-3.7c-17.8,0-27.4,13.1-27.4,29.3c0,17.9,11.5,29,26.9,29
			c6,0,11.9-1.3,17.3-3.8L333.1,641.9z"/>
		<path class="st3" d="M360.1,545.6c0.2,4.8-3.4,8.6-9,8.6c-4.6,0.1-8.4-3.6-8.5-8.3c0-0.1,0-0.3,0-0.4c-0.1-4.7,3.6-8.7,8.4-8.8
			c0.1,0,0.3,0,0.4,0C356.8,536.8,360.1,540.6,360.1,545.6z M344.5,644.8v-77.4h14.1v77.4H344.5z"/>
		<path class="st3" d="M376.8,592.6c0-9.9-0.3-17.9-0.6-25.3h12.6l0.6,13.3h0.3c5.8-9.4,14.9-15,27.5-15c18.7,0,32.8,15.8,32.8,39.4
			c0,27.8-17,41.6-35.2,41.6c-10.2,0-19.2-4.5-23.8-12.2h-0.3v42.1h-13.9V592.6z M390.7,613.2c0,1.9,0.3,3.9,0.6,5.8
			c2.4,9.7,11.1,16.5,21.1,16.5c14.9,0,23.5-12.2,23.5-29.9c0-15.5-8.2-28.8-23-28.8c-9.6,0-18.6,6.9-21.3,17.4
			c-0.6,1.9-0.9,3.8-1,5.8L390.7,613.2L390.7,613.2z"/>
		<path class="st3" d="M470.5,608.6c0.3,19,12.5,26.9,26.6,26.9c10.1,0,16.2-1.8,21.4-4l2.4,10.1c-5,2.2-13.4,4.8-25.8,4.8
			c-23.8,0-38.1-15.7-38.1-39s13.8-41.8,36.3-41.8c25.3,0,32,22.2,32,36.5c0,2.2-0.2,4.4-0.5,6.6L470.5,608.6z M511.8,598.5
			c0.2-9-3.7-22.9-19.5-22.9c-14.2,0-20.5,13.1-21.6,22.9H511.8z"/>
		<path class="st3" d="M535.8,630.4c5.6,3.5,12,5.4,18.6,5.6c10.2,0,15-5.1,15-11.5c0-6.7-4-10.4-14.4-14.2
			c-13.9-5-20.5-12.6-20.5-21.9c0-12.5,10.1-22.7,26.7-22.7c6.6-0.1,13.2,1.6,19,4.8l-3.5,10.2c-4.8-2.9-10.2-4.5-15.8-4.5
			c-8.3,0-13,4.8-13,10.6c0,6.4,4.6,9.3,14.7,13.1c13.4,5.1,20.3,11.8,20.3,23.4c0,13.6-10.6,23.2-29,23.2c-8.5,0-16.3-2.1-21.8-5.3
			L535.8,630.4z"/>
		<path class="st3" d="M365.5,797.3l4.5,4.5c1,1,1.9,1.9,2.7,2.9h0.1c-0.4-1.2-0.7-2.5-1-3.8l-1.4-6.3l1.6-0.9l4.7,4.3
			c1.1,1,2.1,2,2.9,2.9h0.1c-0.5-1.3-0.9-2.6-1.2-3.9l-1.6-6.1l1.9-1.1l2.7,12.4l-1.7,1l-4.5-4.1c-1-1-2-1.8-2.9-2.9l0,0
			c0.4,1.3,0.8,2.6,1.1,4l1.2,6l-1.7,1l-9.2-8.6L365.5,797.3z"/>
		<path class="st3" d="M381.7,787.9l4.5,4.5c1,1,1.9,1.9,2.7,2.9h0.1c-0.4-1.2-0.7-2.5-1-3.8l-1.4-6.3l1.6-0.9l4.7,4.3
			c1.1,1,2.1,2,2.9,2.9h0.1c-0.5-1.3-0.9-2.6-1.2-3.9l-1.6-6.1l1.9-1.1l2.7,12.4l-1.7,1l-4.5-4.1c-1-0.9-2-1.9-2.9-2.9l0,0
			c0.4,1.3,0.8,2.6,1.1,4l1.2,6l-1.7,1l-9.3-8.7L381.7,787.9z"/>
		<path class="st3" d="M397.8,778.5l4.5,4.5c1,1,1.9,1.9,2.7,2.9h0.1c-0.4-1.2-0.7-2.5-1-3.8l-1.4-6.3l1.6-0.9l4.7,4.3
			c1.1,1,2.1,2,2.9,2.9h0.1c-0.5-1.3-0.9-2.6-1.2-3.9l-1.6-6.1l1.9-1.1l2.7,12.4l-1.7,1l-4.5-4.1c-1-0.9-2-1.9-2.9-2.9l0,0
			c0.4,1.3,0.8,2.6,1.1,4l1.2,6l-1.7,1l-9.2-8.6L397.8,778.5z"/>
		<path class="st3" d="M417.1,779.7c-0.4-0.7-0.1-1.6,0.6-2s1.6-0.1,2,0.6c0.4,0.7,0.1,1.6-0.6,2
			C418.5,780.8,417.6,780.5,417.1,779.7C417.2,779.8,417.1,779.8,417.1,779.7z"/>
		<path class="st3" d="M418.5,770.8c-0.7-1.2-1.4-2.3-2-3.2l1.7-1l1.2,2h0.1c-0.4-1.5,0.2-3.2,1.6-4c0.2-0.1,0.4-0.2,0.6-0.2l1,1.8
			c-0.2,0.1-0.5,0.2-0.7,0.3c-1.3,0.8-1.8,2.5-1.1,3.9c0.1,0.3,0.3,0.6,0.4,0.9l3.2,5.6l-1.8,1.1L418.5,770.8z"/>
		<path class="st3" d="M428.4,772.1c1,0,2-0.2,2.9-0.7c1.4-0.8,1.6-1.9,1.1-2.7s-1.4-1.1-3.1-0.8c-2.3,0.4-3.8-0.1-4.5-1.3
			c-1-1.7-0.4-3.9,1.8-5.2c0.9-0.5,1.9-0.8,3-0.8l0.3,1.7c-0.9,0-1.7,0.2-2.5,0.6c-0.9,0.3-1.3,1.4-1,2.3c0,0.1,0,0.1,0.1,0.2
			c0.5,0.9,1.4,0.9,3,0.6c2.2-0.4,3.7,0,4.6,1.5c1.1,1.8,0.4,4-2.1,5.4c-1,0.6-2.2,1-3.4,1L428.4,772.1z"/>
		<path class="st3" d="M432.8,754.1l1.8,3l2.7-1.6l0.8,1.4l-2.7,1.6l3.3,5.6c0.8,1.3,1.5,1.8,2.6,1.2c0.4-0.2,0.7-0.5,1-0.8l0.9,1.4
			c-0.4,0.5-0.9,0.9-1.5,1.2c-0.7,0.5-1.7,0.6-2.5,0.4c-1-0.5-1.9-1.3-2.3-2.3l-3.3-5.7l-1.6,0.9l-0.8-1.4l1.6-1l-1.5-2.5
			L432.8,754.1z"/>
		<path class="st3" d="M452.6,756.8c0.6,1.1,1.2,2,1.8,2.8l-1.7,1l-1.1-1.6l0,0c0,1.7-0.9,3.2-2.3,4c-1.6,1-4.1,1.2-6.3-2.5
			l-3.6-6.1l1.9-1.1l3.4,5.8c1.2,2,2.5,3,4.3,2c1.1-0.7,1.7-1.9,1.5-3.2c-0.1-0.4-0.2-0.7-0.4-1.1l-3.7-6.4l1.9-1.1L452.6,756.8z"/>
		<path class="st3" d="M457.5,737.2l7.4,12.6c0.5,0.9,1.2,2,1.6,2.7l-1.7,1l-1.1-1.8l0,0c0.1,1.7-0.8,3.3-2.4,4.1
			c-2.5,1.5-5.7,0.5-7.6-2.7c-2-3.5-1.1-6.9,1.4-8.3c1.2-0.8,2.8-0.9,4.1-0.2l0,0l-3.6-6.2L457.5,737.2z M460.9,747.5
			c-0.2-0.3-0.3-0.5-0.5-0.8c-1-1.1-2.7-1.4-4-0.6c-2,1.1-2.1,3.5-0.8,5.9c1.2,2.1,3.3,3.3,5.3,2.1c1.3-0.8,2-2.4,1.5-3.9
			c-0.1-0.3-0.2-0.6-0.4-0.9L460.9,747.5z"/>
		<path class="st3" d="M463.9,736.1c0.4,0.6,0.2,1.5-0.5,1.9c-0.6,0.4-1.5,0.2-1.9-0.5c-0.4-0.6-0.2-1.5,0.4-1.8c0,0,0,0,0.1,0
			c0.6-0.4,1.4-0.2,1.8,0.4C463.8,736,463.9,736,463.9,736.1z M469.6,750.7l-6.1-10.5l1.9-1.1l6.1,10.5L469.6,750.7z"/>
		<path class="st3" d="M481,736.9c2.3,3.9,0.6,7.1-2,8.6c-2.8,1.6-6.2,0.8-8.1-2.5c-2-3.5-0.9-6.9,2-8.6S479.1,733.8,481,736.9z
			 M472.8,741.9c1.3,2.3,3.7,3.2,5.5,2.2s2.2-3.6,0.8-5.9c-1-1.8-3.2-3.5-5.5-2.2S471.6,739.9,472.8,741.9L472.8,741.9z"/>
		<path class="st3" d="M484.9,740.3c-0.5-0.7-0.3-1.6,0.4-2c0,0,0.1,0,0.1-0.1c0.8-0.4,1.7-0.2,2.1,0.6s0.2,1.7-0.6,2.1l0,0
			C486.2,741.3,485.3,741.1,484.9,740.3C484.9,740.4,484.9,740.3,484.9,740.3z"/>
		<path class="st3" d="M497.7,733.8c-0.7,1-1.6,1.8-2.6,2.3c-3.2,1.8-6.5,0.9-8.3-2.3c-1.8-2.8-1-6.6,1.8-8.5
			c0.2-0.1,0.4-0.2,0.6-0.3c0.9-0.5,1.9-0.9,3-1l0.4,1.7c-0.9,0-1.7,0.3-2.5,0.8c-2.4,1.4-2.7,3.9-1.4,6.1c1.4,2.4,3.8,3,5.9,1.8
			c0.8-0.5,1.5-1.1,2-1.9L497.7,733.8z"/>
		<path class="st3" d="M506.4,722.2c2.2,3.9,0.5,7.1-2,8.6c-2.8,1.7-6.2,0.8-8.1-2.5c-2-3.5-0.9-6.9,2-8.6S504.5,719,506.4,722.2z
			 M498.1,727.1c1.3,2.3,3.6,3.2,5.5,2.2s2.2-3.5,0.8-5.9c-1-1.8-3.2-3.5-5.5-2.2S497,725.1,498.1,727.1z"/>
		<path class="st3" d="M507.4,718.5c-0.6-1.1-1.2-2-1.7-2.8l1.7-1l1.1,1.6h0.1c-0.1-1.6,0.8-3.1,2.2-3.8c1.3-0.8,3-0.6,4.2,0.4l0,0
			c0-0.7,0.1-1.4,0.4-2c0.4-0.9,1-1.6,1.9-2.1c1.4-0.8,4-1.1,6.1,2.5l3.6,6.2l-1.9,1.1l-3.5-5.9c-1.2-2-2.6-2.8-4.1-1.9
			c-1,0.6-1.5,1.8-1.2,3c0.1,0.4,0.2,0.7,0.4,1l3.8,6.5l-1.8,1.1l-3.6-6.3c-1-1.7-2.4-2.5-3.9-1.6c-1.1,0.7-1.6,2-1.2,3.3
			c0.1,0.4,0.2,0.7,0.4,1l3.7,6.3l-1.9,1.1L507.4,718.5z"/>
		<path class="st5" d="M304.2,474.8c-1.9,5.8-3.7,11.5-5.6,17.3c-2.9,9.1-5.9,18.2-8.9,27.4c-0.7,2.1-1.4,4.2-2,6.3
			c-0.8,3.2,1,6.5,4.2,7.4c3.2,0.8,6.4-1.1,7.4-4.2c1.9-5.7,3.7-11.5,5.6-17.3c3-9.1,5.9-18.2,8.9-27.4c0.7-2.1,1.4-4.2,2-6.3
			c0.8-3.2-1-6.5-4.2-7.4C308.4,469.8,305.2,471.7,304.2,474.8L304.2,474.8z"/>
		<path class="st5" d="M426,476.4c1.5,5.8,3,11.7,4.5,17.5c2.4,9.2,4.7,18.5,7.1,27.7l1.6,6.4c0.9,3.2,4.2,5.1,7.4,4.2
			c3.2-0.9,5.1-4.2,4.2-7.4c-1.5-5.8-3-11.7-4.5-17.5c-2.4-9.2-4.7-18.5-7.1-27.7c-0.5-2.1-1.1-4.3-1.7-6.4
			c-0.9-3.2-4.2-5.1-7.4-4.2C427,469.9,425.1,473.2,426,476.4z"/>
		<path class="st5" d="M132.9,256.4c0,11.5,2,22.9,5.9,33.8c4.1,11,9.9,21.3,17.3,30.5c7.3,9,15.9,16.9,25.5,23.4
			c10,6.8,20.9,12,32.4,15.7c12.1,3.9,24.6,6.1,37.3,6.5c1.6,0,3.2,0.1,4.8,0.1c3.3,0,6-2.7,6-6s-2.7-6-6-6c-3.1,0-6.2-0.1-9.2-0.3
			c-1.5-0.1-3-0.2-4.6-0.4c-0.7-0.1-1.5-0.2-2.2-0.3c-0.3,0-0.7-0.1-1-0.1c-1.3-0.2,1.2,0.2-0.1,0c-5.9-0.8-11.7-2.1-17.4-3.7
			c-2.8-0.8-5.7-1.7-8.4-2.7c-1.4-0.5-2.7-1-4-1.5c-0.3-0.1-0.6-0.2-0.9-0.4c-0.1-0.1-0.3-0.1-0.5-0.2c-0.6-0.2,0.7,0.3,0.7,0.3
			c-0.7-0.3-1.4-0.6-2.1-0.9c-5.1-2.3-10.1-4.9-14.9-7.9c-2.4-1.5-4.7-3.1-7-4.8c-0.5-0.4-1-0.7-1.5-1.1s-1.4-1.1,0.1,0.1
			c-0.3-0.2-0.6-0.5-0.9-0.7c-1.1-0.8-2.1-1.7-3.2-2.6c-4.2-3.6-8-7.4-11.6-11.5c-0.9-1-1.7-2-2.6-3.1c-0.4-0.5-0.8-1-1.1-1.5
			c-0.1-0.1,0.8,1.1,0.5,0.6c-0.1-0.2-0.2-0.3-0.4-0.5l-0.6-0.9c-1.6-2.1-3.1-4.3-4.5-6.6s-2.7-4.6-3.9-6.9
			c-0.6-1.2-1.2-2.5-1.8-3.7c-0.3-0.6-0.5-1.1-0.8-1.7c-0.1-0.3-0.2-0.5-0.4-0.8c-0.5-1.2,0.5,1.2,0,0c-2-4.9-3.6-10-4.8-15.2
			c-0.3-1.3-0.6-2.6-0.8-3.9c-0.1-0.6-0.2-1.3-0.3-2c0-0.3-0.1-0.6-0.1-0.9s0-0.3-0.1-0.5c-0.1-1,0,0.2,0.1,0.5
			c-0.4-2.7-0.6-5.4-0.7-8.1c-0.1-1.4-0.1-2.7-0.1-4.1c0.4-3.3-2-6.3-5.3-6.7s-6.3,2-6.7,5.3C132.9,255.5,132.9,255.9,132.9,256.4
			L132.9,256.4z"/>
		<path class="st5" d="M591.1,250.9c0,2.7-0.1,5.4-0.4,8.2c0,0.7-0.1,1.3-0.2,2c0,0.3-0.1,0.6-0.1,0.9s-0.2,1.7-0.1,0.6s0,0,0,0.3
			s-0.1,0.6-0.1,0.9c-0.1,0.7-0.2,1.4-0.4,2.1c-1,5.3-2.4,10.5-4.2,15.5c-0.5,1.2-0.9,2.5-1.4,3.7c-0.4,1,0.5-1.2,0.1-0.3l-0.4,0.8
			c-0.3,0.6-0.6,1.3-0.9,1.9c-1.1,2.4-2.3,4.8-3.7,7s-2.8,4.6-4.3,6.9c-0.7,1.1-1.5,2.2-2.3,3.2c-0.4,0.5-0.8,1-1.2,1.6
			c0,0.1,0.9-1.1,0.5-0.6l-0.3,0.4c-0.2,0.3-0.5,0.5-0.7,0.8c-3.4,4.2-7.1,8.2-11.1,11.9c-2,1.9-4.1,3.6-6.2,5.3
			c-0.2,0.2-1.2,0.9-0.4,0.3s-0.1,0.1-0.3,0.2l-1.8,1.3c-1.1,0.8-2.2,1.6-3.4,2.4c-4.7,3.2-9.6,6-14.7,8.5c-1.3,0.6-2.6,1.2-3.9,1.8
			l-1.8,0.8c-0.9,0.4,1.4-0.6,0.1,0l-1.1,0.4c-2.7,1.1-5.4,2.1-8.1,3c-5.6,1.8-11.4,3.3-17.2,4.3c-1.5,0.3-3,0.5-4.4,0.7
			s1.1-0.1,0,0c-0.3,0-0.7,0.1-1,0.1c-0.8,0.1-1.5,0.2-2.3,0.3c-3.1,0.3-6.2,0.5-9.3,0.6c-1.5,0-3.1,0.1-4.6,0.1c-3.3,0-6,2.7-6,6
			s2.7,6,6,6c12.8,0,25.6-1.8,37.9-5.2c11.7-3.3,22.9-8.3,33.2-14.8c9.9-6.2,18.8-13.8,26.5-22.5c7.7-8.9,13.9-18.9,18.4-29.8
			c4.4-10.6,6.8-21.8,7.3-33.3c0.1-1.4,0.1-2.8,0.1-4.3c0-3.3-2.7-6-6-6S591,247.6,591.1,250.9L591.1,250.9z"/>
		<path id="SVGID_6_" class="st6" d="M488.6,308.3l-17.3,141c0,17.9-46.6,32.4-104,32.4s-104-14.5-104-32.4l-17.3-141H488.6z"/>
		<path class="st5" d="M364.4,368.5v113.3h3h3V308.3h-6V368.5z"/>
		<path class="st5" d="M299.9,331.8c1.6,24.2,3.2,48.5,4.8,72.8l4.8,71.8c2,0.4,4,0.8,6.1,1.2c-1.1-16.7-2.2-33.4-3.3-50.1
			c-1.8-27.3-3.6-54.6-5.4-81.9c-0.8-12.4-1.5-24.8-2.5-37.2h-6C298.9,316.1,299.4,323.9,299.9,331.8z"/>
		<path class="st5" d="M428.8,331.8c-1.6,24.2-3.2,48.5-4.8,72.8c-1.6,24.3-3.2,48.6-4.9,73c2.1-0.4,4.1-0.8,6.1-1.2l3.2-48.9
			c1.8-27.3,3.6-54.6,5.4-81.9c0.8-12.4,2-24.8,2.5-37.2h-6C429.8,316.1,429.3,323.9,428.8,331.8z"/>
		<path class="st5" d="M332.1,331.9c0.8,24.1,1.6,48.2,2.4,72.4l2.5,76.1c2,0.2,4,0.4,6,0.5c-0.6-17.7-1.2-35.3-1.8-53
			c-0.9-27.5-1.8-54.9-2.7-82.4c-0.4-12.4-0.7-24.8-1.2-37.2h-6C331.6,316.2,331.9,324,332.1,331.9z"/>
		<path class="st5" d="M396.5,331.9c-0.8,24.1-1.6,48.3-2.4,72.4c-0.8,25.5-1.7,51.1-2.5,76.6c2-0.1,4-0.3,6-0.5l1.7-52.5l2.7-82.4
			c0.4-12.4,1.1-24.8,1.3-37.2h-6C397.1,316.2,396.8,324,396.5,331.9z"/>
		<path class="st5" d="M270.1,331.8c2.4,24.2,4.7,48.4,7,72.5l6.2,64.2c2,0.8,4,1.6,6.2,2.4c-1.4-14.5-2.8-29-4.2-43.5
			c-2.7-27.3-5.3-54.6-7.9-81.9c-1.2-12.4-2.4-24.8-3.6-37.2h-6C268.6,316.1,269.4,323.9,270.1,331.8z"/>
		<path class="st5" d="M466.9,308.3h-6l-2.3,23.5c-2.4,24.2-4.7,48.4-7,72.5l-6.5,66.5c2.2-0.8,4.3-1.6,6.2-2.4
			c1.3-13.7,2.7-27.3,4-41c2.7-27.3,5.3-54.6,7.9-81.9C464.4,333.2,466,320.8,466.9,308.3z"/>
		<path class="st5" d="M277.2,465.5c-1.8-16.1-3.5-32.2-5.3-48.2c-3.1-28.2-6.2-56.3-9.3-84.4c-0.9-8.2-1.8-16.4-2.7-24.5h-6
			c0.4,3.5,0.8,7,1.1,10.4c2.7,24.9,5.5,49.8,8.2,74.8c2.5,22.6,5,45.2,7.4,67.8C272.7,462.9,274.9,464.3,277.2,465.5z"/>
		<path class="st5" d="M468.8,417.3c3.1-28.2,6.2-56.3,9.3-84.4c0.9-8.2,2-16.4,2.9-24.6h-6.2c-0.4,3.5-0.8,7-1.1,10.5
			c-2.7,24.9-5.5,49.8-8.2,74.8c-2.6,24-5.3,48-7.9,71.9c2.3-1.2,4.4-2.6,6.4-4.1C465.6,446.7,467.2,432,468.8,417.3z"/>
		<path class="st5" d="M284.4,331.7l6,72.6c1.9,22.9,3.8,45.8,5.7,68.7c2,0.6,4,1.1,6.1,1.7c-1.3-15.6-2.6-31.2-3.9-46.8
			c-2.3-27.4-4.5-54.8-6.8-82.1c-1-12.4-2-24.9-3.1-37.3h-6C283.1,316.1,283.7,323.9,284.4,331.7z"/>
		<path class="st5" d="M444.3,331.7l-6,72.6l-5.8,70.3c2.1-0.5,4.2-1.1,6.1-1.7c1.2-15,2.5-30.1,3.7-45.2
			c2.3-27.4,4.5-54.8,6.8-82.1c1-12.4,2.4-24.9,3.1-37.3h-6C445.6,316.1,444.9,323.9,444.3,331.7z"/>
		<path class="st5" d="M315,331.9c1.2,24.2,2.4,48.4,3.7,72.6c1.3,24.7,2.5,49.4,3.8,74.1c2,0.3,4,0.6,6,0.8
			c-0.9-17.2-1.8-34.5-2.6-51.7l-4.2-82.2c-0.6-12.4-1.1-24.8-1.9-37.1h-6C314.1,316.2,314.6,324,315,331.9z"/>
		<path class="st5" d="M413.7,331.9c-1.2,24.2-2.5,48.4-3.7,72.6c-1.3,25-2.5,50-3.8,75c2-0.3,4.1-0.5,6-0.8
			c0.9-17,1.7-33.9,2.6-50.9c1.4-27.4,2.8-54.8,4.2-82.2c0.6-12.4,1.5-24.8,1.9-37.1h-6L413.7,331.9z"/>
		<path class="st5" d="M347.2,331.9c0.4,24.1,0.9,48.2,1.3,72.4l1.4,77c2,0.1,4,0.2,6,0.3c-0.3-17.9-0.7-35.8-1-53.7
			c-0.5-27.5-1-54.9-1.5-82.4c-0.2-12.4-0.3-24.8-0.6-37.2h-6C346.9,316.2,347.1,324,347.2,331.9z"/>
		<path class="st5" d="M381.5,331.9c-0.4,24.1-0.9,48.3-1.3,72.4c-0.4,25.8-0.9,51.5-1.4,77.3c2-0.1,4-0.1,6-0.3
			c0.3-17.8,0.6-35.6,1-53.5c0.5-27.5,1-54.9,1.5-82.4c0.2-12.4,0.7-24.8,0.7-37.2h-6C381.8,316.2,381.7,324,381.5,331.9z"/>
		<ellipse class="st7" cx="367.3" cy="265.2" rx="149.1" ry="74.2"/>
		<ellipse class="st8" cx="367.3" cy="209.3" rx="92.4" ry="46"/>
		<circle cx="291.4" cy="279.1" r="23.7"/>
		<circle cx="432.1" cy="279.1" r="23.7"/>
		<circle cx="361.8" cy="298.7" r="23.7"/>
		<rect x="338" y="275" width="47.5" height="23.7"/>
		<ellipse class="st7" cx="351.8" cy="280.8" rx="34.8" ry="23.5"/>
		<rect x="397.8" y="257.8" transform="matrix(0.866 -0.5 0.5 0.866 -75.4096 246.1093)" class="st7" width="47.5" height="11.9"/>
		<rect x="296.9" y="240" transform="matrix(0.5 -0.866 0.866 0.5 -77.0315 394.1377)" class="st7" width="11.9" height="47.5"/>
		<circle class="st9" cx="291.4" cy="281.8" r="9.8"/>
		<circle class="st9" cx="433" cy="281.8" r="9.8"/>
		<path class="st10" d="M-13,162.1"/>
		<path class="st10" d="M-18.4,154.3"/>
		<g>
			<g>
				<path class="st11" d="M134.2,197.6l22.4,75.2c-2.3,1.5-11.5,7.2-17.5,3.6c-3.2-1.9-4-5.6-5.8-13.4c-7-29.2-6.8-27.8-6.1-23.8
					c-2.2-12.2-4.4-24.3-7-38.3C124.9,199.7,129.6,198.7,134.2,197.6z"/>
				<g>
					<g>
						<path class="st12" d="M110.5,31.4c7.9,55.5,15.9,110.9,23.8,166.4c-7.7,3-23.6,8.7-38,9.8c-2.9,0.2-6.9,0.4-10.5-2
							c-5.1-3.5-6.3-10.2-6.7-13.4c-7.4-53.1-1.5-80.9-1.5-80.9C81.6,92.7,90.2,63.5,110.5,31.4z"/>
					</g>
					<path class="st10" d="M110.9,34.4c7.3,52.2,14.6,104.4,21.9,156.6c-9.7,2.2-19.3,4.4-29,6.6c-2.9,0.6-7,1-10.7-1
						c-2.2-1.2-10.6-6.5-9.6-48.9c0.2-8.2,0.5-20.1,2.9-36.3C91.2,78.9,100.5,56.7,103,51C105.9,44,108.8,38.4,110.9,34.4z"/>
					<path class="st13" d="M109.9,43.2c1.7,0,1.2,26.6,7.6,70.1c1.9,12.6,2.7,25.3,5,37.7c3.2,17.5,6.9,30.4,1.9,33.5
						c-2.1,1.3-5.2,0.5-7.1-0.6c-4.5-2.8-3.7-8.8-6.1-29.8c-0.8-7.1-0.8-6.4-1.2-10.6c-0.6-6.5-0.6-9.3-1.1-24
						c-0.3-8.7-0.5-13-0.6-15c-0.5-6.9-1-10.2-1.1-16.6c0-4.3,0.2-7.5,0.3-9.6C109.3,50.6,109.2,43.2,109.9,43.2z"/>
				</g>
			</g>
			<path class="st14" d="M134.3,197.8c7.4,25,14.9,50,22.3,75c-1.4,1-3.5,2.4-6.4,3.5c-2.8,1-6.1,1.6-6.3,0.9
				c-0.3-0.9,5.6-3.3,5.2-5c-0.2-1-2.4-1.3-4.4-1.5c-2.9-8-5.7-16.3-8.3-24.9c-4.5-14.5-8.3-28.4-11.4-41.7c1.2-0.4,2.3-0.8,3.5-1.1
				c0.8-0.4,1.8-0.9,2.8-1.7C132.7,200,133.7,198.7,134.3,197.8z"/>
		</g>
		<path class="st5" d="M140.6,249c3.5-1.1,6.5-1.5,8.5-1.6c3-0.1,4,0.3,4.6,0.7c1.9,1.2,3.2,3.7,2.8,6.1c-0.3,2.1-1.8,3.4-2.2,3.7
			c-1.4,1.2-2.6,1.3-7.6,2c-4.9,0.6-7.4,1-8.7,2.1c-1.4,1.2-2.1,2.8-2.4,4c-0.3,1.3-1.1,2.2-2,2.3c-1,0.1-1.8-0.9-2.5-1.8
			c-0.6-0.8-1.6-2.3-2.3-5.4c-0.3-1.5-0.6-3.7-0.3-6.5c0.4-0.5,0.8-0.9,1.1-1.4c0.5-0.7,1.1-1.3,1.6-2c0.8-0.4,1.7-0.7,2.5-1.1
			C136,249.8,138.3,249.4,140.6,249z"/>
		<path class="st7" d="M-39,186.3"/>
		<g>
			<g>
				<path class="st15" d="M583.4,207.9c-0.6,0.6-0.8,1.7-0.4,2.7c-0.1,8.7-0.2,17.3-0.4,26c-0.2,10.2-0.4,20.4-0.5,30.6
					c2.5,0.9,6.3,1.9,11,1.9c3.8,0,7-0.6,9.2-1.3c-2.8-8.1-5.6-18.4-7.2-30.4c-1.4-10.7-1.5-20.3-1.1-28.2c-2.2-0.2-4.4-0.5-6.6-0.7
					C586.3,207,584.4,207,583.4,207.9z"/>
				<path class="st16" d="M583.8,207.5c1.3,0.2,2.7,0.4,4,0.6c-0.4,19.6-0.8,39.2-1.2,58.8c-0.9,0-1.9,0-2.8-0.1
					C583.8,247.1,583.8,227.3,583.8,207.5z"/>
				<path class="st17" d="M589.9,208.5c0.7,7.3,1.4,14.5,2.1,21.8c0.6,8.1,2.2,17.6,5.4,27.8c1.1,3.4,2.3,6.7,3.5,9.7
					c0.5,0,0.9,0,1.4,0.1c-2.8-8.1-5.6-18.4-7.2-30.4c-1.4-10.7-1.5-20.3-1.1-28.2C592.8,209,591.4,208.8,589.9,208.5z"/>
			</g>
			<g>
				<path class="st18" d="M580.6,56.3l2.2,152.2c15.2,4.1,35.4,7.5,58.9,5.8c7.9-0.6,15.1-1.7,21.8-3c4.1-13.2,7.7-28.2,10.2-44.8
					c7-47.6,1.3-88.4-5.7-117.1L580.6,56.3z"/>
				<g>
					<path class="st10" d="M580.6,56.2l2.1,149.4c14.6,4.1,34.1,7.4,56.7,5.7c7.6-0.6,14.6-1.6,21-3c3.9-13,7.4-27.7,9.8-43.9
						c6.8-46.7,1.2-86.8-5.4-114.9L580.6,56.2z"/>
					<path class="st19" d="M650.9,53.8c4,20.6,7.3,47.3,6.3,78.4c-1,30.8-6,57-11.2,77.1c5.1-0.3,10.2-0.6,15.3-0.9
						c5.5-19.4,10.8-45.3,11.8-76.2c1-32.1-3-59.3-7.6-79.5C660.6,53.1,655.7,53.4,650.9,53.8z"/>
					<path class="st20" d="M655.1,57.1c1.3,10.7,2.6,21.5,3.9,32.2c1.7-0.3,3.4-0.6,5.1-0.9c-1.6-10.4-3.2-20.9-4.8-31.3
						C657.8,57.1,656.4,57.1,655.1,57.1z"/>
					<path class="st20" d="M584.8,144.6c27.8,10.7,55.6,21.4,83.3,32.1c0.3-1.5,0.5-3.1,0.8-4.6c-28-10.8-56.1-21.7-84.1-32.5
						C584.8,141.2,584.8,142.9,584.8,144.6z"/>
					<path class="st20" d="M584.9,173.7c26,9.6,52,19.1,77.9,28.7c1.7-7.5,3.3-15,5-22.4c-27.7-10.7-55.4-21.4-83-32.1
						C584.9,156.4,584.9,165,584.9,173.7z"/>
				</g>
			</g>
		</g>
		<path class="st5" d="M596.2,239c-3.5-1.1-6.5-1.5-8.5-1.6c-3-0.1-4,0.3-4.6,0.7c-1.9,1.2-3.2,3.7-2.8,6.1c0.3,2.1,1.8,3.4,2.2,3.7
			c1.4,1.2,2.6,1.3,7.6,2c4.9,0.6,7.4,1,8.7,2.1c1.4,1.2,2.1,2.8,2.4,4c0.3,1.3,1.1,2.2,2,2.3c1,0.1,1.8-0.9,2.5-1.8
			c0.6-0.8,1.6-2.3,2.3-5.4c0.3-1.5,0.6-3.7,0.3-6.5c-0.4-0.5-0.8-0.9-1.1-1.4c-0.5-0.7-1.1-1.3-1.6-2c-0.8-0.4-1.7-0.7-2.5-1.1
			C600.7,239.8,598.5,239.4,596.2,239z"/>
		<g>
			<g>
				<g>
					<path class="st21" d="M368.3,49.7c-1.5,0.9-1.4,4.8,0.5,9.8c2,5,1,8,0.4,10.5c-0.6,2.3-2.1,5.6-6.9,9c-2.8,2.4-6.8,6-11.7,10.3
						c-3.8,3.3-6.3,5.4-7,6c-6,5.2-15.3,15.2-20.8,24.8c-2.8,4.9-15.2,26.7-6.3,48.5c6.7,16.5,21.8,23.9,27.5,26.7
						c2.9,1.4,14.8,6.9,30.7,6.1c6.2-0.3,16.1-0.9,25.8-7.5c2.4-1.6,6.6-4.6,10-10c2.5-4.1,4.1-8.9,4.7-17.7
						c0.1-1.1,1.3-21.8-6.3-42.8c-3.1-8.7-5-9.7-7-18c-0.4-1.5-2.3-3.7-3-7.3c-0.8-4.1-0.2-7.7,0.4-10.1c2.7-3,3.6-6.2,2.6-7.4
						c-1.2-1.4-4.8-0.4-7,1c-2.7,1.7-3.8,4.1-5,6.8c-1.5,3.3-2.5,7.2-3.3,10.5c-0.7,2.9-0.9,4.4-2.3,5c-1.4,0.7-3.5,0-4.5-1.3
						c-0.4-0.5-0.9-1.4-0.6-4.9c0.2-3,0.8-5.7,1.6-8.4c0.4-1.4,1.1-3.4,2-5.8c0.4-3.5,0.6-8.6-0.5-14.5c-1-5.3-2.8-9.5-4.3-12.5
						c-1.9-1.8-3.8-3.7-5.8-5.5C369.7,48.9,368.5,49.5,368.3,49.7z"/>
				</g>
			</g>
			<g>
				<g>
					<path class="st22" d="M367.9,50.8c1-0.8,6.1,2.7,8.7,7.7c1.7,3.2,1.9,6.4,2.2,12.7c0.1,3.1,0.3,5.6,0,8.9
						c-0.6,7.2-2.4,12.8-3.7,16.3c-2.9,7.8-5.7,12.7-13.6,27.2c-8,14.6-9.7,17.9-10.7,23.8c-0.7,4.4-2.2,13.8,2.9,18.7
						c2.7,2.6,6,2.8,6.3,5.1c0.4,2.6-3.2,5.9-6.8,7c-8.4,2.6-21.1-6.4-25.8-17.7c-3.7-8.8-1.8-17.1-0.2-24.5
						c2.4-10.7,7.2-18.2,9.6-21.9c1-1.5,1.1-1.6,15.5-18.5c0,0,4-4.7,11.4-14.6c2.7-3.6,7.1-9.6,7.5-15.8c0.2-3.2-1.2-6.6-1.2-6.6
						c-0.4-1.4-0.9-2.6-1.2-3.4C367.5,52.1,367.5,51,367.9,50.8z"/>
				</g>
			</g>
			<g>
				<g>
					<path class="st23" d="M367.9,50.8c1.5-0.8,5.8,3.2,7.8,7.9c1.1,2.6,1.4,5.1,1.5,8.6c0.1,2.1,0.2,3.8,0,6
						c-0.1,1.4-0.5,5.5-2.5,11.1c-1,2.9-3.9,10.5-10.7,18.1c-4.6,5.1-5.7,4.2-10.2,9.7c-4.2,5.2-7.2,10.7-7.3,10.9
						c-3.6,6.9-4.2,11.1-6.3,11.2c-1.9,0-3.4-3.5-3.7-4.1c-0.6-1.5-1-3.7,0.7-10.7c1.2-4.7,1.8-7.1,3.1-9.6
						c0.8-1.6,3.5-4.6,8.8-10.6c2.8-3.1,4.1-4.7,6.4-7.4c1.7-2.1,3.1-3.8,4-5c1-1.3,2.5-3.4,4.4-5.9c3.3-4.4,3.8-4.4,4.4-6
						c0.2-0.6,0.5-2.5,1.1-6.4c0.4-2.8,0.5-3.8,0.4-5.1c-0.2-1.8-0.7-3.3-1.1-4.2c-0.5-1.7-0.9-3.3-1.4-5
						C367,51.7,367.5,51,367.9,50.8z"/>
				</g>
			</g>
			<g>
				<g>
					<path class="st23" d="M350.4,132.9c-1.1-0.4-3.7,3.8-5.1,7.3c-0.8,1.9-1.2,4.2-2,9c-0.9,5.1-0.9,6.7,0,7.3
						c0.5,0.3,1.3,0.3,1.8,0c1.3-0.6,1.1-2.5,1.8-6.1c0.6-3.4,1.6-6.3,2.1-7.5c0.8-2.2,1.1-2.3,1.5-3.8
						C351,136.6,351.3,133.2,350.4,132.9z"/>
				</g>
			</g>
			<g>
				<g>
					<path class="st24" d="M369.1,69.9c-0.6,1.5-1.6,3.8-3.5,6.1c-1.6,1.9-2.9,2.7-5.3,4.6c-2,1.5-1.1,1-8.1,7.1
						c-6.7,5.9-6.1,5.1-8.7,7.5c-2.2,2-5.6,5.1-9.6,9.6c-2.1,2.4-5.1,5.8-8.5,10.9c-2.4,3.7-4,6.6-4.5,7.6c-2.5,4.9-3.9,8.9-4.2,9.8
						c-0.7,2.1-2,5.7-2.7,10.7c-0.3,1.6-0.7,4.4-0.7,8c0,4.5,0.6,7.8,0.8,8.8c0.7,3.7,1.8,6.5,2.3,7.9c0.6,1.4,1.8,4.3,4,7.6
						c0.4,0.7,1.6,2.4,3.4,4.5c1.2,1.4,2,2.3,3.1,3.3c2.4,2.1,4.7,3.1,7,4.2c1.7,0.8,2.9,1.3,4.6,1.7c2.7,0.6,4.9,0.5,5.6,0.5
						c1.9-0.1,4.1-0.3,6.2-1.8c0.9-0.7,2.3-1.7,2.5-3.3c0.2-2-1.6-3.6-1.9-3.9c-2-1.7-3.6-0.8-6.6-2.6c-1-0.6-0.7-0.7-3-2.5
						c-3.3-2.7-4.1-2.8-6.2-4.6s-3.2-3.4-4.7-5.5c-1.9-2.7-3.3-4.6-4.2-7.4c-1.3-3.8-1.1-7-0.8-11.1c0.2-3,0.6-5.1,1-7.5
						c0.5-2.6,1.2-6.2,2.8-10.7c0.7-1.8,2.2-6.1,5.2-11.1c2.4-4.1,4.7-7,7.2-10.1c1.4-1.8,2-2.3,7.5-8.7c2.1-2.4,4.1-4.8,6.4-7.4
						c8.2-9.2,11.3-11.5,12.8-16.8C369,72.9,369.1,71,369.1,69.9z"/>
				</g>
			</g>
			<g>
				<g>
					<path class="st22" d="M398.5,79.4c-2.2,0.3-3.7,1.9-4.6,2.8c-1.4,1.5-2.1,3-2.7,4.5c-0.3,0.7-1.1,2.8-1.5,5.9
						c-0.2,1.7,0,2,0,5.6c0.1,5.2-0.2,5.2,0,8c0.1,1.4,0.3,3.6,0.9,6.4c0.2,0.9,0.3,1.1,1.7,5.6c1.5,4.7,1.4,4.5,1.7,5.3
						c1.3,3.5,1.7,3.7,2.6,6.5c0.2,0.7,0.9,2.8,1.3,5.6c0.1,0.6,0.5,3.2,0.4,6.7c0,0.7-0.1,2.8-0.4,5.6c-0.4,2.7-0.9,4.6-1.4,6.8
						c-1,3.7-1.5,5.6-2.5,6.8c-0.8,0.9-2,1.7-4.3,3.2c-2.8,1.8-3.8,1.9-4.1,1.9c-1.7,0.1-3.1-0.6-4.4-1.2c-0.7-0.4-2-1-3.2-2.4
						c-0.2-0.2-0.9-1.1-1.7-2.9c-0.3-0.8-1.1-2.6-1.5-5.6c-0.3-2.4-0.6-4.5,0-7.2c0.3-1.2,0.8-3.4,2.4-5.6c1.3-1.7,2.8-2.9,3-3
						c1.1-0.8,1.7-1,2.8-2c0.9-0.8,2.3-2,2-2.9s-2.7-0.8-3.4-0.8c-2,0.1-3.5,0.8-4.4,1.3c-1.7,0.8-2.8,1.8-3.6,2.6
						c-1.3,1.2-2.1,2.3-3,3.4c-1.3,1.7-2.5,3.3-3.5,5.6c-0.8,1.8-1.2,3.4-1.9,6.6c-0.7,3.2-1.1,4.7-1,6.6c0,2.6,0.6,4.7,1,6.6
						c0.4,1.4,0.6,2.4,1.1,3.6c0.4,0.8,1.5,3.3,3.9,5.8c1.1,1.1,3.1,3.2,6.3,4.5c2.8,1.1,5.4,1.2,7,1.3c1.4,0.1,1.5-0.1,4.4,0
						c2.6,0.1,3.1,0.2,4.4,0c0.8-0.1,2.4-0.4,4.1-1.3c2.3-1.3,3.4-3.2,4.4-4.8c0.8-1.4,1.2-2.4,2-4.6c0.6-1.6,1.5-4.2,2.1-7.7
						c0.5-2.5,0.1-2,0.7-5.8c0.6-4.2,1-5.1,1.1-8.1c0.1-1.4-0.1-1-0.1-4.3c-0.1-5.3,0.2-5.3,0-7.5c-0.1-1.2-0.5-3-1.3-6.5
						c-0.4-2.1-0.8-3.6-1.1-4.9c-0.7-3.2-1.3-5.5-2.1-8.6c-0.9-3.3-1.3-5-1.7-6.4c-0.7-2.2-0.9-2.7-1.7-5.6c-1-3.4-1.5-5.1-1.6-6.1
						c-0.1-2.3,0.4-4,1.1-6.5c0.8-2.9,1.3-4.3,2.3-5.8c0.4-0.6,1.1-1.5,1.5-3c0.2-0.9,0.5-1.9,0-2.6C401.4,79,398.9,79.4,398.5,79.4
						z"/>
				</g>
			</g>
			<g>
				<g>
					<path class="st24" d="M398.5,91.9c0,1.4,0.2,3.1,0.6,4.9s0.9,2.6,1.9,5.8c0.9,2.7,0.7,2.5,1.5,4.8c1,3,2,5.3,2.8,7.2
						c1.5,3.5,1.8,3.7,3,6.8c0.9,2.3,1.5,4.1,1.9,5.4c0.3,1,1.3,4.2,2.3,8.6c0.2,1,0.8,3.6,1.3,6.9c0.1,0.8,0.4,2.8,0.7,5.4
						c0.5,4,0.6,7.3,0.7,9c0,1.1,0.1,3.2,0.1,5.8c-0.1,4.6-0.1,7.3-0.7,10.5c-0.9,4.4-2.4,7.5-2.8,8.2c-0.5,1-2.6,5.1-7,9.1
						c-3,2.8-5.7,4.3-7.8,5.5c-2.5,1.4-4.5,2.5-7.5,3.1c-1.4,0.3-3.3,0.4-7,0.5c-7.6,0.2-9.2-0.1-10.5-0.6c-1.6-0.5-5.2-1.6-5.6-4.1
						c-0.3-1.6,0.9-3.1,1.1-3.2c2-2.2,4.9-1.1,10.1-1.9c2.5-0.4,4.7-1.4,9-3.2c4.5-1.9,6.7-2.9,9-4.9c2.5-2.2,3.9-4.6,4.6-5.7
						c1.3-2.2,2-4,2.7-5.7c1.3-3.5,1.9-6.3,2.1-7.7c0.4-2,0.3-2.4,0.7-5.8c0.6-5,0.8-5.1,1.1-8.1c0.6-5.8,0.1-10.4-0.1-11.8
						c-0.2-1.7-0.6-3.6-1.5-7.4c-0.7-3.1-1.2-5.4-2.2-9.4c-1-4.2-1.6-6.2-2.1-8.2c-0.4-1.2-0.6-1.8-2.1-7c-1.2-3.9-1.3-4.3-1.4-5
						C397.3,97.8,397.3,95.2,398.5,91.9z"/>
				</g>
			</g>
			<g>
				<g>
					<path class="st23" d="M402,80.4c-0.9-1.3-3.2-1.1-3.5-1c-1.4,0.2-2.3,1-3.5,2c-1.6,1.4-2.6,2.9-2.9,3.5
						c-1.1,1.8-1.4,3.4-1.7,4.7c-0.1,0.4-0.4,1.8-0.6,5.5c-0.1,3.2-0.1,5.5,0,8.4c0.1,2.5,0.1,3.7,0.3,5.2c0.3,2.1,0.7,3.5,1.1,5.3
						c0.6,2.5,1.3,4.3,2.2,6.9c0.5,1.6,1,2.9,2,5.4c1.6,4.4,1.7,4.5,2,5.5c0.9,3.2,1,5.8,1.1,6.5c0.1,2.8-0.3,3.7-0.1,7.7
						c0,0,0.1,1.4,0.7,3.7c0.5,2,0.9,2.4,1.3,2.6c0.9,0.3,2-0.7,2.1-0.9c0.8-0.8,1-1.8,1.3-3.7c0.3-2.2,0.4-3.3,0.4-4.9
						c0-2.3-0.2-4.1-0.4-6.4c-0.4-3.4-0.6-4.7-1.1-9c-0.6-5.1-0.6-5.2-0.9-6.9c-0.2-1.2-0.6-3.8-1.5-7.1c-0.4-1.7-1.1-4-1.3-4.8
						c-0.8-2.7-0.7-2.9-1.2-4.8c-0.9-3-1.1-3.1-1.3-4.5c-0.4-2.5-0.1-4.3,0-4.7c0.2-1.1,0.6-2,1.3-3.9c1-2.4,1.4-3.6,2.1-4.5
						c1.2-1.5,2-1.7,2.4-3C402.3,82.7,402.7,81.4,402,80.4z"/>
				</g>
			</g>
		</g>
	</g>
</g>
</svg>
